<?xml version="1.0" standalone="no"?>
<!DOCTYPE svg PUBLIC "-//W3C//DTD SVG 1.1//EN" "http://www.w3.org/Graphics/SVG/1.1/DTD/svg11.dtd" >
<svg xmlns="http://www.w3.org/2000/svg" xmlns:xlink="http://www.w3.org/1999/xlink" version="1.1">
<metadata>
Created by FontForge 20170731 at Fri Oct 30 23:57:20 2020
 By Aleksey,,,
(c) 2004, 2013   www.k-type.com        The Mailart Rubberstamp fonts are derived from the individually rubber-stamped letters on printed and collaged envelopes received from mailartists, plus the typeface Clarendon Condensed.
</metadata>
<defs>
<font id="MailartRubberstamp-Regular" horiz-adv-x="1269" >
  <font-face 
    font-family="Mailart Rubberstamp"
    font-weight="400"
    font-stretch="normal"
    units-per-em="2048"
    panose-1="0 0 0 0 0 0 0 0 0 0"
    ascent="1638"
    descent="-410"
    x-height="1194"
    cap-height="1585"
    bbox="-41 -571 2337 2349"
    underline-thickness="102"
    underline-position="-307"
    unicode-range="U+0009-FB02"
  />
<missing-glyph horiz-adv-x="2048" 
 />
    <glyph glyph-name=".notdef" horiz-adv-x="2048" 
 />
    <glyph glyph-name=".null" horiz-adv-x="0" 
 />
    <glyph glyph-name="nonmarkingreturn" horiz-adv-x="682" 
 />
    <glyph glyph-name="HT" unicode="&#x9;" horiz-adv-x="450" 
 />
    <glyph glyph-name="LF" unicode="&#xa;" horiz-adv-x="2048" 
 />
    <glyph glyph-name="CR" unicode="&#xd;" horiz-adv-x="450" 
 />
    <glyph glyph-name="DLE" horiz-adv-x="2048" 
 />
    <glyph glyph-name="DC1" horiz-adv-x="2048" 
 />
    <glyph glyph-name="DC2" horiz-adv-x="2048" 
 />
    <glyph glyph-name="DC3" horiz-adv-x="2048" 
 />
    <glyph glyph-name="DC4" horiz-adv-x="2048" 
 />
    <glyph glyph-name="RS" horiz-adv-x="1751" 
 />
    <glyph glyph-name="US" horiz-adv-x="1751" 
 />
    <glyph glyph-name="space" unicode=" " horiz-adv-x="450" 
 />
    <glyph glyph-name="exclam" unicode="!" horiz-adv-x="557" 
d="M250 500h10v12h-10v-12zM330 719h10v14h-10v-14zM297 834h12v10h-12v-10zM315 1180h17v16h-17v-16zM342 1192h16v10h-16v-10zM340 1266l6 69h-12v-16zM307 1331h12v10h-12v-10zM297 1376h14v13h-14v-13zM334 1405h12v14h-12v-14zM403 74q0 -103 -73 -135h-4q-5 0 -9.5 -2
t-7 -4t-7 -7t-5.5 -6v-6q0 16 6 16h-70q-8 4 -27 13t-22 10.5t-14 9.5t-12.5 13t-5.5 16.5t-4.5 25t-0.5 33.5q0 58 19 113q11 4 37.5 26.5t44.5 22.5q16 0 33 -14l22 22q5 -9 35 -39l6 11q5 -6 23.5 -35t33.5 -41q2 -14 2 -43zM434 1305q0 -19 -20.5 -54t-20.5 -53
q0 -14 8 -22q-24 -86 -24 -132q0 -31 8 -55h-8q-9 -57 -18 -180t-21 -188q-10 -10 -10 -23q0 -8 5 -23.5t5 -23.5q0 -18 -19 -29q-1 -5 0 -14t2 -22t1 -17q0 -74 -56 -92q-24 46 -40.5 118t-16.5 126q0 35 6 51q-14 105 -14 188q0 28 -18.5 82t-18.5 84q0 42 12 86l6 6l6 33
q-20 10 -22 18q-14 3 -14 17q0 3 3 12.5t4 15.5t-1 9l8 10q-14 9 -25.5 31.5t-17.5 29.5q6 8 8 27.5t1.5 37t0.5 32.5v16q59 102 133 102q14 0 30.5 -4.5t26.5 -8.5t28.5 -13.5t25.5 -12.5v-8q0 -9 7.5 -15t16.5 -3q3 -14 18 -45.5t15 -48.5q0 -11 -8 -23q8 -8 8 -22z" />
    <glyph glyph-name="quotedbl" unicode="&#x22;" horiz-adv-x="606" 
d="M213 1690q0 -24 -7.5 -91t-2.5 -104q-11 -19 -22 -73t-11 -79q0 -19 -16.5 -75.5t-8.5 -81.5q-9 4 -13 15.5t-3.5 22t1.5 26t1 20.5q0 87 -49 266l16 219q20 8 31 8q48 0 82 -39q0 -6 1 -17t1 -17zM524 1610q-15 -15 -24 -57.5t-11 -47.5q3 -12 3 -22q0 -9 -7 -56t-2 -61
q-20 -10 -20 -20q0 -8 7 -23t7 -23v-8q-7 -2 -11 -5.5t-5.5 -9.5t-2 -9.5t0 -12.5t0.5 -10q0 -28 -17 -35l17 -16l-10 -8q-17 8 -17 18q0 6 5 16.5t5 16.5q0 9 -16 14l16 17q-15 19 -22.5 49.5t-8.5 49.5t-1 56q0 40 -13.5 118t-13.5 118q0 21 2 31q10 10 13 26.5t9 29.5
t25 19q5 -1 22 -4t26 -5.5t21 -8t17.5 -15.5t5.5 -24q0 -8 -5 -26t-5 -27q0 -22 10 -45z" />
    <glyph glyph-name="numbersign" unicode="#" horiz-adv-x="1916" 
d="M797 770l-15 51h-22q12 -12 37 -51zM879 760l26 12v21l-26 8q9 -8 9.5 -20t-9.5 -21zM655 1286l23 -22l-8 36h-15v-14zM1597 596q-5 20 -2.5 50t13 64.5t13 69t-2 62.5t-31 45.5t-74.5 17.5q-28 -5 -48.5 -18t-29.5 -23t-26.5 -38t-26.5 -40q17 -22 22 -54.5t3.5 -58.5
t9 -53.5t39.5 -44.5q88 8 141 21zM1618 1460q21 -49 10.5 -98.5t-45.5 -87.5q-76 -16 -99 -35q-12 -10 -18 -22q-9 12 -32 25.5t-41.5 24t-32.5 31t-12 45.5q1 12 11.5 43t9.5 53t-21 38q-19 -5 -57 -11.5t-67 -15t-53 -23.5q-32 -48 -44 -97.5t-18.5 -109t-21.5 -104.5
l25 -24q-11 -65 -14 -146t4 -139l-35 -64l-14 9q-1 -1 -13 -11.5t-12 -21.5q42 -6 62 -37.5t21 -75t0.5 -95t0.5 -97.5q-14 -52 -12.5 -109.5t10 -103.5t2.5 -100t-35 -99q-12 -6 -22.5 -6.5t-17.5 3.5t-15 12t-13 15.5l-12 18t-12 16.5q0 34 -16.5 69.5t-37.5 61
t-40.5 59.5t-24.5 64q-22 10 -24 30t7 38.5t3.5 36t-35.5 24.5q0 61 -21 126t-47.5 112.5t-62.5 112.5t-55 110q3 12 0.5 23.5t-1 25.5t10.5 21q-28 5 -38 28.5t-6.5 49.5t2 50t-11.5 30t-48 -11q-16 -194 -12.5 -322t11 -332.5t1.5 -338.5q-1 -30 -14 -54.5t-37 -43
t-43.5 -29.5t-49.5 -25l-127 -24q-11 23 -38 35t-52 15.5t-48 20t-30 48.5q-21 14 -30 34.5t-8.5 36.5t3.5 46.5t3 48.5q10 10 30.5 36.5t36.5 40.5q16 -1 44.5 0.5t47 0.5t40.5 -6t39.5 -20.5t29.5 -41.5l-25 -129q14 -11 27.5 -13.5t26 4.5t22 14t23 20.5t20.5 19.5
q-15 92 1 200.5t48 163.5l-35 33q11 64 11.5 142.5t-5 138t-12.5 133t-8 112.5q20 21 23.5 58.5t-4 74.5t-10 79.5t4.5 74.5q-6 28 -25 43.5t-42.5 18.5t-49 7t-44.5 10.5t-28 29t-1 61.5q7 17 67.5 21t162 0.5t137.5 -2.5q2 -1 11.5 -6.5t12.5 -7t10 -7t10.5 -10t7.5 -12.5
t7 -17q8 -27 26.5 -92t31 -105t34 -93t45.5 -91v-45h-24q-10 -6 -10.5 -14t5 -14.5t12 -15t7.5 -13.5q6 1 8.5 5t2.5 7.5t-0.5 10.5t-0.5 10q15 -13 37.5 -68.5t46.5 -69.5q-6 -71 35 -118h14.5h15t12.5 1t13.5 3.5t10 7.5t8.5 12q-3 37 -9.5 97t-11 100.5t-7 97.5t0.5 98.5
t15 91.5t33 89t56 78.5t84 70.5q332 107 447 -84zM1808 223l25 -133q7 -38 -7 -67t-52 -25h-510q-33 26 -34 63t12 86t11 76q79 -9 274.5 5.5t280.5 -5.5zM1759 881q18 -21 28.5 -45t16 -44.5t2.5 -50.5t-5 -47.5t-13 -51.5t-16 -46.5t-19.5 -48.5t-17.5 -43
q-3 -19 -17.5 -26t-30 -5t-25.5 -6.5t-5 -32.5q-144 -39 -236 -14q-70 44 -116 110t-60 140q2 16 5 45.5t5 46.5t6 44t8 43.5t12 39.5t17.5 38.5t23.5 33t31 30t39.5 23.5t49.5 18q95 27 190 -18t127 -133z" />
    <glyph glyph-name="dollar" unicode="$" horiz-adv-x="1110" 
d="M381 57h12v13h-12v-13zM178 258h15v14h-15v-14zM535 16h14v15h-14v-15zM350 649h10v10h-10v-10zM850 274q-1 7 -1.5 34.5t-2.5 43.5t-7.5 38.5t-17 36t-28.5 19.5l10 7q-21 0 -27 10q-8 3 -30.5 18t-36.5 15q-10 0 -21 -11q-6 4 -21.5 12.5t-22 12t-19.5 8t-27 6.5
q-6 -42 -6 -47q0 -17 3 -51.5t3 -52.5q0 -31 -6 -58h-6l12 -16q-10 -5 -10 -18q0 -6 2 -17.5t2 -17.5q0 -10 -6 -19q6 -23 6 -65q0 -26 6 -47q40 -9 53 -9q40 0 54 25l8 -10q32 4 54.5 21t32 35.5t24 49t26.5 47.5zM283 752h14v10h-14v-10zM461 752h14v10h-14v-10zM719 518
h14v12h-14v-12zM504 1059q0 22 -1 67.5t-1 69.5l-15 27q-95 -6 -144.5 -46.5t-49.5 -132.5q-14 -18 -14 -34q0 -31 36 -72t41 -57q57 -33 105 -33q22 0 33 8q0 2 -1 7t-1 7q0 12 5 33t5 33q0 13 -8 18q10 44 10 105zM502 1366h12v10h-12v-10zM762 1251h10v15h-10v-15z
M567 1468h11v15h-11v-15zM1028 395q-24 -12 -24 -39q0 -10 4 -29.5t4 -29.5q0 -27 -25 -39q4 -4 4 -10q0 -8 -8 -20.5t-8 -20.5q0 -9 6 -12q-16 -6 -25 -26t-19 -36.5t-30 -17.5l6 -9l-120 -79q2 5 -7 14q-15 -13 -33 -21t-44.5 -15t-36.5 -11q-3 6 -13 6q-18 0 -30 -4.5
t-26.5 -14t-27.5 -14.5q11 -14 11 -39q0 -8 -2 -24.5t-2 -24.5q0 -21 10 -31l-25 -24l8 -10q-7 -1 -22.5 -7t-22.5 -6q-18 0 -26 16.5t-8 35.5q0 14 6 42t6 44q0 38 -37 61q-197 11 -242 80q-17 0 -39.5 11t-33.5 24q-5 21 -33.5 87.5t-28.5 106.5q0 27 4 39l-16 19
q1 11 21 15t20 9q0 7 -8 15h-17q8 5 36 38t46 33q108 0 137 -65q-2 -6 -2 -19q0 -8 0.5 -26.5t0.5 -27t-2.5 -23t-8 -22t-17 -15t-28.5 -11.5q0 -10 -53 -10q-5 0 -11 -5.5t-8 -6.5q1 -19 8.5 -32.5t23 -24t25 -14.5t31.5 -13q11 -30 35 -42t47.5 -11t51.5 -5t45 -24h4
q16 0 31 23.5t22 27.5q-18 0 -18 14q0 5 3 15.5t3 15.5l-6 12q10 14 10 54q0 20 -4 58t-4 56q0 22 6 68t6 68q0 46 -21 70t-67 30q-14 11 -47 19t-49 22l10 6q-5 7 -28 11.5t-42 14.5t-20 31l-8 -8q-2 12 -16 21.5t-28.5 15t-24.5 19t-5 32.5q-15 16 -24 31.5t-12.5 35
t-4 31.5t0.5 38t1 38q0 35 -8 62q27 151 155 239q8 6 23.5 19.5t25 21t24.5 13t30 4.5q16 12 52.5 22t59.5 25.5t27 50.5q6 12 6 18q0 8 -8 24.5t-8 25.5q0 14 16 26q9 -5 35 -7t39 -19q3 -6 0.5 -38t-2.5 -38q0 -42 24 -66q6 -3 18.5 -3.5t29.5 0.5t20 1q33 0 47 -6l16 -16
q21 -4 80 -33q84 -42 112 -117t28 -184q0 -20 -29 -37.5t-29 -40.5q-12 -6 -26 -6q-42 0 -81.5 25.5t-39.5 64.5q0 46 7.5 71.5t21.5 33t28.5 9.5t33.5 9.5t32 25.5q-3 3 -23.5 25t-34.5 30.5t-32 10.5v4q0 5 -7 12q-72 9 -98 39l-16 -16l-17 27q-23 -8 -38 -18.5t-22.5 -21
t-10 -27.5t-2 -29.5t2 -36t1.5 -39.5q0 -127 -11 -234q13 1 15.5 -6.5t2.5 -18t5 -14.5l-6 -8q16 -19 60.5 -27.5t60.5 -29.5h10q8 0 12 8q14 -22 60 -35t61 -29q0 -16 23 -16q14 0 18 -8q16 -16 32 -37t25 -35t26.5 -43.5t23.5 -38.5q-2 -7 -1 -14.5t-1 -15.5t-9 -11
q12 -4 18 -10.5t6.5 -11.5t-0.5 -18.5t-1 -18.5q0 -14 12 -23z" />
    <glyph glyph-name="percent" unicode="%" horiz-adv-x="1746" 
d="M547 45h12v14h-12v-14zM1331 4h12v14h-12v-14zM547 1204l16 23q-14 15 -25.5 43.5t-19 50t-27 38.5t-49.5 17h-43q-29 0 -41 6q-61 -65 -77 -92q-3 -4 -5 -19t-5.5 -26t-10.5 -10q-27 -24 -27 -59q0 -16 5.5 -45.5t5.5 -43.5q0 -4 -1 -11t-1 -11q0 -9 7 -24t7 -23
q0 -16 -14 -23q1 -13 8 -45t9 -49.5t-1 -44.5q15 -6 18.5 -19t2 -26.5t14.5 -32t53 -33.5l57 7l-51 -25h51q61 -3 89 37q34 49 51.5 125t17.5 147q0 72 -14 168zM188 1300h13v15h-13v-15zM586 918h14v14h-14v-14zM647 1042l10 58l-6 16l-6 -26zM1104 635h12v14h-12v-14z
M1495 438q0 132 -47 240q-11 6 -29 35.5t-33 31.5q-12 -12 -22 -12t-27.5 11.5t-27.5 11.5q-5 0 -8 -2t-4.5 -4t-3.5 -7t-3 -8l-33 -22q-18 -13 -31 -40.5t-28 -37.5l-6 -76q-1 -22 -5.5 -31.5t-4.5 -31.5q-4 -8 -6 -20.5t-2.5 -21t0 -25t0.5 -19.5q0 -46 18 -86l-16 -19
q27 -32 34.5 -88t26.5 -84l-23 -24h17v6q23 -17 57 -17q10 0 54 8.5t61 2.5q-1 20 21 28.5t22 14.5q0 12 -4 18q53 120 53 268zM635 1210h12v15h-12v-15zM1528 362l8 56l-10 33l-2 -43zM727 1065l-14 -18q-3 -15 -3 -31.5t1.5 -37t1.5 -32.5q0 -22 -1 -32.5t-12.5 -27
t-35.5 -28.5l32 -8q-8 -13 -28.5 -46.5t-28.5 -46.5t-27 -39.5t-31.5 -37.5t-34.5 -28.5t-42.5 -24.5t-48.5 -13t-60 -6q-15 0 -42 1t-40 1q-4 2 -41.5 33t-60.5 27q-9 35 -26.5 57t-34.5 34.5t-32.5 31.5t-25.5 61.5t-10 110.5q0 192 49 350l8 -6q11 29 30.5 55.5t47 55.5
t41.5 48q122 31 170 31q37 0 62 -10t57 -35q94 -73 132 -164t48 -225zM1235 1440q-22 -2 -25 -23q-1 -4 -2 -11t-2 -11q-9 -18 -14 -23q-2 -14 -10 -37q-3 -7 -10.5 -21.5t-10.5 -21.5q-30 -66 -33 -90q-20 -22 -43 -53q-13 -18 -26 -41q-20 -52 -25 -135q-8 -49 -33 -99
q-12 -16 -14 -22q-6 -6 -6 -18q-7 -1 -23 -18t-16 -21q0 -5 -4 -37q-4 -28 -4 -35q-10 -17 -16 -21q-2 -2 -6 -4.5t-5 -3.5q-5 -5 0 -26q-17 -15 -22 -25q-7 -26 -11 -39q-4 1 -5 -0.5t-0.5 -6t-0.5 -7.5q-1 -2 -3 -7.5t-3 -7.5q-2 -4 -4.5 -6.5t-3.5 -2.5l-2 -1
q-19 0 -12 -41l-39 -59q2 -6 2 -14q0 -26 -23 -64q-2 -3 -6 -8t-6 -8q-33 -51 -31 -95q-23 -34 -32 -55q-15 -34 -13 -59l-30 -33q-6 -62 -70 -156q-10 17 -14 17q-3 0 -7 -4q-7 -7 -8 -9q-12 -16 -26 -16h-9q-20 23 -20 45v49q4 12 29 47q19 23 26 41q4 10 15.5 43.5
t19.5 51.5q9 23 29.5 63t27.5 57q34 78 45 129l31 31q0 20 6 41q1 3 17 35q1 2 4 9t3.5 9t3 8.5t3 9t1.5 8t1 9.5t-0.5 9t-1.5 10q21 11 30 28.5t19 50.5q16 66 45 91q3 5 11 22.5t12.5 25.5t14 19.5t20.5 18.5l-5 59q13 6 20.5 16.5t10 20.5t4.5 29q0 24 6 45q11 23 25 32
v11q0 24 16 43q1 2 9 10q22 29 22 45t-8 35q32 34 59 86q4 7 11.5 21.5t11.5 21.5q18 32 28 45l9 55l71 4q21 -9 25.5 -20.5t-0.5 -40.5zM1661 358q-25 -42 -16 -86l-7 2l-10 -12l17 -33q-11 2 -23 -16v-27q-17 -8 -26.5 -27t-13 -36.5t-14.5 -34.5t-32 -22
q-20 -38 -91.5 -66.5t-121.5 -28.5q-48 0 -92.5 25.5t-93.5 69.5l-11 -9q-11 28 -51 85.5t-49 95.5q-18 68 -18 163q0 151 71 306q20 12 44.5 47t50.5 61.5t57 26.5q1 2 5.5 8t7 8.5t7 5.5t9.5 4q9 0 56.5 -2t55.5 -2q37 0 62.5 -15t54.5 -48l41 -45l-19 57q12 -7 30 -36.5
t34 -31.5v-24q0 -8 10 -11.5t12 -7.5l-8 -20q15 -7 19.5 -15t2 -14.5t-6 -13t-0.5 -14.5t16 -15l27 -82q18 -32 19 -59.5t-5.5 -48t0.5 -62.5z" />
    <glyph glyph-name="ampersand" unicode="&#x26;" horiz-adv-x="1503" 
d="M158 168h16v16h-16v-16zM150 207h12v12h-12v-12zM176 207h12v12h-12v-12zM231 170h17v16l-17 -2v-14zM211 236h31v8l-6 -2q-7 0 -13 12zM408 98l14 -16v35zM485 31h17l-2 22l-17 -2zM246 487l12 74l-10 35zM737 207l25 -12l-21 32l17 -6l-43 86l-6 -22q-45 68 -56 94
q-19 32 -20 33q-2 5 -21 28q-12 12 -22 29q-26 32 -23 63q-24 15 -36.5 40t-8.5 49l-73 122q-24 2 -46 -20l-10 -10q-4 -4 -14 -2q-9 -9 -21 -27q-2 -4 -6 -11t-6 -11q-15 -29 -37 -39q-2 -31 -10 -70q-8 -46 -8 -68q1 -10 4 -28.5t4 -28.5q0 -14 -10 -31l14 -16
q-2 -6 -2 -19q0 -21 19.5 -57.5t23.5 -50.5q16 -18 55 -49q2 -1 7.5 -5.5t8 -6.5l7.5 -6t7.5 -7t6.5 -7.5t7 -9t6 -9.5q39 -3 153 -31q0 16 4 20q6 2 21 2q37 0 53 23l18 -10l-2 24q2 1 7.5 3t7.5 5l4 13q2 2 3 -0.5t4.5 -7.5t10.5 -7zM743 301l15 -16l-8 24l-21 13z
M285 815l22 -16l-2 35zM963 156l24 -17l-10 23l-14 12l-13 8v19l13 -27q2 -6 0 -8.5t0 -9.5zM563 653h12v17h-12v-17zM631 588l12 2v14h-12v-16zM469 772h12v14h-12v-14zM971 293l10 53l-16 -39l-4 -45zM584 692h10v13h-12zM1278 66l-12 14q-2 -4 -6 -9t-12 -10.5t-15 -3.5
l4 -22q22 2 41 31zM938 383l2 27q-3 -1 -10 -7t-10 -6t-8.5 6t-6.5 7v-29q20 13 33 2zM541 768l16 12l-2 25l-14 -2v-35zM504 819h14v15h-14v-15zM475 885h14v14h-14v-14zM561 819h12v17h-12v-17zM1268 145l-2 25q-1 2 -5.5 7.5t-6 7t-6.5 4.5t-11 6l-8 -11q19 -12 39 -39z
M547 940h16v14h-16v-14zM500 1012l12 18h-31zM612 975l23 6v23l-17 -3zM440 1251l4 95l-14 -80zM729 1225l-14 139q-15 15 -27 39q-12 29 -33 47q-10 -2 -20 -2q-9 -1 -26.5 1t-26.5 1q-20 0 -33 -10l-2 4h-10q-23 0 -42 -17t-28 -45l6 -4l-10 -12q0 -19 -1 -53t-1 -51
q3 -151 98 -222h8q18 0 33 19l8 10q7 8 13.5 9t27.5 -7q1 13 4.5 25t6.5 19.5t10 19t10 16t13.5 18t13.5 17.5q10 15 22 39zM1389 471l12 -12l-12 37l-29 -23zM1143 754l-17 26v-26l-16 -33l14 18q0 3 1.5 5t4 2.5l5 1t5 2t3.5 4.5zM1010 920l2 12l-19 4l4 -16h13zM1085 846
h33l-20 18zM602 1485h16v14h-16v-14zM594 1522l12 2v10h-12v-12zM621 1524h12v10h-12v-10zM676 1485h16l-2 16h-14v-16zM655 1550h31v9h-6q-6 0 -14 12zM1432 475q-1 -9 -7 -13.5t-12 -4.5h-6q0 -2 11 -10.5t12 -10.5q0 -2 -2.5 -20t-2.5 -19h-4q6 -44 6 -57q0 -82 -34 -129
l6 -8q-15 -17 -31 -70q-11 -37 -51 -51q-36 -48 -39 -51q-26 -20 -45 -15l-10 -10q-9 6 -21 6q-15 0 -35 -12q-24 -12 -51 -12q-68 -3 -121 47q-25 22 -65 43q-55 27 -74 37q-41 -9 -73 -30.5t-74 -59.5v-11l-35 -2v2l-12 -12h-11q-15 0 -37.5 -15.5t-33.5 -15.5
q-12 0 -29 11q-30 -21 -68 -21q-22 0 -61 6.5t-49 7.5q-25 20 -99 54q-51 23 -79 61q-99 96 -103 316q-2 141 37 237t143 174q3 19 9.5 26.5t21.5 12.5q3 1 9.5 3t9.5 3q26 7 40.5 26t14.5 64q-2 48 -43 115q-19 102 -19 127q0 57 23 102l-10 13q3 31 32 108q5 9 31 35
q18 18 23 41h2q4 0 20 8l6 6q1 1 4.5 2.5t6.5 3.5v13q0 15 28 26h13q27 0 45 25q9 -4 18.5 -4t22 2t20.5 2q16 0 33 -10q20 14 35 14q31 0 65 -39q19 -19 31 -37q5 -5 15 -15.5t14 -14.5q34 -87 34 -160q5 -218 -79 -258q6 -18 6 -19q0 -7 -20 -25t-19 -36q-4 -7 -21 -19
q-20 -16 -30 -22q-43 -31 -43 -62q0 -13 14 -38q28 -49 31 -54q43 -88 49 -127q49 -39 82 -96q10 -17 32 -55.5t35 -59.5q9 -4 23 -14q12 -6 14 -8v12l19 -20l16 12q4 4 6 8q4 6 27 51q5 9 24.5 43.5t26.5 49.5t20 43.5t19 53t8 50.5l-2 8l-18 -2v39h4q-44 114 -84 119h-23
q-8 2 -20 2q-18 5 -33 37l-2 14q8 3 12 14v11q7 0 21.5 1t21.5 1q36 0 111.5 -9t115.5 -8q19 0 58.5 8.5t60.5 8.5q51 3 117 -11q3 -5 5.5 -8t4 -3.5t2.5 -1.5t1 -4t1 -11q-9 -2 -14 -12v-3q-1 1 -3.5 4t-4.5 5l-19 -21q-8 2 -22 2q-41 0 -76 -28l-12 6l-10 -2
q-1 -1 -9.5 -8t-9.5 -9l-8 -20l-4 -6q-7 -9 -15.5 -26t-14 -31t-13.5 -36.5t-10 -27.5v-33h-9v-22q-8 -5 -12 -17l2 -20q-12 -8 -20 -37q-8 -19 -21 -21q-10 -7 -10 -26q0 -1 1 -4.5t1 -4.5l2 -4l-4 -6l-21 -26l9 -9q-7 -19 -58 -102q-1 -3 -9 -18t-10 -19t-7.5 -17
t-8 -20.5t-5.5 -20.5t-5 -26q13 -6 20 -0.5t13 -3.5q2 -2 15 -19.5t25 -28.5t21 -7q7 -2 14 -7.5t13 -7.5q21 -12 47 -12q23 0 33 12h8q22 0 33 17q12 -2 19 -4.5t14.5 -9t13.5 -17.5q3 12 -5 22.5t-15 17t-5 9.5q3 5 19.5 24.5t19.5 24.5q25 38 23 72q18 10 14 37v10
q0 10 33 21q-50 26 6 49l-31 4q1 3 3 5t3 4t1 7l14 13l-14 16l22 -12l18 14l17 -18q6 -4 13 -7.5t10 -4.5t5 -3t1 -6z" />
    <glyph glyph-name="quotesingle" unicode="'" horiz-adv-x="370" 
d="M268 1583q-3 0 -6 -1t-4.5 -3t-3 -3.5t-2.5 -4.5l-1.5 -4.5t-0.5 -5.5v-5v-5v-5q0 -20 -8 -26l10 -7q-16 -4 -16 -16q0 -5 4 -14.5t4 -14.5q0 -11 -19 -16q-1 -20 -8 -92.5t-4 -112.5q-4 -4 -17 -9.5t-16 -12.5l17 -17q-11 -8 -11 -22h-12q-2 78 -37 237t-35 242
q0 33 31 62.5t64 29.5q40 0 61 -41q0 -7 -1 -21.5t-1 -21.5q0 -47 12 -90z" />
    <glyph glyph-name="parenleft" unicode="(" horiz-adv-x="714" 
d="M135 225h15v13h-15v-13zM152 608h14v15h-14v-15zM268 705h15v12h-15v-12zM633 -317v-15h-8v15h8zM629 -391q0 -20 -37 -25q-16 12 -36 21.5t-44.5 19t-36.5 15.5q-8 21 -39.5 38t-40.5 29l-8 -6q-22 29 -58.5 69t-61 74.5t-44.5 83.5l-10 -8q2 2 2 8q0 24 -25 31v2
q0 7 -4 21t-5.5 21.5t3.5 19.5q-4 8 -22 8q-11 30 -27.5 93.5t-28.5 94.5q7 17 7 33q0 15 -8 43t-9 41q-6 6 -6 22q0 9 3 28t3 28q0 13 -6 22q14 9 14 17q0 6 -7 17t-7 15q0 11 6 13q-14 7 -14 10q0 4 5 13.5t3 15.5q6 23 6 63v88h-6q4 6 6 15t2.5 14.5t0 18t-0.5 16.5
q0 34 25 53q-6 15 -6 35q0 37 33 107t34 108q14 14 34 61t50 60q13 12 28.5 40.5t32.5 46.5t44 19v6q0 13 18 25t21 18q0 1 9 1l9 -1q9 0 12 6v17h4q22 0 46.5 25t37.5 30h5q15 0 38 15.5t37 15.5h4q15 -30 15 -51q0 -24 -15.5 -43t-38 -33t-45.5 -28.5t-42 -35t-23 -45.5
q-30 -23 -51.5 -57t-18.5 -66q-21 -8 -23 -49.5t-16 -54.5q17 0 17 -8q0 -2 -6 -12.5t-2 -18.5q-15 -12 -16 -39t-15 -39l14 -16l-31 -29q7 -35 7 -61q0 -50 -23 -136l16 -16q-18 0 -22 -8q14 -28 14 -64q0 -19 -7 -57.5t-7 -58.5q0 -87 29 -172q9 -4 11.5 -11t0.5 -21.5
t-2 -16.5q0 -17 14 -23q-1 -2 -7.5 -7.5t-6.5 -8.5q0 -24 14.5 -74t16.5 -66q14 -16 14 -55q0 -12 22 -57t25 -62l8 10q1 -38 43 -77.5t82 -55.5q2 -12 12.5 -20t21 -11.5t17.5 -13.5t4 -26q1 -3 8 -16t7 -21z" />
    <glyph glyph-name="parenright" unicode=")" horiz-adv-x="718" 
d="M473 164h10v12h-10v-12zM537 281h8v12h-8v-12zM465 563h12v10h-12v-10zM592 596h8v10h-8v-10zM621 424l16 -16q-11 -1 -14.5 -9.5t-2 -19t-3.5 -19t-19 -8.5q25 -12 25 -24q0 -9 -14.5 -25.5t-14.5 -26.5q0 -14 14 -24q-8 -13 -14.5 -27t-10.5 -24t-7.5 -25.5t-5.5 -23
t-4 -26t-2.5 -24t-2.5 -28t-2 -27.5q-16 -19 -42.5 -70t-51.5 -71l16 -17q-18 -10 -49 -55t-61 -55q-9 -30 -49.5 -62t-69.5 -32q-11 0 -16 -7v-16q-108 -53 -140 -72q-1 12 -7.5 38t-6.5 40q0 16 8 27h6q16 -1 44.5 20.5t43.5 24.5l-10 6l23 16l-7 11q25 20 62 62t55 71
q4 6 22.5 75t32.5 97v2q0 7 -2 20t-2 19q0 27 21 39q-6 27 -6 57q0 43 18.5 126t18.5 126v35q0 28 16 39q-29 38 -29 159q0 27 -7 90t-5 97q-6 6 -14 6v16l8 -10q-1 5 -5.5 24t-6 26t-4.5 27t-2 26.5t1 23.5l-22 23q2 4 2 10q0 9 -14 36t-15 42q-9 14 -27.5 45t-26 42.5
t-24 34t-31 34t-36.5 27t-49 28.5q-32 16 -29 55v22q5 5 0 23q1 4 13 8t18 4q14 0 31 -19t38 -16q5 -9 14.5 -15.5t22.5 -13t19 -10.5l6 7q18 -19 76.5 -59.5t81.5 -73.5q47 -33 71.5 -89.5t45.5 -119t55 -97.5q3 -20 6 -58t4 -50q3 -25 21 -79.5t18 -86.5q0 -65 -10 -111
v-4q0 -36 16 -73h-12q-6 3 -11 -7q17 -7 17 -22q0 -4 -1 -11t-1 -12.5t2 -9.5z" />
    <glyph glyph-name="asterisk" unicode="*" horiz-adv-x="1234" 
d="M795 1124v-16h-17v16h17zM205 1118l18 10l-18 -2v-8zM432 920l43 16l-55 8q2 -1 4.5 -7t4.5 -11.5t3 -5.5zM401 989h13v17h-13v-17zM475 965l6 45q-4 -3 -18 -6t-19.5 -8.5t0.5 -18.5l19 18q10 -3 9.5 -14t2.5 -16zM410 1028h14v12h-14v-12zM483 1010h15v14h-15v-14z
M410 1083h14v15h-14v-15zM864 629h25v6h-7t-7.5 -0.5t-6.5 1t-4 5.5v-12zM776 760l2 -25zM514 1120h10v13h-10v-13zM729 1018l41 16l-53 8q2 0 6 -12t6 -12zM735 1051l31 -11l-4 7zM698 1090h11v14h-11v-14zM705 1128h16v11h-16v-11zM803 1106q-3 1 -11 9.5t-14 8.5
q-15 -12 -0.5 -28t6.5 -23q11 -1 13 5.5t1.5 15.5t4.5 12zM705 1182h16v16h-16v-16zM596 1292l43 17l-33 -4l-12 -35zM864 997h19q-5 13 -1 32.5t-1 37t-25 18.5q-16 -15 -1 -44.5t9 -43.5zM913 1049h13v32q-5 -4 -7 -15.5t-6 -16.5zM1143 1135q-89 -28 -139 -78
q-24 10 -33 6q-1 -20 -31 -32t-31 -32q-6 -11 -18.5 -17t-24 -8.5t-20 -11t-8.5 -24.5q0 -62 55 -162l80 -241q0 -17 -16.5 -20.5t-26.5 5.5q-83 101 -254 213q-4 24 -21.5 31t-46.5 6.5t-41 3.5q-4 -7 -11.5 -9.5t-15 -1.5t-15.5 2.5t-14 2.5t-9 -1t-0.5 -9t10.5 -21
q4 1 12 6.5t12 6.5t13 -7q-8 -12 -31 -18t-40 -16.5t-15 -36.5q-3 1 -20 9.5t-25 8.5l-15 -14q2 0 13 -6t20 -4q5 -18 -14.5 -19.5t-22.5 -7.5q-10 -9 -40 -48.5t-55.5 -55.5t-51.5 0q2 39 39.5 108.5t42.5 108.5q26 17 36 68t29 69q-4 21 -0.5 38t-2.5 32.5t-29 21.5
q-12 21 -63 43t-60 45q-84 17 -162 98l8 21l268 -21l7 -51q7 1 11.5 4t6 8.5t1.5 9.5t-0.5 12t-0.5 11q14 2 29.5 1t33 0.5t32 5.5t26.5 15.5t18 30.5v19h13q1 -2 0.5 -13.5t5.5 -11.5h14q-28 -27 -19.5 -46t21 -45.5t0.5 -41.5l18 -37q-46 -5 -81 -59l6 -27q-1 -1 -6 -10.5
t-6.5 -13t-6 -13.5t-6 -15t-3.5 -13.5t-2 -14.5t1.5 -13t5.5 -13h33l4 55q11 0 23.5 -18t23.5 -23q-23 8 -38.5 -13.5t-24.5 -51.5v-13q14 0 27.5 12.5t17.5 32.5q7 -1 15 -13.5t22 -6.5q-5 26 11 35.5t35 7t27.5 7t-12.5 36.5q4 6 9.5 8.5t17.5 3t14 0.5q3 -3 9.5 -16.5
t13 -19.5t14.5 -1q-5 -13 -21 -18t-32 -6t-27 -10.5t-8 -30.5q32 -2 49.5 -14.5t13.5 -43.5q4 -6 23 -6l22 29q-15 15 -12 23q3 1 9 5t10 6.5t9.5 2.5t10.5 -6q50 57 31 102q1 2 6 8t4 11q-13 17 -25 12q-1 -3 -5 -11t-5.5 -11.5t-3 -12.5t1.5 -14q-7 6 -17 1.5t-17.5 -2.5
t-4.5 17q-3 5 -8 6t-12.5 0t-10.5 0q2 4 7.5 17.5t8 18.5t10 13.5t17.5 14.5l-38 39l-56 -78q-2 2 -8.5 16.5t-17.5 16.5q-12 -6 -13 -20t8 -21q-7 3 -34 -3t-31 3q9 6 11 17.5t1 18.5t4.5 12t20.5 -3q-14 27 -33 30q16 23 46.5 44t68.5 22q19 4 24 41q-67 -29 -96 -2
q12 7 34 10t34 10.5t14 30.5q-5 7 -19 15t-18 18q-4 -5 -11 -14.5t-11.5 -14.5t-11 -9.5t-14 -2t-15.5 11.5q-4 7 7 25t-3 26q17 4 18 9q1 12 -1.5 15t-8 0t-12 -3t-11.5 6l-45 37q9 33 29.5 93.5t33.5 110.5t17 97q4 1 11.5 6t15 7.5t16.5 0.5q41 -41 23 -82l53 -250
q-5 10 -20 25t-19 20q-3 -1 -24.5 -5t-31.5 -11t-14 -22q8 -29 23.5 -31.5t31 8.5t35 11t33.5 -25q15 -55 33 -69q16 -13 39 -7q37 4 106.5 7.5t120.5 9.5t97 20q15 -7 17 -23t-9 -28z" />
    <glyph glyph-name="plus" unicode="+" horiz-adv-x="1245" 
d="M164 713h16l-6 39l-10 -27v-12zM637 438h12v11h-12v-11zM604 557h12v12h-12v-12zM651 842h19l-8 8zM614 938h15v16h-15v-16zM872 743h13v13h-13v-13zM625 1055h12v12h-12v-12zM631 1188h16v16h-16v-16zM1143 774q-10 -20 -10 -29q0 -10 3 -36.5t3 -36.5q0 -24 -21 -38.5
t-55 -17.5q-21 -1 -57 2t-43 3q-58 0 -117 -11q-21 13 -51 13q-10 0 -18.5 -2t-14.5 -3h-47q-1 -2 -4 -6t-4 -6q-1 -1 -3 -2t-2 -2l-2 -1q-9 -1 13 -13l4 -2l-15 -4q0 -9 -4 -25q-1 -4 -12.5 -9.5t-11.5 -8.5v-2.5v-2.5t1 -3t3 -4t6 -5t10 -7t15 -9l-41 -12q0 -2 12.5 -9
t13.5 -10l15 -16q-37 -9 -37 -21q0 -3 1 -10t1 -10v-19l35 -16v-274q0 -28 -32 -43.5t-79 -10.5l-59 4q-13 29 -13 47q0 14 9 46q2 14 10 38q-6 29 -10 86q0 16 1 45.5t1 43.5q0 23 -5.5 64.5t-5.5 62.5q0 14 3 44t3 44q0 28 -14 45l-67 -7l2 15h-2q-19 -12 -37 -12
q-22 0 -62 8q-39 8 -53 6l-178 -10q-5 23 -12 37q-7 18 -7 51q0 15 13 41l-13 12q14 29 41 29q13 0 33 -4q20 -5 25 -5q8 0 22 7q20 4 56 4q27 0 72 -5.5t73 -5.5q58 0 113 21q1 42 -0.5 107t-1.5 92q0 98 10 147q-17 20 -17 49q0 14 9 55q1 4 3 13.5t3 13.5q2 8 2 35h14
q26 0 43 10q20 12 33 12q12 0 32.5 -7t28.5 -15l-26 -6h32l15 -2q-10 -49 -10 -131q0 -78 -9 -129q-2 -2 -8.5 -3t-11.5 -1h-6q0 -3 7.5 -6t17 -7t12.5 -6q-9 -106 -9 -123q0 -47 15 -106q22 -11 41 -11q10 0 20.5 3.5t20.5 3.5q19 0 39 -13l14 25q9 -5 16.5 -9t10.5 -5
q20 -5 22 -5q11 0 25 19q27 -16 47 -16q21 0 39 6q42 6 43 6q27 0 45 -21q2 -4 6 -4h6h10h4q5 0 19 -4z" />
    <glyph glyph-name="comma" unicode="," horiz-adv-x="503" 
d="M207 66h14l-4 38l-10 -26v-12zM246 113h10v14h-10v-14zM401 100q0 -106 -53 -233q-50 -50 -141 -109q0 -18 -37 -18q-6 0 -13 -5t-15 -13.5t-11 -10.5q-12 9 -12 21q0 2 1.5 8t2 9.5t-1.5 6.5q79 56 118.5 120t39.5 153q-12 8 -23 8q-14 0 -42 -14.5t-44 -14.5
q-23 0 -45.5 54.5t-22.5 84.5q0 27 15 48l-2 10q-1 19 8 32.5t34.5 32.5t28.5 21q138 -8 183 -78q-9 -13 -9 -23q0 -11 17 -19t20 -13q4 -36 4 -58z" />
    <glyph glyph-name="hyphen" unicode="-" horiz-adv-x="555" 
d="M94 580l121 6l-80 22l23 -18zM74 653l18 -10l-6 76l-12 -53v-13zM514 600q0 -18 -6 -33l-37 -37q-8 -2 -27 -2q-17 0 -46.5 12.5t-49.5 12.5q-3 0 -285 -6l-22 37h2q6 0 23 7.5t22 12.5v2q0 5 -10 9t-22 7.5t-15 6.5l12 14q-6 8 -6 33q0 5 1 19.5t1 26.5t-2 19
q19 23 43 23q14 0 39 -7t39 -7h14q13 16 41 16q11 0 26.5 -4t25.5 -8l10 -4h4q8 -1 37.5 5.5t40.5 6.5q29 0 32 -23l7 2q0 4 -21 4q-51 0 -63 -24q24 4 36 4q31 0 76 -10q1 15 17.5 22t19.5 13q28 -8 37 -15q-8 -36 -8 -57q0 -14 7 -39t7 -39z" />
    <glyph glyph-name="period" unicode="." horiz-adv-x="495" 
d="M209 12h22l-10 6zM188 123v16h-18zM246 86l49 -12l-37 24l4 -12h-16zM324 92h14v17h-14v-17zM184 240h13v10h-13v-10zM393 115q0 -21 -2 -31l-29 -23l11 -10q-3 -2 -17 -14t-20 -17t-20 -14.5t-23.5 -13.5t-22 -8t-24.5 -4q-35 0 -73.5 29t-53.5 59q-17 6 -17 12
q0 4 5.5 11t5.5 11q0 2 -9 11l-2 22q-1 12 1 26t3.5 22t6.5 26.5t6 23.5q49 35 86.5 46.5t95.5 5.5l8 10l19 -33l8 10q57 -57 57 -157z" />
    <glyph glyph-name="slash" unicode="/" horiz-adv-x="569" 
d="M78 0h20l-8 8zM258 625h12v16h-12v-16zM340 1032h14v17h-14v-17zM350 1149h12v10h-12v-10zM489 1528h13v12h-13v-12zM545 1608q8 -12 -8 -74q-8 -20 -19 -64q-9 -38 -2 -59q-20 -13 -20 -20q0 -5 2 -16t2 -17q0 -15 -11 -33q-4 -18 -16 -54l-14 -42q-21 -58 -19 -105
q-14 -7 -14 -8q0 -8 2 -12q2 -6 2 -21q0 -13 -6 -22q-2 -4 -6 -11.5t-6 -11.5q-9 -18 -9 -20q0 -3 15 -23q-26 -33 -47 -114q-29 -117 -43 -164q-9 -32 -20 -92t-15 -76q-16 -67 -17 -70q-13 -42 -20 -57q2 -4 2 -14q0 -20 -18 -52q-1 -3 -4.5 -8t-4.5 -8q-4 -8 -4 -10
q0 -4 15 -25q-17 -12 -25 -20v-11q0 -2 1 -7.5t1 -8.5q0 -16 -10 -33q-18 -94 -27 -125q-6 -8 -10 -24q-1 -5 -2 -16.5t-2 -16.5q-4 -39 -21 -63l9 -9q-6 -6 -10.5 -10t-6 -5.5l-2.5 -2.5l-4 -4q-1 -1 0 -2q3 -6 2 -35l-26 6q-8 -4 -13 -4q-10 0 -22 8q-1 0 -4 1t-4 1
q-1 -2 -11 -14q-35 21 -35 57q0 16 7 51q9 12 12 21q1 5 3 14.5t3 14.5q7 30 23 53q-5 10 -5 14q0 12 11 27q-2 4 -2 12q0 15 12 43q8 24 8 31q0 10 -14 31q34 40 45 94q10 71 50 203t48 165q-4 12 -4 21q0 15 16 43q11 18 11 22q0 3 -13 35q21 7 21 10q0 5 -2 9q0 2 -1 4.5
t-1 3.5q-1 1 -6 20q30 27 26 78q10 19 17 45q2 7 6 21.5t6 21.5q11 47 25 80l-9 8l15 19l-13 18q11 -1 17.5 4.5t7.5 5.5q-6 3 -6 11v20q10 15 18 23l4 4l2 2v4q0 10 2 20q1 12 10.5 69.5t10.5 68.5q3 14 10 32q10 25 15 35l20 14q0 -2 2 -2q-1 1 -3 3.5t-3 3.5q-6 6 -6 12
q2 10 6 26l-10 11l18 16l-6 8q42 37 61 35q14 -2 33 -2q22 -5 27 -16z" />
    <glyph glyph-name="zero" unicode="0" horiz-adv-x="1187" 
d="M215 287v10h-12v-10h12zM264 223h27h-27zM340 197v12h-16v-12h16zM205 356h18h-18zM215 393l2 10h-12v-10h10zM260 418l2 10h-12v-10h10zM207 557l18 -8l-10 8h-8zM131 645v14h-10v-14h10zM129 733l27 -2zM178 938l23 -12l-8 10zM223 963v14h-14l-2 -14h16zM156 1032
l2 15h-13v-15h11zM170 1006h31h-31zM184 1085v13h-12v-13h12zM176 1118v15l-14 2v-15zM985 317v11h-16v-11h16zM952 387q-3 8 -14 8h-12v-14l10 -2h4q8 0 12 8zM868 846q-5 42 -13 127t-14 130.5t-24.5 113.5t-48.5 129q-110 82 -190 84q-89 1 -145 -59t-56 -150
q-7 -14 -18.5 -39.5t-21.5 -46t-20 -37.5q5 -6 7 -15t1.5 -14.5t-2 -18t-1.5 -16.5q0 -16 14 -22q-7 -24 -12.5 -57t-8.5 -60t-5 -71t-2.5 -65t-1.5 -68t-1 -56q0 -13 9 -37.5t8 -38.5q0 -16 -19 -31q18 -32 19.5 -109.5t3.5 -90.5q21 -19 34.5 -55t23 -70t24.5 -66.5
t48.5 -52.5t86.5 -21q17 -1 51.5 -1t52.5 -1q31 12 57.5 36t53.5 54t49 46q-2 5 -1.5 9t2 11t1.5 10q0 25 -18 25q27 25 40.5 110t24.5 107h-6q-2 0 -6.5 3t-5.5 3q28 140 28 273q4 65 2 98zM162 1174l35 -11l-15 11h-20zM262 1137v14h-14v-14h14zM1008 393h14q-1 2 -3.5 6
t-3 6t0.5 7h-45h18q7 0 13 -6t6 -13zM936 537l55 -2h-10q-9 0 -24 7.5t-21 8.5v-14zM903 588h27q-4 8 -12 8q-12 0 -15 -8zM1038 473v14h-14v-14h14zM915 625v10h-10l-2 -10h12zM258 1284h18h-18zM934 631v14h-10v-14h10zM934 682l2 14h-12v-14h10zM334 1327l24 8l-10 11z
M999 717v14h-16v-14h16zM1036 709v12h-14l-2 -12h16zM979 795v14h-16v-14h16zM942 1030v6h-12l-4 2q-7 0 -11 -8h27zM989 975v14h-12v-14h12zM983 1061v14h-14v-14h14zM702 1427v11h-14v-11h14zM1126 848q-1 -17 -6 -77t-4 -93l-14 -14q16 -13 16 -33q0 -13 -12 -38t-12 -38
q0 -11 6 -23q-24 -35 -39 -122q-16 -81 -60 -158t-106 -136.5t-143 -95t-166 -34.5q-114 1 -214 61t-171 160q-2 33 -42.5 91.5t-39.5 86.5q0 25 16 41q-77 169 -74 383q1 29 4.5 90t4.5 90l20 19q-18 4 -18 18q0 7 8.5 21t9.5 22q13 27 32 85.5t34 88.5q66 122 178 193.5
t246 68.5q102 -1 201.5 -45.5t172.5 -118.5l-8 -6q5 -9 20 -24t25 -28.5t10 -27.5q0 -8 -4 -20q36 -11 50.5 -40.5t20.5 -75.5t15 -66q23 -54 17 -64q26 -45 26 -141z" />
    <glyph glyph-name="one" unicode="1" horiz-adv-x="1011" 
d="M387 123h16v12h-16v-12zM434 94h17v15h-17v-15zM403 176h15v17h-15v-17zM465 229h12v17h-12v-17zM565 332h17v12h-17v-12zM500 422h16v10h-16v-10zM408 539h14v12h-14v-12zM565 449h17v10h-17v-10zM594 449h14v10h-14v-10zM526 573h17v15h-17v-15zM473 791h14v12h-14v-12
zM426 1217h16v14h-16v-14zM637 1208h12v15h-12v-15zM500 1364h22v10h-22v-10zM565 1397h10v16h-10v-16zM618 1444h17v14h-17v-14zM930 37q0 -8 -4.5 -15t-15.5 -16l-11 -10q-120 -6 -242 -6q-81 0 -172.5 2t-203.5 5.5t-172 4.5q-9 15 -9 35q0 7 5 26.5t4 28.5q54 17 170 17
q12 0 32.5 1.5t38.5 0.5q1 17 25.5 42.5t27.5 30.5q-4 46 -4 68q0 24 4 70q16 0 23 10q-23 32 -23 51q0 14 5.5 39.5t5.5 38.5q0 15 -7.5 43t-7.5 43q0 9 2 28t2 29q0 29 -22 51q10 -2 18.5 3t8.5 16q0 10 -6.5 29t-6.5 28q0 5 4 17t4 18q0 12 -7 36t-7 36q0 22 19 45
q-11 7 -11 32q0 6 1.5 27t0.5 31q11 14 11 33q0 10 -4.5 30.5t-4.5 30.5q0 23 17 43q-18 27 -74.5 29.5t-75.5 15.5q-28 -20 -84 -20q-11 0 -41.5 1.5t-48.5 0.5q-8 8 -10.5 20t-2 29.5t0.5 23.5v17q11 18 29 18q7 0 21.5 -4t21.5 -4q12 0 20 8q48 12 77 20t72.5 25.5t71 36
t55 49t42.5 68.5q0 2 -1.5 7t-1.5 7q0 14 17.5 30t19.5 19q14 -3 46.5 -2.5t56.5 -5.5t37 -26q-9 -21 -9 -46q0 -15 4.5 -42t4.5 -42q0 -37 -29 -51q7 -3 11.5 -10.5t6 -17.5t1.5 -18t-0.5 -19.5t-0.5 -14.5q0 -34 11 -49q-12 -9 -23.5 -42.5t-15.5 -57.5q16 -6 16 -23
q0 -10 -8 -29t-8 -28q0 -2 8.5 -10t9.5 -12q-8 -8 -8 -11v-8l8 -6q8 -45 8 -133q0 -46 -6 -138.5t-6 -138.5q0 -123 18 -213q-10 -9 -15 -23t-5 -24t1 -28.5t1 -24.5q0 -28 -10 -43q11 -19 27 -32.5t29.5 -20t37 -9.5t36.5 -3t41 0.5t38 0.5q22 0 32 -2q3 -10 14 -13
t21.5 -3t17 -9.5t1.5 -31.5q4 -4 4 -10z" />
    <glyph glyph-name="two" unicode="2" horiz-adv-x="1161" 
d="M475 150h17v10h-17v-10zM748 47h10v16h-10v-16zM793 20h12v13h-12v-13zM236 877h14v14h-14v-14zM117 1004h16v16h-16v-16zM98 1077h15v15h-15v-15zM850 825h10v11h-10v-11zM834 901h14v17h-14v-17zM860 1079h14v13h-14v-13zM872 1171h11v13h-11v-13zM850 1268l24 24h-24
v-24zM899 1317h19l-13 20zM1100 344q0 -21 -6.5 -42.5t-19.5 -50.5t-17 -40l18 -18q0 2 -2 2q-5 0 -14.5 -15.5t-11.5 -23.5l-9 -6l9 -9q-58 -101 -128 -138.5t-188 -37.5q-41 0 -77.5 12.5t-57.5 27t-48.5 36t-41.5 29.5l-49 -9v19q4 0 10.5 -1t9.5 -1t4 1.5t2.5 6.5t1.5 6
q-5 4 -21 16t-23 16.5t-21.5 14t-24.5 14t-23.5 10t-27 7.5t-27.5 2q-33 0 -58.5 -8t-41.5 -19t-30.5 -32.5t-22.5 -38t-21 -46t-22 -46.5q-2 0 -6 -1t-6 -1q-16 0 -23 12t-9.5 32t-6.5 27q7 84 32 178t64 154q56 93 145 179t189 151q15 9 45.5 25.5t44.5 25.5
q78 50 147.5 149.5t69.5 182.5q0 88 -60.5 173.5t-144.5 102.5q-37 27 -82 27q-28 0 -79.5 -12.5t-61.5 -14.5l-98 -61l10 -6q-98 -63 -107 -168q9 -4 44.5 -17t61 -23.5t48 -30.5t22.5 -42q0 -65 -43 -129q-53 -29 -104 -29q-5 0 -15 1t-14 1q-5 13 -32 23t-46 24t-12 41
q-33 49 -33 125q0 29 6.5 71.5t16.5 64.5q42 101 63 131q20 29 45 51t60 38t59.5 24.5t69.5 21.5q62 19 70 20q5 1 11.5 1t14.5 -0.5t12 -0.5q274 0 463 -131q53 -36 90 -123l29 -24q-12 -8 -12 -21q0 -11 14.5 -34.5t11.5 -39.5q7 -10 7 -16q0 -12 -14.5 -27t-14.5 -22
t16 -23q-13 -6 -29.5 -63t-21.5 -66q-25 -39 -81 -90t-91 -59q-5 -6 -17.5 -22.5t-21 -26.5t-22 -20t-27.5 -11q-47 -29 -145.5 -71.5t-147.5 -71.5q-13 -8 -43.5 -26t-45.5 -28t-38 -26t-41 -33t-35 -37l19 -18q-36 -15 -42 -22q-8 -12 -13 -46l-5 -20q1 0 13.5 7t30 14
t46 13.5t60.5 7.5t74 -5q47 -8 103.5 -37t99 -58t96 -52t98.5 -23q50 0 104 41q25 19 40.5 39t24 48t11 46t6.5 59q8 8 21 8q5 0 15.5 -1t15.5 -1q10 -23 10 -47z" />
    <glyph glyph-name="three" unicode="3" horiz-adv-x="1118" 
d="M246 354h16v17h-16v-17zM258 471h12v12h-12v-12zM813 242l10 -52zM883 342h14v10h-14v-10zM926 348h14v17h-14v-17zM188 1126h13v17h-13v-17zM283 1042h12v13h-12v-13zM926 412h14v10h-14v-10zM899 489h19h-19zM911 535l15 -7l-8 7h-7zM883 553h14v14h-14v-14zM797 973
l10 -49zM864 1075h15v12h-15v-12zM907 1083h15v15h-15v-15zM907 1143h15v14h-15v-14zM881 1221h18h-18zM725 1395l49 -41l-37 49zM864 1278h15v12h-15v-12zM893 1264l14 -13l-8 13h-6zM850 1415h10v10h-10v-10zM1049 489l8 -96q-4 1 -9 -2t-10.5 -8.5l-7.5 -7.5v-10
q0 -10 19 -23q-8 -15 -23 -46t-23.5 -47.5t-24 -44t-27.5 -44t-30 -38.5t-36 -36.5t-41 -28.5t-49 -24q-147 -56 -295 -56q-74 0 -168.5 24t-136.5 65q-47 46 -90.5 147.5t-43.5 167.5q0 75 39.5 129.5t112.5 60.5q28 -8 34 -10t26 -9.5t24 -11t16.5 -12.5t15 -17.5t8 -22
t6.5 -30t1 -38.5q0 -31 -25.5 -53.5t-56.5 -33.5t-56.5 -27.5t-25.5 -37.5t33 -59q50 -64 119 -103.5t145 -39.5q124 0 219 92.5t95 214.5q0 28 -6 60.5t-13 54.5t-19.5 59t-17.5 55q-104 132 -227 127v10l-182 15q-9 12 -9 22q0 28 27 55q23 -2 68 -2q71 0 130 14t108 44
t76.5 84.5t27.5 128.5h10q8 21 8 51q0 128 -76 197t-204 69q-68 0 -95 -6q-49 -13 -119.5 -76.5t-70.5 -107.5q0 -21 -10 -25q7 -3 32.5 -10.5t44 -14.5t40.5 -18t34 -26t12 -33q0 -47 -30 -91t-74 -44q-21 0 -37.5 5.5t-39 18.5t-32.5 17q-24 15 -36 47t-13.5 55.5
t-1.5 64.5v3.5v3.5v4q0 30 8 51q92 276 390 276q41 0 75.5 -5t88.5 -18.5t71 -17.5q88 -20 127 -44.5t105 -96.5q-3 -6 -3 -12q0 -18 20.5 -40t20.5 -36q0 -8 -8 -20l19 -97q-25 -6 -25 -30q0 -8 2 -23.5t2 -23.5q0 -15 -4 -21q-15 -7 -21.5 -23t-7 -31.5t-9.5 -28
t-29 -13.5q-21 -37 -60.5 -63.5t-79.5 -26.5l-76 -43q21 -29 58.5 -46.5t74.5 -26t73.5 -21t63 -41.5t34.5 -78q24 -4 24 -23q0 -7 -4 -20.5t-4 -20.5q0 -23 27 -31z" />
    <glyph glyph-name="four" unicode="4" horiz-adv-x="1175" 
d="M86 512l8 -6zM139 506h6v14h-6v-14zM655 164h15v14h-15v-14zM817 29h17v14h-17v-14zM211 684l8 -6zM225 702l13 -6zM262 702h14v17h-14v-17zM793 270h10v31h-10v-31zM307 819h15v17h-15v-17zM756 424h14v14h-14v-14zM737 442h15v15h-15v-15zM350 838h17v16h-17v-16z
M332 864h16v17h-16v-17zM659 870v17q0 159 -10 274q-40 -42 -92 -137t-82 -133q-9 -11 -27 -32.5t-29 -35t-23.5 -34.5t-18.5 -41q-28 -26 -47.5 -55t-42 -77.5t-31.5 -64.5q79 -10 190 -10q30 0 93.5 1t95.5 1l24 14q-1 46 -1 98.5t0.5 116t0.5 98.5zM793 524h10v11h-10
v-11zM414 909h10v17h-10v-17zM711 623h16v6h-16v-6zM799 551h16v10h-16v-10zM438 973h17v16h-17v-16zM776 1167h19l-9 9zM743 1278h15v16h-15v-16zM862 1169h12v17h-12v-17zM809 1241h10v12h-10v-12zM754 1395h12v12h-12v-12zM1145 524h-6q-3 0 -10 -8.5t-9 -9.5
q17 -2 17 -27q0 -4 -1.5 -20.5t-0.5 -24.5q-23 -10 -60 -10q-18 0 -52 3t-50 3q-50 0 -74 -22q-6 -31 -6 -93q0 -32 14 -49q-12 -3 -18 -12q8 -19 9 -47.5t1 -48.5t13.5 -40.5t45.5 -31.5q14 -20 41 -20q11 0 33 5t33 5q8 0 14 -2.5t9.5 -7.5t6 -9.5t3 -13.5t0.5 -13.5
v-14.5v-13l-219 -6h10v-21h-10h4l-39 11q-40 12 -68 12q-33 0 -103.5 -7t-101.5 -7q-28 0 -66 8.5t-38 25.5q0 20 49 48q52 0 94 26q13 44 30 48q7 1 15 -3q9 37 9 72q0 20 -3.5 60.5t-3.5 60.5q0 32 9 59h6q2 0 5 3.5t3 4.5l-57 27h-566q-12 0 -19 16.5t-7 30.5q0 26 12 72
q14 20 73.5 98.5t84.5 126.5l12 -2q17 0 12 27h11q2 0 5 3.5t3 4.5q-4 15 -19 12q18 6 41 49t47 47l-6 13q21 29 67.5 92.5t73 100.5t64.5 91t68 101q7 11 37 64t52.5 82t53.5 50q20 -4 31 -4q13 0 40 3t42 3q54 0 71 -37q-2 -68 -2 -145.5t1 -172t1 -146.5q0 -201 -8 -365
q12 -11 15 -20.5t0 -27t-3 -26.5q0 -2 1 -7t1 -7q15 -5 34.5 -7.5t29.5 -3t36.5 0t30.5 0.5q68 0 101 -17z" />
    <glyph glyph-name="five" unicode="5" horiz-adv-x="1136" 
d="M201 88h10v14h-10v-14zM164 162h14v12h-14v-12zM182 297h15v10h-15v-10zM287 412h12v10h-12v-10zM846 88h14v14h-14v-14zM813 215h10v14h-10v-14zM182 1106h15v12h-15v-12zM950 340h15v12h-15v-12zM899 553h12v14h-12v-14zM506 979h18h-18zM651 961h15v16h-15v-16z
M276 1356h15v14h-15v-14zM958 694h15v15h-15v-15zM188 1487h17v10h-17v-10zM907 795h15v10h-15v-10zM707 1350h10v10h-10v-10zM1063 616l12 -135q-18 -41 -18 -133q-8 -12 -37 -58t-44 -67.5t-46 -60.5t-55 -60t-57.5 -40t-67.5 -25q-65 -53 -195 -53q-18 0 -51 1t-60 1
t-51 -2q-51 20 -75.5 30t-72 33.5t-77.5 49t-47 55.5q-2 4 -9 13.5t-11.5 16.5t-9.5 17.5t-5 17.5t2 16q-27 34 -27 76q0 17 15 84q12 5 19.5 14t10.5 18t12.5 18t26.5 14q10 2 30.5 9t36.5 11t30 4q39 0 67.5 -42.5t40.5 -90.5q-18 0 -18 -6q0 -4 5 -13t5 -14q0 -2 -10 -12
l6 -6h-6q-3 0 -8 -13.5t-10.5 -30t-8.5 -20.5q-8 -3 -21.5 -13t-21.5 -13l43 -55l-10 -9q83 -71 211 -71q50 0 94.5 19t75.5 50.5t56 68.5t40.5 76.5t24 71t10.5 54.5q5 32 6 79.5t-8.5 114t-30 125.5t-65.5 109t-109 69q-14 4 -51 4q-80 0 -156.5 -39.5t-116.5 -105.5
q-8 -13 -15 -42.5t-18.5 -49.5t-35.5 -27l-131 19q36 122 49.5 360t19.5 283l19 18q-8 19 -8 43q0 10 7 65.5t1 75.5h55q80 0 238.5 -14t238.5 -14q60 0 138 10q6 1 26 5.5t29 4.5q88 0 123 -12q1 -38 -31.5 -59t-84.5 -35t-69 -25l11 -6q-105 -22 -265 -22q-105 0 -235 10
q-29 -78 -41.5 -227.5t-20.5 -192.5q9 -6 21 -6q20 0 62 31.5t61 37.5q94 27 149 27q192 0 357 -135l-13 -8q35 -18 59 -48.5t50.5 -85.5t34.5 -69q2 -4 2 -12q0 -7 -6 -19t-6 -18q0 -10 16 -15z" />
    <glyph glyph-name="six" unicode="6" horiz-adv-x="1165" 
d="M766 43l10 12l-10 6v-18zM178 639h15v12h-15v-12zM186 735h15v17h-15v-17zM154 807h10v14h-10v-14zM297 702h16v11h-16v-11zM879 459q-17 35 -34.5 118.5t-43.5 124.5q-73 118 -215 115h-15q-30 -15 -71.5 -32.5t-65.5 -27.5t-52 -28.5t-42.5 -40.5t-24.5 -59t-10 -88
q0 -5 -0.5 -22t0 -26.5t1.5 -23.5t5 -24.5t11 -18.5l-9 -12q8 -4 11 -20t16 -21l-2 -23q-4 -101 137 -252q18 -18 49 -29.5t58 -11.5q48 0 133 23v18q1 4 4.5 6t6 2.5t8 0t7.5 -0.5h7q22 21 39 50.5t25.5 52.5t20.5 61.5t19 57.5q0 12 5 35t5 36q0 16 -10 33
q-2 13 11.5 17.5t15.5 9.5zM248 850h14v16h-14v-16zM229 1169h15v15h-15v-15zM1038 432h15v12q-7 0 -15 -12zM309 1206h10v15h-10v-15zM309 1251h10v15h-10v-15zM993 571h15h-15zM965 1257h14v17h-14v-17zM834 1391h14v16h-14v-16zM862 1391h12v16h-12v-16zM834 1427h18h-18
zM993 1276h13v16h-13v-16zM907 1376h11v13h-11v-13zM1104 438q0 -97 -42.5 -178.5t-121.5 -179.5q-29 -35 -65 -50.5t-66 -16.5t-69 -10t-70 -30q-40 9 -158 9q-63 0 -111 18q2 2 2 10q0 11 -19.5 15.5t-25.5 11.5q-35 15 -65 36t-54 49.5t-42.5 54.5t-35 65t-27 67
t-22.5 73.5t-18.5 72t-17 76t-15.5 71.5q9 7 9 25q0 6 7 19t7 20h-18h10q6 25 5 41t-5 44t-4 42q0 59 18 94l-24 33q11 3 17 9.5t7.5 17t1.5 19t-1 21t-1 17.5q0 22 8 32q26 91 69.5 171.5t104.5 147.5t145 106.5t179 39.5q113 0 188 -32t174 -111q23 -18 35 -38t23 -48.5
t22 -46.5q-2 -35 -4 -52.5t-10 -45.5t-20.5 -42t-36 -25t-56.5 -11q-19 0 -59 16q-25 11 -33 26t-10 39t-8 39q7 18 17 55t22.5 61.5t38.5 45.5q-26 1 -39.5 12.5t-17.5 25t-19.5 29t-44.5 23.5q-78 21 -107 21q-64 0 -115.5 -21.5t-85.5 -55t-59.5 -85.5t-39 -100t-22 -113
t-11 -111t-3.5 -106h-6q-6 -6 -6 -14q0 -19 31 -45q124 110 309 110q66 0 143 -17.5t127 -47.5q51 -30 97 -91.5t65 -121.5q3 -12 5 -25t4 -27.5t3 -23.5q17 -83 17 -109z" />
    <glyph glyph-name="seven" unicode="7" horiz-adv-x="1124" 
d="M406 -2h14v14h-14v-14zM303 201h10v14h-10v-14zM317 334h15v14h-15v-14zM492 428h14v14h-14v-14zM434 498h10v16h-10v-16zM440 588h17v14h-17v-14zM504 670h10v10h-10v-10zM162 1141h14v14h-14v-14zM614 748l9 10q-8 8 -13 8h-6zM647 748h12v28h-12v-28zM100 1356h15v10
h-15v-10zM260 1374h10v10h-10v-10zM666 1362h14v14h-14v-14zM920 1151h12v12h-12v-12zM858 1356h14v10h-14v-10zM1094 1421q0 -39 -11.5 -107t-13.5 -91q-26 -44 -37 -91t-29 -86.5t-69 -89.5q-19 -18 -60 -84.5t-77 -95.5q-37 -77 -86 -88l10 -12q-168 -201 -168 -412
q0 -6 -1.5 -10t-2.5 -5t-6.5 -5t-7.5 -6v-240q-13 -9 -36.5 -14t-40.5 -5.5t-53 0.5t-45 1q-44 0 -75 10q-4 54 -4 78q0 84 18.5 201.5t46.5 185.5q59 141 277 374l18 -45q11 42 44 89.5t68 84t74 85t58 90.5v18q5 -1 9 1t8.5 6.5l6.5 6.5q0 3 0.5 15t1 20t3.5 18.5
t8.5 11.5t15.5 -1q-10 12 -10 53q0 21 -8 29q-73 -64 -166 -64q-66 0 -191 43t-190 43q-108 0 -187 -92q15 -34 15 -57q0 -27 -24 -77t-23 -89q-15 -23 -35 -23q-9 0 -26.5 6t-24.5 7q-37 19 -37 59q0 15 9 46t9 46v6q-8 13 -8 33q0 23 16.5 67.5t16.5 63.5q0 11 -16.5 50
t-16.5 59q0 5 1 15.5t1 16.5q16 7 59 7q34 0 52 18q7 -5 11.5 -10.5t8 -14.5t5 -13.5t4.5 -17t3 -14.5h-6l-8 -8l2 -5q3 -5 4 -7t4 -5.5t6 -5t7 -1.5q9 0 30.5 16t34.5 16q31 47 85.5 71t115.5 24q49 0 105.5 -19.5t100 -43t100.5 -43t107 -19.5q37 0 58.5 11.5t29 28.5
t12 34t14.5 28.5t30 11.5q12 0 33 -1t32 -1q11 -53 11 -86z" />
    <glyph glyph-name="eight" unicode="8" horiz-adv-x="1179" 
d="M170 346h10v12l-12 -2zM252 543h16l-2 14h-14v-14zM868 383q-8 59 -16 94t-16.5 56.5t-26.5 37t-34 25t-51.5 30.5t-68.5 44q9 9 7 16v10q-7 0 -14.5 1.5t-17 5t-14.5 4.5l46 -25q-12 -4 -19 -4q-24 -1 -67 18.5t-54 22.5q-74 -15 -180 -98q-53 -109 -47 -218
q4 -62 12 -86q5 -14 14 -60.5t23.5 -74t42.5 -41.5q108 -53 215 -47q106 3 180 80q25 25 39.5 59t26.5 81t20 69zM465 774l14 2v15h-14v-17zM410 879l14 2l-2 14h-14zM178 1128h15v11h-15v-11zM930 385l12 2l-2 10h-10v-12zM408 924h16v18zM453 893h6v14h-8zM567 817l15 2
v15l-15 -3v-14zM979 414l8 2v18l-8 -2v-18zM520 885l15 2v14l-15 -2v-14zM217 1208h16l-2 15h-14v-15zM578 854l10 2v10h-13zM674 815l10 2v10h-12zM850 1182q-6 116 -72.5 177.5t-181.5 55.5q-122 -6 -195 -89.5t-65 -207.5q0 -5 7.5 -22.5t8.5 -20.5q15 -27 39 -52t45 -42
t58.5 -37.5t56 -29.5t63.5 -29t56 -25q75 29 133 94q51 141 47 228zM1018 1204l10 2v15h-10v-17zM985 1266l12 -6zM1118 395q-11 0 -14 -10q8 -8 12 -31q1 -32 -44.5 -104.5t-51.5 -99.5q-19 -24 -64.5 -56t-60.5 -47q-145 -58 -287 -67q-91 -3 -183 17.5t-155 68.5
q-83 63 -144 144t-65 165q-3 69 42 165t100 144q22 20 86 41t90 45q-18 16 -63 53t-71.5 62t-59.5 61.5t-50.5 75.5t-19.5 80q-1 26 11.5 81t8.5 83q12 7 17.5 11t13 11t10 13.5t3 15.5t-4.5 20q10 11 34.5 27.5t41.5 32.5t18 35q20 12 89 32.5t98 51.5l16 -19q44 11 102 14
q131 6 253 -37t200 -137q-2 -4 -2 -14q3 -36 41 -59q0 1 -4 3.5t-6 2.5h-8q3 -10 16 -43t14 -51q3 -45 -25 -137t-55 -130q-17 -22 -93.5 -53.5t-98.5 -50.5q19 -23 53 -43t66.5 -35t63.5 -32.5t52 -44.5t25 -64q49 -41 53 -129v-62z" />
    <glyph glyph-name="nine" unicode="9" horiz-adv-x="1179" 
d="M162 211h10v16l-10 -2v-14zM309 61h15v17h-15v-17zM186 229l11 2v11h-11v-13zM872 295h15v14h-15v-14zM915 313h15v15h-15v-15zM860 920q-7 223 -98 370q-4 5 -27.5 25t-29.5 24q-18 15 -37.5 34.5t-27.5 25.5t-26 11.5t-47 6.5l-14 2q-21 -12 -63 -25t-60 -22l8 -10
q-50 -32 -93.5 -126t-43.5 -157q0 -29 10 -47q-1 -1 -4.5 -5.5t-6 -7t-7 -4.5t-8.5 -1q1 -5 24.5 -62.5t16.5 -89.5q29 -86 86.5 -138.5t144.5 -51.5q17 0 47 10q50 17 71 25t55.5 25t59 40t48.5 55q1 15 11.5 46t10.5 47zM422 1436h12l-2 10h-10v-10zM1081 823l37 -10h-18
q-7 -42 -10 -131t-11 -135q-7 -38 -25.5 -108t-25.5 -105q-13 -19 -31.5 -58.5t-38 -68.5t-47.5 -45q-9 -42 -110 -117q-38 -27 -112 -44t-130 -17q-73 -2 -158 18t-135 59q-101 75 -114 150l-27 27q2 15 2.5 51.5t6.5 63t24 44.5q16 16 45 32t49 17q17 0 37 -10
q37 -18 50 -42t17.5 -65t12.5 -63q-3 0 -21.5 -23t-39 -49.5t-25.5 -31.5q18 -1 27.5 -10t11.5 -20t9.5 -24t20.5 -20q37 -18 91 -29.5t98 -11.5q72 1 131.5 45t94 111t53 140.5t16.5 139.5q0 21 11 67.5t11 70.5q0 38 -24 65q-108 -89 -193 -84q-39 -31 -102 -31
q-40 -1 -111 11t-92 14q-264 141 -266 332q0 14 -4.5 42.5t-4.5 43.5q-4 223 139.5 358.5t370.5 138.5q145 3 260 -79.5t187 -219.5q15 -27 29.5 -88.5t31.5 -89.5q3 -15 10.5 -46t11.5 -56t1 -49q4 -2 4 -13q1 -9 -11.5 -26.5t-13.5 -20.5z" />
    <glyph glyph-name="colon" unicode=":" horiz-adv-x="516" 
d="M160 872h12v13h-12v-13zM324 791h14v14h-14v-14zM393 94q-2 -7 -5 -13.5t-5.5 -11.5t-7 -11.5t-7.5 -10.5t-9 -10.5t-9 -9.5t-10 -9.5t-10 -9t-11 -9.5t-10 -9v-6q-16 -4 -51 -4q-54 0 -94.5 32t-40.5 82q0 86 41.5 124t128.5 38q3 -2 8.5 -8.5t11 -11.5t9.5 -5
q1 0 12 11q24 -14 31 -41t10.5 -58t17.5 -49zM391 842q0 -47 -22 -107q-2 0 -7.5 1t-7.5 1q-7 0 -11 -6.5t-5 -14.5t-8 -14.5t-21 -7.5q-8 4 -14 4q-8 0 -25.5 -9.5t-27.5 -10.5q-20 8 -53 32.5t-48 32.5q0 15 -7 41t-7 39q0 31 16.5 63.5t42.5 43.5q6 15 19.5 23t25 9t34 1
h28.5q16 -13 38 -24t32.5 -17t19 -25.5t8.5 -54.5z" />
    <glyph glyph-name="semicolon" unicode=";" horiz-adv-x="575" 
d="M170 -285h18h-18zM362 80h11v12h-11v-12zM453 -8q0 -17 -16.5 -39.5t-16.5 -36.5q-1 -5 0.5 -13.5t1.5 -11.5q0 -18 -27.5 -54.5t-32.5 -49.5q-13 -9 -39 -31.5t-41.5 -34t-42 -22t-53.5 -10.5q-12 0 -32 4l-7 22q151 32 199 236q-2 2 -2 8q0 5 4 15.5t4 15.5
q0 10 -22 16q-50 -27 -103 -24h-22l-66 57q0 44 -16 90q9 13 23.5 40t29 44t37.5 29q4 -2 12 -10.5t15 -8.5l6 35q132 -35 166 -104q4 -8 13.5 -25t15 -30.5t5.5 -26.5q0 -18 -12 -33q19 -19 19 -47zM434 825h-6q0 -50 -31.5 -102.5t-79.5 -52.5q-2 0 -23.5 2t-23.5 -2v4
q1 10 -6.5 11.5t-18.5 2.5t-16 8q-4 5 -29.5 27t-25.5 35q0 2 6 20q-1 9 -10.5 29.5t-9.5 32.5t14 30t14 33q0 14 -8 19q15 5 54 31.5t71 25.5h6q0 -6 4 -12t11.5 -12t9.5 -9l4 -2q8 0 12 12q68 -58 82 -131z" />
    <glyph glyph-name="less" unicode="&#x3c;" horiz-adv-x="1382" 
d="M1219 139q0 -14 -15 -41l-12 8v-2q0 -1 1 -4t1 -4v-8l4 -4l4 -16q-7 0 -14 -11q-2 -1 -5 -4t-5 -4q-6 -6 -15 -6q-28 0 -33 27q0 8 -2 12l-3 1q-3 1 -7 1q-8 0 -28 8q-23 9 -31 14q-38 19 -60 19q-8 13 -24 22l-14 7q-7 0 -15 4q-45 13 -59 39h-8q-15 0 -35 8
q-7 3 -29 16q-34 19 -57 15l-21 26q-4 -2 -10 -2h-16q-19 29 -70 47q-7 3 -21.5 8.5t-21.5 8.5q-21 6 -39 18q-4 2 -16 14q-3 6 -8 6l-13 -8l-55 45l-6 -6l-17 15l-6 -9l-71 54q-6 2 -50 24q-34 17 -53 17l-12 12q-1 1 -4 3t-4 3q-10 7 -35 0q4 9 4 16q-1 1 -3 3.5t-3 3.5
q-16 8 -28.5 32.5t-14.5 44.5q6 12 6 27q1 4 2 14t2 15q4 42 29 57q27 2 48.5 11.5t52 32t40.5 28.5q23 16 49 22l17 17l10 -7q18 11 29 13q5 2 16 5t16 5q39 12 54 37q77 11 159 74q26 2 58 20q29 16 53 37q79 54 121 61q10 11 18 13q11 7 19 10q29 19 41 33l6 -9
q11 13 26.5 24t26.5 16t33 14t30 12q28 14 43 27l17 -15q6 6 24 4q1 -16 5 -47.5t4 -48.5q0 -97 -82 -104q-8 4 -11 4q-10 0 -18 -17q-2 -2 -5 -7t-5 -7q-8 -8 -19 -8q-6 0 -14 4q-21 -9 -44 -20.5t-50.5 -26.5t-42.5 -23q-85 -45 -148 -65q-37 -11 -84 -37q-3 -2 -88 -51
q-106 -63 -164 -70q-5 -13 -16 -20q-10 -7 -25 -11q-13 -5 -18.5 -9.5t-5.5 -14.5q5 -2 12.5 -9t9.5 -8q13 -10 35 -10l-2 -14q0 -12 15 -15q4 -2 16 -6q6 0 14 -4q27 -5 109 -57q16 -10 39.5 -24.5t40.5 -24.5t28 -15q14 9 15 9h10q16 -33 46 -49.5t77 -26.5l-2 -8l4 -7h26
q9 -16 17 -16q2 0 6 -1t6 -1q8 0 17 -6q4 -2 67 -37q41 -25 66 -25q14 -6 34 -18q5 -3 15.5 -10t15.5 -10q38 -23 68 -25q18 -27 22 -35q13 -22 13 -39z" />
    <glyph glyph-name="equal" unicode="=" horiz-adv-x="1443" 
d="M1270 426l8 -115q-18 0 -18 -12q-1 -3 -3.5 -8t-3.5 -8q-9 -9 -18 -9q-6 0 -16 5q-29 12 -50 16h-53q-31 0 -45 6q-17 -10 -35 -10q-6 0 -22 4q-12 4 -21 4q-13 0 -35 -25q-24 21 -45 21q-18 0 -45 -12l-10 12q-10 -14 -24 -14q-3 0 -10.5 1t-10.5 1q-12 4 -14 4
q-10 0 -23 -21q-12 12 -18 15q-3 1 -8 2t-7 2l-26 -23v19q-8 3 -25 5t-31 2t-34.5 -0.5t-24.5 -0.5q-28 0 -82 -6.5t-82 -6.5q-44 0 -90 19l-24 -6q-26 -8 -73 -4t-75 20l-12 57q6 0 10 1l4 1l2 3q-8 16 -8 22q0 7 14 25q2 3 8.5 11t8.5 11q18 0 53 3t59.5 1.5t49.5 -10.5
l41 41l-9 -31v-2q2 0 4 -2q20 10 41 10q25 0 52 -10h18q16 8 27 8q13 0 20 -10l12 12l78 2q3 4 29 10.5t33 6.5q6 0 18 -12q0 -3 4 -7q1 2 4.5 7.5t5.5 9.5q15 0 39 -1t35 -1q37 0 53 10q28 -11 60 -14q20 -2 65 -2q92 0 138 -17q23 10 59 10q47 0 78 -20zM1280 836
q-10 -18 -10 -27q-1 -4 -3 -11.5t-3 -11.5q-8 -27 -35 -34q-33 8 -74 8q-25 0 -74 -4t-73 -4q-41 0 -72 8l-35 -35l8 31v2q-4 4 -6 8h15q-4 -9 -7 -10q-4 -8 -14 -8q-8 0 -16 8l-4 4q-5 -3 -13 -23q-25 25 -37 25q-8 0 -28 -8q-23 -9 -35 -9q-14 0 -45 9q-28 8 -86 8
q-21 0 -62 -17l2 19v2q-36 -8 -133 -8h-145q-83 0 -131 30q10 20 10 41v37q0 42 35 64q8 -8 10 -8l12 6q12 6 23 6t18 -10q11 8 27 8q13 0 33 -8q24 -6 28 -6h95q60 4 94 10q21 -9 92 -13h141q20 0 60 6.5t61 6.5q37 0 60 -15l18 19l16 -17l27 25q6 -20 12 -20h4q1 1 4.5 3
t4.5 3q16 4 18 4l10 8l17 -16l12 12q6 -1 39 -2.5t53 -3.5q32 -3 55 -13.5t23 -23.5q0 -9 -8 -25q-6 -6 -6 -16q0 -7 18 -14z" />
    <glyph glyph-name="greater" unicode="&#x3e;" horiz-adv-x="1386" 
d="M1223 602q0 -33 -37 -70l-6 5q-8 0 -15 -11l-8 -8q-6 -6 -12 -6q-8 0 -15 10q-35 -19 -53 -33q-46 -32 -59 -40q-70 -52 -133 -66q-7 -11 -18.5 -18.5t-31 -14.5t-24.5 -10q-15 -12 -27 -27l-10 15q-1 0 -3 -2t-4 -5t-3 -4q-10 -14 -25 -14q-6 0 -12 6q-58 -19 -139 -71
q-103 -63 -146 -88l-8 6q-8 -11 -20 -17q-2 -1 -5.5 -3t-5.5 -3q-5 -2 -16 -18q-9 14 -14 12h-4q-20 -16 -37 -25q-12 -5 -43 -14q-55 -15 -74 -41q-6 1 -27 8q-6 4 -24 13v24q0 47 9.5 80t41.5 57h10q32 0 76 21q10 4 35.5 17t38.5 18q34 43 100 73q9 4 27.5 11.5
t27.5 11.5q5 3 16 9t21 12.5t19 13.5q8 -4 20 -4q15 0 23 8q2 2 6 5t6 5l12 12q35 31 68 21q15 9 39 18q42 18 51 21q3 1 10.5 5t10.5 5.5t9.5 4.5t9 5.5t6.5 6t5.5 6.5t2.5 7t1 9h13l8 -4q4 8 18 22l13 13q22 2 49 16q2 1 17.5 8t23.5 12q-13 43 -80 74q-10 4 -32 12.5
t-32 12.5q-35 14 -55 24q-12 2 -29 19q-4 4 -4 6q-8 8 -10 8q-1 0 -2 -1l-4 -4t-6 -5q-6 8 -13 15t-8 9q-2 2 -5 5.5t-5 5.5q-7 5 -35 8q-39 5 -90 35q-69 46 -78 51q-29 6 -176.5 86.5t-173.5 103.5l12 144q69 -43 170 -80q27 -27 84 -53q67 -32 86 -45l6 6q32 -22 45 -27
q9 -4 40 -15.5t50 -21t35 -22.5l7 6q24 -15 63 -37q26 -13 59 -35h19q7 -11 20 -20q5 -2 14.5 -6.5t14.5 -6.5q38 -13 53 -34q55 -12 127 -54q24 -16 60 -34q30 -20 65 -33q0 -15 4 -31q1 -2 10 -33.5t9 -48.5z" />
    <glyph glyph-name="question" unicode="?" horiz-adv-x="1044" 
d="M594 1380l12 -2l-2 -10h-10v12zM389 31l2 14l-16 2v-14zM406 41v10l-11 2l-2 -12h13zM467 -18l20 10l-30 10l-2 -12zM358 125l2 16h-14l-2 -14zM504 41v16h-15l-2 -14zM414 133v10l-11 2l-2 -12h13zM422 449l-10 14h-2l-2 -14h14zM487 672l2 12h-12v-10zM551 666v12h-14
v-10zM223 1032v17h-14l-2 -15zM555 702l2 13h-12v-10zM346 948l2 17h-16v-15zM291 1008v12h-15l-2 -10zM305 1018l2 10l-14 2l-2 -10zM188 1159l2 12l-16 3v-13zM268 1360l2 16l-16 2v-16zM287 1384l2 11l-13 2zM813 881l2 10l-16 2v-12h14zM774 965l2 14l-16 2l-23 -49z
M745 993l3 17h-13v-15zM850 918v12h-14l-2 -10zM741 1055l25 49h-12v-10zM883 1042l2 15l-17 2l-2 -15zM604 1364l2 14l-16 2v-16h14zM555 1438l2 16l-14 2l-2 -16zM821 1188l4 53h-14l-2 -10q0 -7 12 -43zM723 1350l2 12h-16v-10zM815 1264l2 16h-10l-2 -14zM862 1272l2 12
h-12v-10zM541 66q0 -43 -54 -111q-18 -4 -57 -4l6 -8q-15 -15 -35 -15q-12 0 -24 4.5t-28.5 14t-22.5 12.5q-1 11 -14 25.5t-15 17.5l8 16q-12 10 -12 39q0 72 22 107q26 6 45 32t31 35q9 -13 35.5 -22t50 -16.5t43.5 -39.5t21 -87zM920 1198l22 -18q-14 -16 -14 -66
q0 -34 -13 -47q4 -9 21 -18v-9q-12 -5 -13.5 -37t-9.5 -40q1 -15 -20 -32t-21 -30q0 -5 5 -10q-12 -11 -39 -40t-49.5 -48.5t-45.5 -28.5l7 -10q-31 -2 -58.5 -19.5t-58 -47.5t-47.5 -42q-8 -18 -26 -39t-34 -36.5t-29 -38t-14 -45.5q-15 -14 -25.5 -51.5t-23.5 -51.5
l-16 -2q-25 -1 -38 21.5t-13 50.5q0 32 20.5 91.5t42.5 68.5v12q0 32 36 74t42 63q114 120 184 266q25 14 25 54q0 14 -6.5 44t-5.5 46q-46 160 -248 200l-11 13q-7 -9 -34 -10.5t-31 -24.5q-4 0 -12.5 1t-12.5 1q-28 0 -46.5 -19.5t-35.5 -47t-34 -38.5q-37 -100 -37 -127
q0 -2 1 -6t1 -6h12l-2 -14l21 -8l24 20l6 -6q13 7 29 11t35 6.5t30 5.5q4 -19 28 -59.5t24 -65.5q0 -30 -21 -58l-4 -47q-19 0 -47 -26.5t-47 -26.5q-17 0 -31 14q-11 -8 -26 -8q-18 0 -34.5 14.5t-35 39.5t-25.5 32q0 1 2 7t2 7q0 11 -19 24.5t-20 29.5l-4 69h11q0 1 1 4
t1 4q0 10 -6.5 28.5t-6.5 27.5q0 18 25 26l-2 48q22 8 34 39.5t24.5 64.5t35.5 43q4 23 20 40.5t40.5 35t35.5 30.5l15 -10q6 1 11 11.5t11 11.5l15 -10l16 24q1 -6 6 -8.5t14 -3t11 -0.5q28 14 61 14q10 0 31 -1t31 -1q15 -18 38 -18q8 0 25 3t25 3q17 0 48 -23t62 -22
q0 -14 15 -25q47 -11 81.5 -46t67.5 -89q0 -2 -1 -6t-1 -6q0 -11 15.5 -32t7.5 -38z" />
    <glyph glyph-name="at" unicode="@" horiz-adv-x="1667" 
d="M438 -152h17v15h-17v-15zM424 -121h10v12h-10v-12zM524 -180l54 -8l-46 28h-28zM643 195h12v16h-12v-16zM690 168h10v12h-10v-12zM246 705l10 67h-16v-16q0 -3 6 -51zM266 934h17v12h-17v-12zM1102 145h16v15h-16v-15zM279 1026h10v12h-10v-12zM1186 145h12v15h-12v-15z
M1233 119h10v10h-10v-10zM332 1034h14v15h-14v-15zM313 1106h15v16h-15v-16zM1128 322h17v12h-17v-12zM733 737l29 43v15h-14zM731 811h12v10h-12v-10zM668 883h10v12h-10v-12zM1141 414h10v12h-10v-12zM1194 422h16v16h-16v-16zM760 864h10v15h-10v-15zM1176 496h14v14h-14
v-14zM1186 561l10 62l-29 -62h19zM844 1511h10v11h-10v-11zM905 1487l41 6v14h-10zM1520 -104q-20 -14 -58.5 -45.5t-63 -50t-61.5 -39t-71 -29.5q-11 -18 -28.5 -25t-44.5 -10t-36 -6q-14 -23 -41 -23q-7 0 -20 3t-19 3q-4 0 -8 -4q-74 -22 -92 -22q-14 0 -41 10t-43 10
q-2 0 -2 -8q0 -3 -3.5 -5t-9.5 -5l-6 -2l-16 10h-2v2l2 6q0 8 -6 10l-37 -6l2 56q1 1 7.5 13.5t13.5 12.5v-8q0 -16 28 -16l2 2q0 4 -8 10t-8 8h2q11 0 35 -5t37 -5q16 0 47 2t47 2v-4q14 9 41.5 17.5t61 16.5t42.5 11l-10 -23h2q30 21 47 23q15 19 35.5 26t37 6.5t38 14
t39.5 47.5l30 -12q13 12 37.5 11.5t42.5 6.5q44 24 58 13zM995 266q0 -59 -86 -116q-21 41 -49 51q6 26 19 26q3 0 6.5 -4t3.5 -8q4 2 35.5 36.5t64.5 49.5q6 -15 6 -35zM1008 1532q0 -32 -17.5 -49t-40 -19.5t-49 -10t-39.5 -21.5q-44 -4 -74 -13t-68.5 -27t-66.5 -28
q-5 -1 -5.5 -13t1.5 -16q-75 -25 -128.5 -80.5t-76.5 -130.5q-5 -6 -28.5 -33t-33.5 -40.5t-22.5 -37t-15.5 -44.5q-2 -18 -20.5 -61.5t-16.5 -69.5l-20 -21q-3 -16 -5 -59.5t-10 -67.5l-18 -20q6 -21 6 -43q0 -14 -4 -44t-4 -46q0 -39 27 -78q-1 -1 -6 -5.5t-9 -8.5
t-8 -8.5t-4 -6.5q0 -23 8 -55q2 -9 10.5 -50t13 -59.5t14.5 -51t22 -55.5t28 -42l-12 -13q90 -164 186 -235q12 -8 37 -20t35 -19q34 -29 45 -37q23 -5 66.5 -29.5t68.5 -29.5l-4 -64h-20q-138 -5 -281 123l-14 -14q-18 37 -53.5 61t-43.5 47q-66 45 -108.5 118t-56.5 157
q-20 25 -32.5 62t-16 62t-7.5 76t-6 66q-24 157 -18 236l-31 32q7 2 23.5 7.5t23.5 7.5q-6 15 -6 34q0 23 14 37q0 9 5 25t5 24q0 16 -10 29l8 6l-4 2q14 23 40.5 72.5t41.5 73.5v33q29 13 34 25t5 48l17 -2q4 38 34 43q60 110 117 170l4 -6q24 31 55.5 54t84.5 51.5
t67 37.5l4 -4q4 2 22.5 9.5t26.5 13.5l11 -6q91 64 149 51q52 27 86 27q29 0 66 -11q2 -6 2 -16zM963 1053l38 -6q-11 -33 -2 -64q-6 2 -20 2q-41 0 -64 -47l-14 14q-4 -4 -14 -13.5t-13 -12.5t-9.5 -11t-8.5 -13t-5.5 -13.5t-5 -17.5t-1.5 -21q-25 -8 -35 -21v-4
q0 -13 -13 -31t-12 -32q-10 -6 -12 -11t-2 -15v-5q0 -34 -20 -65q-25 -41 -40.5 -115t-18.5 -117.5t-6 -124.5q-1 -14 -1 -20q6 -8 18 -26.5t20.5 -30t22 -23.5t27.5 -16q6 -2 20 -4.5t21 -4.5l23 13l16 -13l-2 -2q6 -2 14 -6q3 -2 2 -6t-3 -8t-1 -4q9 0 17 8q11 -23 12 -25
q-8 -23 -19.5 -30t-22 -4t-25.5 -5.5t-27 -33.5q-32 24 -47 41q-6 -3 -15 -3q-12 0 -34 8.5t-33 8.5q-13 0 -58 -10q9 27 15 39l-4 2q-25 0 -40 25t-26 69t-14 51q-27 61 -27 162q0 71 23 151l-7 29q3 8 15 35t18 47t6 39q2 4 5 9t4 7t2.5 6t2 6t1.5 5.5t1.5 7t0.5 8v10.5
q12 4 21 11t12 11.5t10 18.5t10 19l-10 14q5 3 52.5 41.5t74.5 50.5v39l39 -16v-2q15 18 28.5 26t21.5 9t38 4q29 2 80 53v-47zM313 1192l11 -21h-19zM1389 299l-43 -133q-46 26 -46 49q0 8 20.5 27t44.5 38zM1370 1059q-1 -2 -12 -28.5t-13.5 -34t-10.5 -30.5t-10.5 -35.5
t-5 -31t-1.5 -33.5q-28 -61 -46 -128.5t-37.5 -180.5t-23.5 -135q-30 -128 -30 -172q0 -29 14 -64l12 -2q10 -1 37.5 11t40.5 12q5 0 26 -19.5t21 -21.5q0 -26 -55 -53t-86 -27q-36 0 -62 29q-16 2 -28.5 14.5t-24 32t-20.5 28.5q2 6 2 21q0 23 -6.5 46.5t-18.5 52.5t-16 44
q-12 38 -17 140l27 -27v14q-1 19 17.5 49.5t21.5 38.5q1 5 -0.5 25t-1.5 22q0 32 14 54q-4 28 -4 47q0 22 3 44.5t9.5 55t8.5 43.5l22 -10l14 12l3 -2l12 21q0 44 -29 100q7 -1 21.5 -7.5t23.5 -6.5l4 2l2 4q-2 4 -2 12q0 26 23 41l-4 35q8 -1 56 -2.5t73 -7.5q3 3 26 5.5
t31 2.5zM1028 1073l82 -137q-45 5 -68.5 20.5t-23.5 55.5q0 28 10 61zM1174 1501q0 -12 -5.5 -21.5t-19 -22t-16.5 -15.5q-19 14 -27 14q-14 0 -38 -8t-36 -8q-2 0 -2 4q0 1 1 2t1 2q21 35 21 57q0 33 -19 58l39 -17l23 19q10 -25 12 -29q16 4 25 4q18 0 38 -20q3 -9 3 -19z
M1585 1098q-22 55 -48.5 92.5t-47.5 56.5t-80 66q9 3 19 5t22.5 4t19.5 3q21 -4 38.5 -21.5t28 -37.5t20.5 -52.5t14.5 -51.5t10.5 -49q1 -3 1 -5t1 -5t1 -5zM1450 1352l-61 -17q-13 20 -27 33.5t-24.5 21t-28 12t-27 6t-34.5 3t-38 2.5l2 8q-26 7 -26 15q0 4 2.5 9.5
t6.5 12t5 8.5q11 43 43 43q17 0 32 -9t15 -25q0 -20 22 -31.5t44 -11.5q14 0 31 -13.5t39.5 -39.5t23.5 -27z" />
    <glyph glyph-name="A" unicode="A" horiz-adv-x="1146" 
d="M195 66v10l-11 2l-2 -12h13zM207 92v10l-14 2v-12h14zM326 45v12h-17v-12h17zM287 461v10l-17 2v-12h17zM788 29v12h-14v-12h14zM870 14v17h-12v-17h12zM307 653l2 11l-12 2v-13h10zM938 74v16h-12v-16h12zM852 301l2 12h-12v-12h10zM698 535h19l-6 12zM911 346l2 10
l-16 2v-12h14zM848 410l2 16h-16v-16h14zM606 592v8q1 31 -5.5 56.5t-21 57t-20.5 50.5q4 16 4 22q0 32 -26 99l-19 20q0 2 1 7.5t1 7.5q0 24 -20.5 66t-20.5 63q0 12 6 24h-16l-2 -55l-10 2q-6 -51 -38 -148.5t-38 -148.5q-4 -5 -6.5 -11.5t-3 -16t-1 -16t0 -17t0.5 -13.5
q0 -58 -31 -71q27 6 55 6h150q37 0 61 8zM780 571l2 15h-16v-15h14zM655 741v17h-14l-2 -17h16zM438 1159v12h-12v-12h12zM645 1001v15h-10l-2 -15h12zM506 1231v14h-14v-14h14zM713 1057v12h-15l-2 -12h17zM571 1544v12h-12v-10zM1126 25q0 -14 -28 -48q-24 3 -49 3h-287
q-56 0 -103 8q-6 8 -6 26q0 6 1.5 25.5t0.5 28.5q58 7 76 51l-8 8l20 18q-9 9 -13 22.5t-4.5 23.5t0.5 28t1 23q0 61 -37 80l2 12q0 24 -29 79.5t-32 63.5q-200 15 -236 15q-29 0 -69 -7q-78 -180 -78 -301q0 -71 28 -114l54 -9l-2 -73l-308 -6v6q-2 27 11.5 48t38.5 25
q7 1 29 15.5t38 5.5q6 3 6 10q0 13 -16 29q8 0 14.5 3.5t14 12t10.5 10.5q-8 5 -8 19q0 5 1 14.5t1 14.5h8q1 38 21 104.5t24 97.5q6 1 16.5 -0.5t12.5 -1.5q13 0 18 8q-7 13 -35 13h-10q46 117 72 303q32 0 32 53q-24 6 -24 14t12 26t12 28q0 6 -8 18q8 5 12.5 9.5
t6.5 11.5t2.5 10t0 14t-0.5 15q0 14 2 20h6l12 10q-6 18 -6 37q0 38 20 105.5t23 97.5q7 76 37.5 182t38.5 148q14 71 78 71q19 0 39 -10l14 -2q6 -16 17.5 -45t17.5 -44.5t13.5 -40.5t12.5 -50q3 -15 7.5 -44.5t7.5 -43.5q7 -34 36 -99t37 -90q-6 -9 -6 -20q0 -13 10.5 -42
t12.5 -42q32 -241 100 -348q7 -63 24 -141.5t27.5 -119.5t41.5 -147t36 -123q8 -28 31 -46.5t45.5 -24.5t40.5 -16t18 -25z" />
    <glyph glyph-name="B" unicode="B" horiz-adv-x="1206" 
d="M231 170v14l-14 2l-2 -16h16zM389 74v16h-14l-2 -14zM328 143l2 15l-13 2v-17h11zM383 113l2 14l-16 2v-16h14zM344 371l2 16h-12v-14zM817 55l33 33q-48 -23 -82 -45zM387 590v12h-10l-2 -10zM866 381l8 10q-7 18 -10.5 55.5t-9.5 53.5q4 24 4 35q0 17 -3 33.5
t-7.5 29.5t-14.5 27.5t-17 24t-22.5 23t-23 20t-26.5 19.5t-26 17t-28 17t-26 16q-18 -14 -62 -14q-16 0 -46 3t-46 3q-42 0 -59 -15q14 -14 14 -41q-1 -14 -10 -45t-9 -47q0 -18 9 -33l-9 2q5 -6 7 -15.5t2 -14t-2 -17.5l-2 -14q4 -9 5.5 -20.5t1.5 -19t-0.5 -21
t-0.5 -19.5q-4 -36 14 -59q-8 -10 -31 -10q10 -3 14 -11.5t3 -17t3 -14.5t15 -5q-2 -11 -12.5 -35.5t-11.5 -39.5q0 -24 16 -43l-8 -6q-6 -9 -6 -19q0 -14 11.5 -19t24.5 -3q-5 -10 -26.5 -27.5t-22.5 -34.5l19 -2q9 -6 6 -20q13 -1 40.5 -3.5t41.5 -3.5q158 -1 233 79.5
t86 240.5zM895 252v12h-10l-2 -10zM395 836l2 14l-16 2v-16h14zM307 973l2 2l-10 4zM401 899v16h-14l-2 -14zM322 1034l22 -16l-6 29h-14zM303 1083v11l-12 2v-13h12zM358 1053v10l-14 2l-2 -12h16zM305 1116v17h-10l-2 -15zM1044 414v16h-10l-12 -27zM334 1153l2 14l-12 2
v-16h10zM981 510l2 2zM899 635l16 -21v35l-16 2v-16zM889 655v15l-15 2l-2 -17h17zM999 594l19 -2l-10 8zM403 1212v13h-10l-2 -11zM1055 578l2 16h-13v-14zM408 1286l2 14l-13 3v-17h11zM895 811l27 -2l-25 10zM823 1081q-4 32 -6.5 88.5t-4.5 91.5t-14 80t-33 70.5
t-63.5 45t-103.5 20.5q-46 0 -90 -15q-9 9 -6 21l-13 -19l-6 9l-26 -91q10 -10 10 -24q0 -7 -4 -20.5t-4 -20.5q0 -15 8 -44t8 -44q0 -3 -3 -35t-3 -49q0 -46 12 -76l-20 -16q1 -4 9.5 -15.5t8.5 -19.5q0 -7 -10 -12l-10 2l8 -131l182 -21v8q0 14 10 17q2 -5 8.5 -7.5
t16.5 -3t12 -0.5q40 17 62 49t38.5 87t26.5 75zM690 1495l2 16h-16v-14zM836 1366v12h-11l-2 -10zM1143 389q0 -33 -8.5 -76t-26.5 -55l-86 -43q1 -6 38 1q30 5 30 -3q-45 -89 -115 -142.5t-148.5 -74.5t-185.5 -25l2 11q-55 1 -161.5 1t-159.5 1q-147 3 -259 -7l-22 48
l20 10v12h13l-2 -6l16 8l-16 21q15 -11 30 -11q42 0 74 50q13 4 18.5 22t9.5 36t13 21q-2 11 -27 11q9 77 13 198q1 83 -4 248t-4 248q1 26 6.5 87.5t5.5 94.5q0 24 -17 35l11 -2q6 56 6 109q3 147 -19 249q-21 9 -64.5 13.5t-64.5 13.5v4q0 10 -7 28.5t-7 28.5q0 18 21 31
q12 -6 24 -6q11 0 32.5 4t33.5 4q2 0 7 -1t7 -1l-2 -8q27 -6 53 -6q38 -3 74 16l-8 -10q7 -3 15.5 -3t19 1.5t16.5 1.5q24 0 74 6.5t77 5.5h21q13 -7 28 -9.5t37 -2.5h29q25 0 49 -6l9 18q32 -32 83 -35q23 0 54 7l-8 8q8 -9 34.5 -19t60 -27.5t56.5 -43.5l12 6h4
q20 -20 54 -72t59 -74h-12q0 -21 16 -56.5t15 -63.5l32 -11l-35 -8q3 -18 3 -39q-1 -74 -42.5 -155.5t-95.5 -145.5q1 -5 -15 -9.5t-32 -7t-16 -3.5q0 -7 15 -12.5t28 -11t10 -11.5q4 -2 -0.5 -9.5t0.5 -7.5l133 -139l6 -28q66 -76 62 -232z" />
    <glyph glyph-name="C" unicode="C" horiz-adv-x="1122" 
d="M479 6v10h-14v-10h14zM197 418v14h-11l-2 -14h13zM182 522l2 10l-16 3v-13h14zM176 762v12h-12v-12h12zM215 768v16h-16v-14zM199 928v16h-17v-16h17zM182 975l21 -8l-8 8h-13zM250 1206v15h-17v-15h17zM922 1399l2 12h-17v-12h15zM1071 477q-1 -17 -16.5 -49t-16.5 -49
q0 -9 9 -23q-22 -16 -25 -46.5t-9 -61.5t-34 -49q-14 -42 -62.5 -102.5t-87.5 -90.5q-32 -21 -94.5 -34t-105.5 -11q-190 3 -329.5 129.5t-164.5 312.5q-15 2 -18.5 6.5t-0.5 16.5t3 16q0 9 -8 21q-53 249 -50 448t73 366.5t218 278.5q82 62 248 62q124 -5 152 -10
q23 -5 72 -47.5t75 -42.5q24 0 37 20q-10 3 -10 12t11.5 29.5t12.5 32.5l6 8l21 -29l18 21q29 -15 39 -30t15 -46q-7 -1 -11 -2.5t-6 -6t-2 -7.5v-11q0 -13 -10 -18l8 -12q0 -12 -20 -27q17 -22 25 -70.5t20 -68.5q-19 0 -19 -8q0 -4 6.5 -13t6.5 -14q0 -6 -11 -12l15 -21
q-15 -5 -15 -16q0 -6 7 -18t8 -19l12 -8q-3 -4 -11.5 -16t-12 -16t-12 -12.5t-15 -11.5t-16.5 -5.5t-21 -2.5q-21 24 -31.5 91t-38.5 96q0 15 -4.5 29t-16 30t-17.5 23.5t-24 26t-20 20.5q0 15 -30.5 31t-69 31t-49.5 24q-6 1 -17 2t-16 2q-41 0 -67.5 -13t-59 -43
t-51.5 -43q-15 -11 -27 -27t-18.5 -27t-12.5 -36t-7.5 -32.5t-6 -39.5t-4.5 -34q-7 -5 -11.5 -11.5t-6.5 -17.5t-2.5 -16t0 -19.5t0.5 -15.5q-4 -34 -11 -47q-28 -66 -32 -170q0 -54 8 -168q10 -176 33 -291.5t84 -253.5q35 -57 78.5 -92.5t105.5 -58.5q108 23 174.5 69
t107.5 137q8 19 15 41t11 38.5t8.5 43.5t6 39t5 44.5t4.5 41.5q21 8 49 8q57 0 57 -55z" />
    <glyph glyph-name="D" unicode="D" horiz-adv-x="1247" 
d="M272 68v14h-10v-14h10zM332 203l2 16h-17v-14zM334 231v15h-17v-15h17zM383 248h39h-39zM459 201v16h-10v-16h10zM416 322v14h-13v-14h13zM326 479v17h-11v-17h11zM270 758v14h-16v-14h16zM350 756v14l-12 2v-16h12zM395 727v12h-10v-10zM891 258v16h-14v-14zM297 934v12
h-14v-12h14zM307 1026v12h-12v-12h12zM365 1032v17h-15l-2 -17h17zM346 1106v16h-14v-16h14zM987 469v14h-14v-14h14zM915 657l5 252q3 122 -35 226v22q2 30 -6.5 60.5t-18.5 48.5t-32 51.5t-31 48.5q-5 4 -18.5 9.5t-21 12t-7.5 17.5q-34 41 -87.5 63.5t-111.5 24.5
q-47 0 -78 -10v-58q6 -15 6 -34q0 -9 -4 -27t-4 -27q0 -21 18 -39q-10 -38 -10 -71q-1 -21 5 -64.5t5 -66.5q0 -28 -10 -66q8 -24 8 -57t-10 -53q24 -129 21 -263q-2 -80 -13.5 -238.5t-13.5 -238.5q0 -69 2 -106h57v10q0 2 2 3.5t5 0.5h8q12 -8 12 -14q3 4 21 1t22 -3
q8 0 16 8h5q17 -1 58.5 22t49.5 21q-4 8 -4 14q0 8 9 14t20.5 8.5t23.5 10t17 18.5q0 25 8.5 41.5t19.5 23t23 18t16 26.5q2 9 18.5 59.5t18.5 67.5q12 119 16 233zM1018 479h20h-20zM322 1171h22l-14 19zM1034 514v14h-14l-2 -14h16zM989 561v14h-14l-2 -14h16zM1042 541
v14h-12v-14h12zM1036 651v17h-14v-17h14zM375 1321v10h-15v-10h15zM303 1395v12h-14v-12h14zM285 1430v14l-15 2v-16h15zM240 1507v11h-15v-11h15zM332 1458v12h-17v-10zM295 1522v14h-12v-14h12zM1042 1001v17h-14v-17h14zM1024 1032v12h-12v-12h12zM961 1106v12h-13v-10z
M938 1171h12h-12zM1053 1085v17h-13v-17h13zM1186 795q0 -29 -25 -54q0 -9 1 -26.5t1 -26.5q-2 -98 -34.5 -221t-84.5 -184l9 -9l-21 -18l12 -8q-14 -3 -23.5 -14t-13 -23t-11 -23t-19.5 -14q-14 -12 -34 -35t-35 -40.5t-37.5 -32.5t-45.5 -17q-51 -30 -115 -44.5
t-122 -15.5t-124.5 -1t-123.5 -2l-14 14q-41 -6 -121 -6q-98 4 -150 4l2 18q10 1 13 7.5t2.5 14t5 17t18.5 15.5q8 4 15.5 6t11 2.5t14 0t15.5 -0.5q29 0 45 16q-4 8 -4 10q1 7 11.5 17t10.5 16q0 5 -10 15h6q8 0 12 8l-6 12l6 -12q21 13 21 26q0 6 -3 19t-3 20l-21 19
q19 0 19 6q0 5 -5 13t-4 13q0 3 4 8t7 5q-2 36 -2 51.5t2.5 52t3.5 51.5q0 90 -29 138q1 0 4.5 -1t5.5 -1q10 0 14 14.5t7 17.5q-19 31 -13 140q0 7 -3.5 25t-2.5 26l11 106q-10 15 -15 54.5t-10 52.5q9 20 10 73t10 76q-16 21 -14 35q0 4 4 32t-2 34q12 30 12 65
q3 83 -69 158l-10 -10v10q-10 6 -19 7.5t-22 0t-19 -1.5q-19 0 -33 14l-18 47q9 16 39 46q9 -10 22 -15t22 -5.5t27.5 0.5t24.5 1q27 0 41 -14q20 10 51 10q18 0 53 -6t54 -6q43 0 74 16q37 -18 83 -18q24 -1 69 3.5t65 4.5q47 -4 67 -12v-9q8 2 29 2q44 0 113 -48.5
t98 -57.5q0 -37 33 -66l-7 -12q18 -4 31 -17t26 -34.5t21 -30.5l-8 -10q16 -10 28 -28.5t16.5 -34t10.5 -41t9 -35.5l-13 -9q26 -28 32 -111t30 -112q-8 -20 -8 -33q0 -12 6.5 -38t5.5 -41z" />
    <glyph glyph-name="E" unicode="E" horiz-adv-x="1165" 
d="M342 90h16v10h-16v-10zM238 365h16v10h-16v-10zM276 346h13v10h-13v-10zM299 631h12l-2 14h-10v-14zM317 844h13v12h-13v-12zM403 776h21l-8 8zM387 907h14v17l-14 -2v-15zM508 799l12 2v14h-12v-16zM264 1094h12l-2 16h-10v-16zM395 1024h13v6h-13v-6zM307 1272h12
l-2 16h-10v-16zM94 1556v9l-6 6h-6l-4 -4zM399 1300h11v17l-11 -2v-15zM207 1518h14v16h-14v-16zM1010 1286h14v14h-14v-14zM1055 1313h12v16h-12v-16zM987 1450h14v14h-14v-14zM1047 1397h10v10h-10v-10zM958 1495h17v16h-17v-16zM1010 1487h26l-26 8v-8zM991 1522h13v12
h-13v-12zM1124 430q0 -17 -10.5 -52.5t-9.5 -55.5v-7q12 -22 12 -59q1 -22 -6.5 -81.5t-1.5 -90.5q-8 -8 -8 -21q0 -2 3 -17t3 -23q0 -19 -12 -31q-18 2 -60 2q-41 -1 -132.5 -9t-139.5 -8q-18 -1 -35 1t-28 5t-30.5 8.5t-33.5 8.5q-52 -10 -88 -14q-60 -1 -181.5 1
t-183.5 1q-48 0 -94 -6l-20 -21l-15 19h4q7 0 27 20q-2 4 -10.5 4t-19.5 -2t-13 -2q27 39 65.5 52.5t61.5 39.5l35 17q22 154 22 157q-6 230 0 967q-1 1 -6 11.5t-10.5 19t-9.5 6.5q18 15 18 51q0 22 -8 63.5t-8 61.5q-13 29 -40 36t-51 1.5t-43 2.5t-20 38q0 15 4 39l27 26
v4h4l4 4l2 -4h6v-6q18 -21 55.5 -19.5t66 7t54.5 -15.5q14 10 43 15t52 5t60 -1t44 -1q37 1 217 16q25 -21 66 -24t71 2q22 -11 33 -10t33 7.5t35 6.5q23 0 39 -8q1 0 4 1t4 1q7 0 27.5 -4.5t37.5 -1.5q3 -10 16 -54t17.5 -61.5t12.5 -52t11 -62.5t3 -57q2 -34 -6 -100
q-2 -16 -22.5 -22.5t-23.5 -8.5l-53 8q-8 29 -13 76.5t-10 80.5t-18.5 68t-44 57.5t-80.5 30.5q-4 -2 -16 -2q-17 -1 -48 8.5t-36 10.5q-7 -10 -29 -10q-12 -1 -35 3.5t-34 4.5q-18 0 -31 -13q-17 11 -43 11q-11 0 -31 8q-48 -76 -45 -176q0 -28 3.5 -78.5t4.5 -65.5
q0 -20 -6 -59t-6 -57q0 -19 6.5 -49t7.5 -46q0 -25 -8 -65q41 -35 96 -35q8 0 14.5 0.5t14 2.5t11.5 3t12.5 5.5t10.5 5.5t13 7t13 7l-17 20q19 16 24.5 50.5t4 65t10.5 54.5t43 25q32 0 62 -10l-7 -43q-2 -19 0 -22.5t7.5 -12.5t7.5 -23l-2 -30q-2 -13 -10.5 -26t-20.5 -17
l23.5 -23.5t11.5 -17t3.5 -12t-1.5 -14t-2 -17.5q-1 -18 -4.5 -60.5t-3.5 -68.5q3 -64 14 -111q-13 -10 -17.5 -26t-3.5 -29t-6.5 -26.5t-27.5 -20.5q-20 1 -33 12.5t-17 22.5t-9.5 33t-8.5 30q0 7 1 20t1 19q0 3 -0.5 14t-0.5 13.5t-1 12t-2 12.5t-3 10.5t-4.5 11t-6 9
t-8.5 9.5t-11 8l-22 6q-92 26 -127 29q-5 -2 -10.5 -4t-8 -3t-5 -4.5t-3 -9.5t-0.5 -18l-47 -10l47 -10q6 -12 6 -27q1 -27 -17 -79.5t-16 -80.5v-12q6 -6 11.5 -20t10 -31.5t7.5 -24.5q0 -7 -7.5 -19.5t-6.5 -19.5q0 -8 8 -16h-8q-2 -2 -2 -10q0 -10 6.5 -27t7.5 -25
q0 -6 -4 -10h-6q2 -8 2 -27q1 -21 -9 -37t-12 -34q13 -2 13 -27q0 -8 -1 -23.5t-1 -23.5l-9 -10q96 -49 142 -49q31 1 88 7t76 7v-8q10 -2 34 -2q28 0 51 6t39 12.5t31.5 22t24 26t19.5 34t15.5 35t15.5 41.5t15 42q-8 12 -10 20q0 6 11.5 21t13.5 24q-10 7 -18 46t-11 45
q10 17 24.5 25t34.5 13t31 11q51 -26 51 -70z" />
    <glyph glyph-name="F" unicode="F" horiz-adv-x="1144" 
d="M293 397h12v15h-12v-15zM274 436h15v15h-15v-15zM385 381l-10 -10q-2 1 -5 4t-5.5 4.5t-6.5 1.5q19 0 19 -14q2 2 8 14zM356 836h19l-8 6zM442 838h13v14h-13v-14zM387 922h12v30l-12 -43v13zM424 1073h12v12h-12v-12zM377 1163h16v17h-16v-17zM385 1305h12v14h-12v-14z
M764 1018h16v16h-16v-16zM1124 1229q0 -39 -43 -45v-54h-6q-10 0 -14 -12l2 6q0 6 -14 15q-4 -17 -15 -17q-10 0 -18 8q2 4 2 17q0 17 -13.5 46t-13.5 40l4 10l-18 27q7 -1 10 0.5t3.5 3t-0.5 6.5t-1 8q0 2 6 8q-14 63 -71.5 117.5t-120.5 61.5l-12 -13h-277
q-1 -5 0.5 -14.5t1.5 -11.5q0 -7 -6 -13t-14 -8q3 -3 -2 -46t8 -64q1 -19 -0.5 -54.5t-1.5 -46.5q0 -51 8 -65q-19 -32 -19 -68q0 -19 6.5 -54t6.5 -54v-11l-8 2q-8 0 -13 -10q7 -15 6.5 -34.5t-4.5 -37.5t4 -30.5t33 -12.5q6 0 31 5q16 14 67 14q47 0 62 31h18q6 19 7 40
t-1 49t-2 40q0 48 23 84h14q37 3 64 -27q8 -45 7.5 -134t6.5 -136h-4q-1 0 -10 -9q2 -9 10.5 -39.5t12 -51.5t3.5 -42q0 -52 -26 -78q8 -8 8 -22v-33q-17 -20 -41 -20q-13 0 -25 8q-11 27 -16 68.5t-8 69t-24 54.5t-64 41q-12 -12 -31 -12q-14 0 -40 12.5t-40 12.5
q-12 0 -24 -6q-25 -125 -25 -244q0 -112 25 -199q-25 -51 -25 -123q0 -55 33 -104q10 -5 35 -8.5t46 -6t37.5 -13t16.5 -30.5q0 -2 1 -18t1 -18q-35 -13 -96.5 -14.5t-95.5 5.5q-3 1 -14 10t-23 9q-7 1 -12.5 -11t-14.5 -12q-23 0 -89 -1t-114.5 -0.5t-89.5 3.5q-8 4 -8 13
q0 8 15 25.5t14 25.5q5 15 27 22.5t44.5 10t41.5 17.5t20 44q-8 11 -8 31q0 18 11 53t11 53q0 22 -14 47l18 21q-20 0 -20 12q0 6 4.5 19.5t3.5 21.5l12 -8q8 8 8 10v6q-9 31 -19 83.5t-7 74.5h4q2 0 7.5 4t6.5 4q-10 12 -30 12q4 54 4 84q0 312 -11 490h9q2 25 2 72
q0 33 -19 55h8q4 28 4 41q0 57 -32 110q-8 16 -34 20t-32 7l-6 -12v6q0 12 -18 15.5t-21 11.5q-10 -5 -16 -5q-7 0 -12.5 7t-10.5 17.5t-8 14.5q-2 2 -2 13q0 15 4.5 26t14 17.5t18 10.5t24.5 5.5t24 2t25 0t21 -0.5q24 0 37 10l149 -18q60 18 177 18q61 0 168 -12t167 -12
q50 0 99 6q6 -8 13.5 -13t20 -6.5t16 -1.5h21.5q28 0 47 -8q0 -4 -1 -12t-1 -12q0 -22 14.5 -77t8.5 -83h6q-4 -20 -4 -31q0 -17 7 -51t7 -51z" />
    <glyph glyph-name="G" unicode="G" horiz-adv-x="1191" 
d="M252 291v16h-10v-16h10zM246 338v16h-17v-16h17zM248 463v10h-17v-10h17zM240 682v16h-11l-2 -14zM178 750v12h-14v-12h14zM877 80l45 -12zM881 172v12h-11v-12h11zM215 862v10h-10v-10h10zM174 1094v12h-12v-12h12zM879 477v12h-15v-10zM928 1401v12h-15v-12h15z
M1151 739q0 -10 -12 -26q-4 -10 -17 -14.5t-26 -5t-22.5 -8t-8.5 -23.5l-21 -21l9 -10h-9q-8 -15 -10 -54t-10 -47q9 -7 11 -33.5t5 -33.5l-4 2q-6 0 -14 -8q10 -41 10 -111q-1 -60 -4 -178t-4 -176q-13 -22 -37 -19q-24 0 -47 13q-25 31 -74 28q-3 13 -29 22t-28 25
q-76 -84 -213 -84q-78 3 -174 33q-12 12 -27 18.5t-35.5 11.5t-29.5 9v8q1 10 -5.5 17t-22.5 15t-17 9q-93 117 -144.5 235.5t-64.5 258.5q-1 6 -5.5 22t-4.5 25q1 3 2 10t2 10l4 -2q5 0 14 9q-27 23 -27 82q3 221 32.5 341.5t135.5 290.5q29 47 93 100t88 83q6 -1 57 -7
q44 0 135.5 15t140.5 14l13 -2q1 -5 5.5 -6.5t13 -0.5t9.5 1l7 -2l-9 -10q17 -22 75 -36.5t71 -21.5q5 22 23.5 39t41.5 17q14 0 29 -11q1 -10 10.5 -21t9.5 -13q-6 -9 -22 -13v-4q0 -8 12 -14q4 -2 4 -4q0 -3 -11 -11t-11 -14t6 -6q-14 -4 -14 -16q-1 -6 4 -20.5t2 -22.5
q10 -8 10 -27q0 -8 -3 -23.5t-3 -23.5q0 -32 39 -39q2 -6 2 -20t-6.5 -42t-6.5 -42q0 -10 5.5 -24t5.5 -19q0 -12 -19.5 -25.5t-31.5 -11.5q-30 0 -56 30q0 4 1 11t1 10q0 11 -8 16q16 4 16 21q0 15 -24 53q-12 -3 -19 10q1 1 5 3.5t6 4.5l4.5 4.5t4 5t1.5 5.5
q0 9 -12.5 23.5t-12.5 23.5q5 10 7 12q-29 20 -84 76.5t-93 77.5l-47 -10l13 12q-30 10 -62 10q-52 1 -103 -21t-87 -59l6 -12q-13 -12 -34.5 -45.5t-39.5 -46.5v-4q0 -17 -19.5 -58t-11.5 -65q-16 -19 -16 -54q0 -12 3.5 -37t2.5 -40q-18 -4 -20 -19q0 -4 2 -12t2 -12
q0 -12 -15 -23l11 -8q-2 -16 -2 -51q-1 -65 6 -187t8 -145h8v-4q0 -3 -3.5 -7t-8.5 -9t-6 -7q1 -5 10.5 -6.5t9.5 -5.5q0 -1 -1 -2t-1 -2q4 -33 -20 -45l26 -21q-18 -15 -18 -36q-1 -20 13 -59.5t13 -63.5q0 -24 25.5 -75.5t20.5 -84.5q3 -3 6.5 -3.5t9.5 0.5t8 1
q17 0 21 -16q-7 -14 -7 -15q0 -13 33 -35t39 -34q63 -13 88 -13q29 -2 87.5 30.5t53.5 59.5q11 4 18 10.5t11 16.5t5.5 16.5t3.5 21t3 19.5h7l6 99q2 48 -17 127h6q-1 7 1 23t2 20q0 26 -9 39h9q14 11 14 26q0 19 -22.5 54t-16.5 59q-10 13 -38.5 18t-48 14t-17.5 33l2 11
q75 44 141 41q40 0 110 -19l19 19q3 -2 11.5 -11t15.5 -10q19 7 42.5 9t62 0.5t44.5 -1.5l31 2q1 -6 5.5 -20t4.5 -21z" />
    <glyph glyph-name="H" unicode="H" horiz-adv-x="1224" 
d="M244 147v13h-15v-13h15zM256 395v13h-10v-13h10zM330 834v12h-17v-12h17zM389 803l2 14h-12v-14h10zM367 1006v14h-11l-2 -14h13zM864 649v15h-14v-15h14zM178 1477v14h-12v-14h12zM860 831v17h-14l-2 -17h16zM979 913l2 13h-16v-13h14zM965 1143v12h-15v-12h15z
M1020 1417l18 15q0 10 -8 10q-3 0 -8.5 -5t-9.5 -5l-4 2q12 -6 12 -13v-4zM1174 29q0 -7 -5 -27l-45 -18q-50 4 -71 4q-51 1 -158 -4t-158 -4q-17 0 -63 4q-8 20 -8 32q0 17 20 52l53 6l-8 8q4 -2 8 -2q13 0 34 30.5t26 34.5q-13 13 -13 21q1 9 10 23.5t11 21.5
q-5 15 -6.5 30t-0.5 40t1 30q0 54 -10 90q13 0 20 13q-24 43 -20 112q0 27 3.5 78t4.5 68q0 55 -8 96l-21 20q-21 -12 -47 -12q-15 1 -43 8t-45 7q-42 0 -66 -27q-18 24 -49 24q-17 0 -46 -6.5t-42 -7.5q0 -53 -4 -168t-4.5 -181.5t7 -162.5t26.5 -176q16 -9 46 -15.5
t44.5 -19.5t19.5 -47q-11 -3 -34 -19t-37 -16q-20 3 -29 19q-15 -4 -31 -6t-35.5 -2.5t-31 -0.5t-35.5 1.5t-31 1.5q-87 0 -131 -17q-3 4 -9.5 6.5t-15.5 3t-16 1t-17 0t-12 -0.5q-49 0 -49 27q0 14 10 31q69 19 102.5 60t33.5 110q1 44 -11.5 131t-11.5 131q0 30 6 57h8
q-5 97 -6.5 213.5t-1.5 192.5t2 220.5t2 199.5q-8 8 -8 20q0 7 4 21.5t4 21.5q0 27 -28 37l-8 -8l-19 26h12q0 3 1 9.5t1 9.5q0 7 -2.5 11t-8.5 5.5t-9.5 2t-11.5 0t-9 -0.5q-22 0 -26 10q-12 -5 -12 -26h-7q-1 7 -5 34.5t-3 43.5l2 22q40 0 121.5 -2t122.5 -2q149 -4 248 6
q28 -14 28 -55q0 -12 -2 -16q-4 -1 -32 -11t-37 -14t-28.5 -14.5t-30.5 -23t-19 -28.5l18 -18q-18 -49 -18 -102q0 -38 4 -56q5 -25 5.5 -51t-1.5 -60.5t-2 -52.5q-4 -64 16 -102q-18 0 -20 -8q0 -4 6 -13t6 -14q0 -6 -12 -12q18 -4 18 -16q0 -6 -5 -17.5t-5 -17.5t2 -10
t6.5 -6.5t8 -4t10.5 -2t10 -0.5h10h8q56 -1 158 6.5t125 8.5q-1 57 7 162t9 147q0 189 -22 295q-72 13 -96 30q-20 15 -27 37l33 56q22 -11 74.5 -14.5t76.5 -18.5q15 0 21 12l-8 6q30 -14 80 -18q17 0 54.5 3.5t57.5 2.5q44 0 82 -18q2 -2 2 -11q0 -8 -18.5 -26.5
t-22.5 -26.5l19 -20h2q0 -1 -9 -4.5t-17.5 -9.5t-8.5 -11q0 -4 4 -8q-8 8 -12 8h-6q2 -6 2 -14q0 -18 -21 -43t-22 -41q0 -19 20 -39q-10 -25 -10 -29q0 -11 20 -26q-8 -27 -8 -64q-1 -27 0 -82t0 -82q0 -48 -16 -84q15 -22 18 -62.5t0 -74t4 -66.5q10 -17 10 -30
q-1 -17 -10.5 -53.5t-9.5 -57.5q0 -42 25 -78q-17 -14 -17 -45q-1 -16 4.5 -48.5t5.5 -47.5q0 -7 -4 -23q5 -23 -2.5 -65t-7.5 -57q0 -28 16 -41v-6q0 -4 -3.5 -8t-9 -9t-7.5 -8q2 0 8 -4.5t10 -3.5q-1 -3 -9.5 -10.5t-8.5 -14.5q0 -2 10 -12q5 -22 28.5 -31.5t48 -9.5
t44.5 -12.5t19 -40.5z" />
    <glyph glyph-name="I" unicode="I" horiz-adv-x="868" 
d="M373 90v14h-17v-14h17zM336 174v16h-17v-14zM389 227v17h-10v-17h10zM504 383v16h-10l-2 -16h12zM334 563v12h-15v-12h15zM479 469v10l-16 2v-12h16zM516 475l2 17h-16v-17h14zM403 1059v14h-10v-14h10zM346 1290v15h-14v-15h14zM422 1438v12h-14v-12h14zM367 1540v14
h-13v-14h13zM469 1473v14h-14l-2 -14h16zM500 1518h20h-20zM584 1454l8 8h-19zM551 1563v16h-10l-2 -16h12zM735 1544v12h-10l-2 -12h12zM817 8q-38 -13 -90 -14.5t-90 2.5q-68 0 -117 -16q-58 18 -143 18q-53 1 -159 -5t-159 -5l-8 26l6 -2q2 0 13 11l2 18h6
q17 -2 36.5 13.5t30.5 15.5q5 0 27 -11l18 19q7 2 27 6.5t29 7.5t22.5 10.5t22.5 18.5q1 14 14.5 35.5t13.5 25.5l3 140q15 0 20 10q-13 29 -18 65t-7.5 80.5t-5.5 67.5q6 27 6 55q0 59 -22 102q27 7 27 31q0 9 -5 35.5t-2 42.5l-18 18q9 0 18 13q0 10 -6 29.5t-6 31.5
q0 13 14 31q-14 32 -14 63q0 24 16 35q-9 24 -11 39.5t0.5 39t2.5 38.5q7 196 -24 246l8 8q-12 6 -17 24.5t-11 29t-25 3.5q-11 24 -39 31t-64.5 8t-54.5 10q4 8 4 11q0 6 -15.5 13.5t-13.5 22.5l4 -2q2 0 8 4.5t7 4.5l2 6q0 2 -12 14q1 0 3 1t3 1q13 -1 35 -20t32 -19
q4 0 7 2.5t5 7.5t3.5 9t2.5 9.5t1 6.5q51 -10 123 -14q49 0 153 8.5t158 7.5q69 -2 176 -24v-5q1 -14 -8.5 -28t-18 -21t-29 -21t-22.5 -16q-15 5 -20 5q-20 0 -55 -17t-46 -20q4 -8 4 -13q0 -6 -17.5 -8t-20.5 -16l8 -8l-21 -21q27 -7 27 -16q0 -8 -17 -27t-18 -29l6 -12
l-14 -14q0 -3 3.5 -7.5t6.5 -4.5q9 0 17 12q-5 -187 -15 -236q17 -39 23.5 -105t5.5 -120.5t-5.5 -135t-4.5 -108.5q0 -167 26 -250q-22 -24 -22 -71q-1 -15 0 -42t0 -40q15 -38 49.5 -54t71.5 -16.5t72.5 -2t58.5 -20.5t22 -63z" />
    <glyph glyph-name="J" unicode="J" horiz-adv-x="1036" 
d="M362 23l11 6q-1 1 -4 5t-5.5 6.5t-5.5 2.5l-4 -2zM147 250l31 16l-12 10zM408 14h16v13h-16v-13zM223 309h15v15h-15v-15zM188 385h27l-27 8v-8zM160 432h12v12h-12v-12zM188 440h19h-19zM625 162h10v14h-10v-14zM575 236h27l-27 10v-10zM549 281h14v16h-14v-16zM575 293
h19h-19zM528 494h17v16h-17v-16zM705 346h12v21h-12v-21zM678 375h16v14h-16v-14zM698 494h11v16h-11v-16zM651 588h13v14h-13v-14zM717 559h12v16h-12v-16zM651 633h13v16h-13v-16zM698 598h11v12h-11v-12zM717 633h12v16h-12v-16zM686 823h16v17h-16v-17zM678 903h16v15
h-16v-15zM717 948h12v17h-12v-17zM551 1182h12v14h-12v-14zM633 1116h14v14h-14v-14zM565 1194h17v10h-17v-10zM559 1208l6 31zM586 1255h14v15h-14v-15zM670 1221h12v10h-12v-10zM520 1413h15v17h-15v-17zM659 1339l11 -18v18h-11zM686 1294h37v15h-37v-15zM604 1413h12v17
h-12v-17zM578 1526h12v16h-12v-16zM686 1460l12 13q-2 1 -7.5 4.5t-8.5 3.5l-4 -2zM754 1452h14v12h-14v-12zM784 1507h13v15h-13v-15zM985 1565q-3 -6 -12 -40t-21 -46q-5 8 -14 8h-25q-12 -6 -51 -14t-63.5 -21.5t-26.5 -38.5l-4 2q-2 0 -7.5 -4t-6.5 -4h10v-21h-10v7
q0 1 -2 3.5t-4 5.5t-3 5h-8q-2 -8 -2 -25q0 -19 6.5 -54t6.5 -52q0 -14 -3 -29h-6q-1 0 -3.5 -1.5t-5.5 -3.5t-5 -3q16 -16 16 -43q0 -8 -2.5 -29t-1.5 -32l-12 -9q12 -16 7 -66.5t11 -72.5q-4 2 -11.5 11.5t-10.5 9.5h-4l-19 -21q13 0 25 -6t12 -18q0 -7 -5 -21.5t-5 -21.5
q0 -18 27 -31l-7 2q-15 0 -28 -21q18 -7 18 -24q0 -8 -6 -23.5t-6 -23.5q0 -13 10 -23l10 -149q-18 -11 -18 -41v-19q10 -8 10 -245q0 -64 -30 -134q-45 -113 -127 -165t-207 -52q-95 0 -180.5 35.5t-122.5 108.5q-14 30 -31 91.5t-17 90.5q0 48 29 88v6q-1 12 7 25.5t16 22
t23.5 22.5t19.5 18q24 6 53 6q58 0 81 -29.5t23 -88.5q0 -62 -39 -113h-10q-29 3 -55 -27q5 -33 8 -45.5t10.5 -33.5t21 -34.5t34.5 -25.5q30 -18 61 -18q51 0 131 47q26 28 48 75t22 87q0 31 -10 49q7 -1 12.5 10.5t7.5 23t2 17.5q0 14 -5 20.5t-17 1.5l8 13
q-4 4 -11.5 6.5t-11.5 -0.5v20q33 20 33 64q0 14 -2 20q-16 0 -16 17q0 10 5 30.5t5 30.5q0 18 -10 25v-4q4 12 4 18q0 21 -23 12q6 91 6 185q0 252 -16 409q21 25 22.5 84.5t6.5 75.5q-8 20 -21.5 33.5t-27.5 19.5t-35 8.5t-36 2t-39 -1.5t-36 -1q-44 0 -65 17t-21 59v8
q22 13 49 19t45 7t53 1q58 0 184 -12.5t185 -12.5q101 0 195 27q3 -10 14 -10q6 0 17.5 6t17.5 6q12 0 12 -18z" />
    <glyph glyph-name="K" unicode="K" horiz-adv-x="1206" 
d="M313 51l2 15h-12v-15h10zM471 20l2 13h-16v-13h14zM336 209v10h-14v-10h14zM518 47v14h-14v-14h14zM256 487v13h-12v-13h12zM229 551l2 14h-12v-14h10zM793 43v14h-17v-14h17zM270 653v13h-14v-13h14zM371 641v14h-11l-2 -14h13zM281 801v14h-11l-2 -14h13zM653 489l2 15
h-12v-15h10zM700 514v16h-10v-16h10zM793 479v10h-11v-10h11zM287 1006v14h-15v-14h15zM795 524v13l-37 67l24 -80h13zM580 899v12h-13v-12h13zM610 881v10h-16v-10h16zM690 866v17h-10l-2 -17h12zM1186 -4q-26 -16 -53 -16q-17 0 -48.5 9.5t-46.5 10.5l-12 -8l-285 -2
l-18 80q24 14 65 18q17 10 17 29t-18.5 54t-14.5 56q-28 26 -54.5 94.5t-49.5 94.5l8 6q-4 8 -18 16.5t-17 16.5l6 -2l15 8q-21 16 -27 16l-12 -8l8 23q0 11 -8 31t-7 32h-12l-14 42t-16.5 47t-16.5 39.5t-22.5 44t-26.5 34.5q0 -27 -11.5 -42.5t-32.5 -31t-32 -29.5
q-1 -24 -11.5 -73t-10.5 -76q0 -30 8 -51l18 -2q-18 -18 -18 -41q0 -18 18 -70l-28 -18l18 -21l-18 -18q18 -10 18 -41v-15l-12 -8l18 -8q-18 -13 -20 -24l12 -13l8 6v-26q0 -68 45 -86q4 2 17 2q6 0 11.5 -1t11.5 -4t9.5 -4.5t10 -6.5t8 -6.5t8.5 -8t8 -6.5
q-33 -55 -141 -55q-15 0 -84 -1t-108 -0.5t-92.5 4.5t-84.5 13v16l17 7l-9 24q10 8 24.5 15.5t33.5 16.5t28 13l-12 8h6q19 -3 34 14t20 40q-11 21 -8 53t-3 51l8 -2l13 8q-17 10 -21.5 56.5t-11.5 56.5q1 6 8.5 19t7.5 20l-16 16l8 -8q-8 44 -8.5 93.5t3 112.5t3.5 95
q0 71 -14 117h4q27 14 27 24q0 15 -16.5 37t-16.5 35q0 18 30 31q-20 17 -20 47q0 18 10.5 48.5t12.5 43.5q-14 6 -19.5 16t-5.5 18.5t2 24t2 23.5q0 20 -8 31h10q10 17 10 47q0 16 -5 49t-5 49q0 19 12 31q-24 14 -24 28q0 2 3 11.5t3 11.5q-5 14 -26 23t-43 13t-40 20
t-18 44q0 18 13.5 28.5t31.5 10.5q35 0 103.5 -6t103.5 -6q50 0 82 12q12 -13 31 -15.5t47 1.5t36 4q50 0 62 -47l14 -19q0 -7 -7 -19t-7 -19q-26 -2 -52 -15.5t-41.5 -27t-39.5 -37.5q8 -44 8 -103q0 -57 -12 -94q9 -9 12 -23t2.5 -24.5t6.5 -20.5t24 -14
q-11 -11 -13.5 -43.5t-23.5 -48.5q18 -32 18 -78q0 -26 -12 -80q11 -20 35 -20q1 20 28.5 53.5t65 71.5t47.5 51q12 41 65.5 109.5t61.5 107.5q24 6 51 46.5t52 43.5q-21 21 -21 33l2 6q1 0 5 -1t5 -1q9 0 18 13.5t11 15.5v20l4 -2l25 21q-5 18 -21 26.5t-39 12.5t-32 8
q-8 -19 -25 -19q-6 0 -12 2.5t-10 5t-10.5 7t-8.5 6.5v4l-8 14l7.5 -2.5t8.5 -2.5t8 -1q14 0 17.5 12t2.5 27t10.5 27t39.5 12q12 1 44.5 4.5t51.5 3.5q46 0 131 -11.5t121 -13.5q0 -40 -35 -61l-10 2q-20 0 -54.5 -27t-66.5 -20q-5 -28 -39.5 -82t-35.5 -86
q-29 -21 -68.5 -86t-73.5 -86l6 -10h-4l-14 -8v-5l18 -22h-20q-13 1 -17 -9.5t-2 -23.5t-6 -25.5t-28 -15.5q14 -26 19 -71.5t18 -80t49 -53.5q-7 -14 -7 -18q0 -19 17 -29q17 -60 80 -209.5t78 -236.5q9 -53 65.5 -125.5t104.5 -89.5l8 6q8 -5 14.5 -12t11 -17.5t7 -17.5
t6.5 -20.5t6 -18.5z" />
    <glyph glyph-name="L" unicode="L" horiz-adv-x="1075" 
d="M383 29v12h-12v-12h12zM422 16v17h-16v-17h16zM254 223l2 17h-16v-15zM336 268h20h-20zM248 475v12h-12v-12h12zM227 567v13h-16v-13h16zM338 547v12h-14l-2 -12h16zM211 788v15h-12v-15h12zM985 35v12h-16v-12h16zM352 936v16h-12v-16h12zM326 995v11l-15 2v-13h15z
M219 1243v17h-12v-17h12zM285 1274v10l-15 2v-12h15zM225 1567v16h-12v-16h12zM1055 485h-13q7 -26 5 -45q0 -29 -8 -84t-9 -80q0 -54 19 -96h-11l-24 -192q-304 -4 -455 -2q-30 0 -88 4q-8 20 -8 33q0 18 16 29t46.5 15t52.5 5t56 -0.5t36 -1.5q156 -4 194 98q5 16 37 80.5
t33 95.5q0 15 -4 35h8q2 0 10 8q-2 8 -26 8q18 12 18 35q1 14 -7.5 39t-8.5 39q21 16 59 16q24 0 45.5 -9.5t26.5 -29.5zM563 1593l19 -32q-11 -32 -25.5 -46.5t-29.5 -15.5t-29.5 0.5t-32 -4.5t-31.5 -25l6 -6h-6q-7 0 -9.5 -17t-10.5 -22q17 -170 8 -567l-4 -92
q-10 -27 -10 -51q0 -21 5 -62t5 -61q0 -26 -10 -53q0 -49 6.5 -155t5.5 -161q0 -65 -12 -133q25 -10 31.5 -22.5t7 -33.5t6.5 -36q-35 -19 -80 -16q-23 0 -69 5t-68 5q-42 0 -62 -6q-12 4 -22 4q-14 0 -38 -9.5t-38 -9.5q-17 0 -29 6q-6 12 -6 29q0 12 6 23.5t12 18
t18.5 17.5t16.5 15q20 7 33 15.5t29 22.5t28 23v45q8 0 17 13q-1 5 -8 27.5t-7 35.5q0 20 17 37q-9 9 -13 28.5t-5 33.5t0 41t1 30q4 45 -8 72l39 6q-22 26 -37 20q4 3 5.5 7t2.5 10t2 10q-3 42 -3.5 87t0.5 107.5t1 88.5q1 48 -2 151t-2 152q4 90 13 147q-9 2 -9 17
q0 5 1 15t1 15q16 -3 27 11q-19 9 -25.5 31t-7 43.5t-14 45.5t-43.5 39h-18q-16 0 -37 6.5t-21 18.5q0 5 5 19t7.5 23t-0.5 15q68 -10 125 -10q67 -1 196.5 6t178.5 8z" />
    <glyph glyph-name="M" unicode="M" horiz-adv-x="1230" 
d="M180 25l66 10l-66 8v-18zM207 356l6 -6zM229 385v14h-14v-14h14zM539 166v16h-11v-16h11zM512 213l2 14l-12 2v-16h10zM518 240h31h-31zM549 270l8 9q-8 8 -14 8h-6zM221 616l2 15l-12 2v-17h10zM549 324q-16 20 -31 20h-6l37 -20l-19 -19h9q1 2 5.5 8t4.5 11zM600 297
v10l-16 2v-12h16zM223 690v15h-10l-2 -15h12zM453 492v16h-13v-16h13zM889 68v14h-10v-14h10zM911 39h33h-33zM420 586v16h-17v-16h17zM993 76v12h-14v-10zM952 113h19h-19zM903 178v17h-14l-2 -17h16zM1028 57v11h-10v-11h10zM956 139v17h-10l-2 -17h12zM881 207h26h-26z
M631 481v13h-17v-13h17zM973 158v20h-12v-20h12zM1014 131l4 14h-14l-5 -14h15zM928 233l26 -16l-18 16h-8zM889 291v8h-8h-4q-10 0 -15 -8h27zM616 563h39q-7 10 -20 10q-16 0 -19 -10zM1034 184v17h-10v-17h10zM868 358v11h-12v-11h12zM868 373v16h-12v-16h12zM629 602
l35 -2q-2 10 -19 10q-13 0 -16 -8zM1010 244v10h-13v-10h13zM918 338l38 -12zM868 420v14h-10l-2 -14h12zM223 1073v10l-16 2v-12h16zM903 383h27h-27zM1022 297v14l-16 2v-16h16zM639 682v16h-12v-16h12zM561 768v16h-14v-14zM948 371h33h-33zM1022 315v17h-16v-17h16z
M942 403v11h-12v-11h12zM365 1010q0 4 -5 9t-10 7l-4 -2l10 -27q9 9 9 13zM231 1139v10l-12 2v-12h12zM674 682h18l-12 12zM881 496l2 12h-17v-10zM262 1118v12h-16v-12h16zM981 391l35 -2zM942 449v12h-10v-12h10zM909 485v15h-16v-15h16zM563 836v10h-16v-10h16zM479 918
v14l-12 2v-16h12zM399 1004v16h-16v-16h16zM543 862l2 15l-17 2v-17h15zM993 428v12h-12v-12h12zM1012 410v14h-13v-14h13zM967 457h22h-22zM426 1022v12h-14v-10zM354 1098v14l-14 2l-2 -16h16zM909 557v16h-14v-14zM987 496v10h-20v-10h20zM344 1137v12h-12v-12h12z
M526 954v17h-12v-15zM496 1022q-1 0 -4.5 1t-4.5 1q-9 0 -16 -14.5t-14 -14.5q8 -4 10 -4q8 0 15 15.5t14 15.5zM909 586l2 14h-16v-14h14zM934 557h27h-27zM455 1049v16h-17v-14zM930 578v14h-17v-14h17zM371 1137v10h-13v-10h13zM428 1096v16h-16v-16h16zM733 793v16h-12
v-16h12zM969 569l41 -2zM961 584h20l-4 16h-16v-16zM1034 541v10l-16 2v-12h16zM426 1161v8h-6q-3 0 -5 1.5t-3 2.5t-3 4.5t-3 4.5l-13 -19zM948 678v14h-16v-14h16zM463 1161l2 13h-12v-13h10zM719 926l2 10h-16v-10h14zM137 1520v14h-14l-2 -14h16zM975 688v12h-14l-3 -12
h17zM229 1444v12h-16v-12h16zM180 1491h19h-19zM279 1444l12 6q-1 2 -4 4.5t-4.5 4.5t-3 5.5t1.5 5.5h-21zM227 1550q0 15 -16 15h-10l-2 -27h16q12 4 12 12zM272 1509h21h-21zM299 1489l18 -12l-10 12h-8zM299 1516h20h-20zM776 1083v11h-14v-11h14zM307 1544l12 10
q-6 9 -16 9h-10zM391 1468v9l-18 18zM1032 834v16h-12v-14zM967 901v17h-11l-2 -17h13zM877 1022v16h-13v-14zM987 940v12h-12v-12h12zM915 1069v14h-14v-14h14zM889 1135l2 16h-17v-16h15zM971 1067v16h-13v-16h13zM784 1257l27 -8zM846 1282v16h-15l-2 -16h17zM965 1188
v14l-17 2v-16h17zM864 1413v17h-14v-15zM934 1389v4l-12 2v-21q12 12 12 15zM862 1481l53 -29l-26 27zM977 1440v14h-14v-14h14zM924 1513h30h-30zM891 1552h27h-27zM989 1479v18h-6zM1034 1559v14l-16 2v-16h16zM1090 1520v14h-17v-14h17zM1157 1530l-29 -6
q-30 -3 -49.5 -20t-19.5 -40q0 -13 10 -26q-9 -9 -8 -11v-8q16 0 16 -10q0 -5 -4 -15t-4 -16q0 -2 -1.5 -5.5t-1.5 -5.5t3 -3h-12q9 -54 10.5 -119t-1.5 -116t-6.5 -121.5t-4.5 -116.5q-1 -66 -1 -196.5t-1 -196.5q0 -26 -2 -80t-2 -82q-5 -177 22 -246q3 -7 6.5 -11
t9.5 -5.5t9.5 -2t12.5 0t11 0.5q16 0 25 -9v-34q0 -25 10 -33q-166 2 -399 -8q-27 15 -27 39q0 18 16 34q89 4 89 58q1 21 -9 60t-10 59q0 21 8 34h21q8 4 8 11t-16 28q6 0 17 -1t17 -1q23 0 31 8q-8 -2 -24 -2q-52 0 -52 74q3 30 13 70q-1 24 -9.5 81.5t-7.5 88.5
q0 11 12.5 32.5t14.5 28.5q-5 47 -10 186.5t-19 213.5l27 26q-2 12 -27 12q-24 -16 -24 -34q0 -12 8 -32t8 -30q0 -19 -20 -35q-19 -82 -68.5 -272t-71.5 -291q-22 -23 -25 -54.5t-5.5 -60.5t-24.5 -49q-2 -14 -2 -80q0 -38 -12 -79q-21 -7 -37 -7q-30 1 -45 25t-24.5 61
t-20.5 52q4 10 4 34q1 39 -11 81t-34.5 97t-30.5 78q20 13 20 21q0 9 -4.5 12t-11 2t-12.5 0h-6q1 5 2 15t2 14q0 36 -27.5 113t-19.5 118q-33 26 -33 58q0 8 3 24.5t3 24.5q0 30 -29 53l13 -8l28 35q-9 12 -28 12q2 1 12 3.5t17 6t7 8.5v9h-28l10 10l-2 8q-6 1 -20 10
t-23 9q-7 0 -12.5 -7.5t-5.5 -15.5q-1 -7 8.5 -12t9.5 -11t-18 -30l6 -8q-4 0 -11.5 1t-11.5 1q-10 0 -16 -9q0 -15 12 -18l27 -2q5 -34 6 -70.5t-0.5 -86.5t-1.5 -70q-3 -65 10 -117h-12q8 -82 4 -183.5t0 -216t24 -157.5q6 -14 41 -18.5t43 -10.5q-7 -7 -9 -26t-21 -27
q-5 0 -15.5 1t-15.5 1q-29 0 -91 -6.5t-95 -5.5q-29 0 -43 2q0 3 -1 9t-1 9q1 23 19.5 39.5t40.5 24.5t40.5 23.5t19.5 35.5q0 20 -22 55q9 15 12 56.5t17 62.5q-17 9 -17 25q0 8 6.5 22.5t7.5 20.5l-4 6l21 18q-7 12 -27 8q4 82 4 123q3 121 -8 289h-8v14h8q2 4 2 15
q0 12 -4 33t-4 32q4 26 18 33l17 -20q-16 41 -25.5 107t-12.5 113t-5.5 133t-3.5 105q10 17 10 37q0 60 -53 94q-12 -4 -19 -4q-13 1 -30 15.5t-25 17.5q6 5 8 11t1 19l-1 13q0 20 21 23q20 -14 47 -22t53 -9t55.5 -1.5t53.5 -0.5q89 -2 123.5 -36t27.5 -124
q15 -56 56.5 -272t86.5 -326v-12q-4 -38 54 -101h6q4 0 6.5 1.5t4 5t2.5 7.5t1 9v9v8.5v5.5q33 80 33 118q0 23 -4 33h8q18 52 26.5 151.5t16.5 125.5q5 13 17.5 41.5t17.5 44.5q56 181 69 245q9 11 12.5 37.5t8.5 36.5q28 -4 45 -4q28 -1 83.5 4.5t80.5 5.5q49 0 88 -20
q2 -2 2 -8t5 -15.5t1 -13.5z" />
    <glyph glyph-name="N" unicode="N" horiz-adv-x="1185" 
d="M817 279h12v16h-12v-16zM817 299h12v14h-12v-14zM891 233h12v15h-12v-15zM799 336h12v12h-12v-12zM772 371h12v16h-12v-16zM696 510h15v14h-15v-14zM891 326h12v14h-12v-14zM733 489h17v17h-17v-17zM799 436h12v17h-12v-17zM215 1053h16v10h-16v-10zM788 481h37h-37z
M662 627h10v16h-10v-16zM788 502h15v10h-15v-10zM793 535l-13 2q-8 4 -8 10t7.5 15t8.5 11q-3 -8 -12 -8q-7 0 -20.5 3t-20.5 3q-17 0 -28 -8q8 4 16 2t14 -7l6 -5l-2 2l13 8q-3 -10 10 -17t27 -9zM733 594l-18 14l12 -8l-20 -18l-11 12l11 -12q4 12 26 12zM780 520h15v12
h-15v-12zM852 455h16v12h-16v-12zM614 719h13v16h-13v-16zM864 475h10v10h-10v-10zM834 528h14v11h-14v-11zM825 563l9 10zM557 877h14v14h-14v-14zM557 903h18h-18zM492 977h14v14h-14v-14zM272 1206h13v15h-13v-15zM760 719h16v16h-16v-16zM668 823h10v11h-10v-11z
M602 903h16v15h-16v-15zM373 1171h14v11h-14v-11zM418 1159h16v17h-16v-17zM346 1251h14v17h-14v-17zM641 977h10v14h-10v-14zM307 1362h17v16h-17v-16zM537 1145h16v10h-16v-10zM457 1237h12v10h-12v-10zM983 719h10v16h-10v-16zM209 1538h14v12h-14v-12zM328 1528h18h-18z
M969 1178h16v12h-16v-12zM1024 1534h14v14h-14v-14zM1135 1561q-24 -43 -41 -60t-60 -33q-24 -58 -24 -90q0 -33 14 -55h-8q-1 1 -2.5 -0.5t-3 -4t-2.5 -3.5q14 -19 14 -60q0 -23 -3 -70.5t-3 -72.5q0 -85 -8.5 -256t-8.5 -256q0 -208 9 -410q1 -24 5.5 -88t4.5 -98
q0 -8 -10 -13t-19 -5q-20 0 -33 10q-2 17 -22.5 45.5t-20.5 46.5q0 8 5 18q-29 14 -54 68.5t-47 71.5l8 6q-68 68 -65 145q-89 71 -152 230l-8 2h4q19 0 19 10q-3 5 -9 6.5t-16.5 0.5t-11.5 -1l-8 2q-42 76 -135 261.5t-150 281.5q-21 -21 -21 -43q0 -15 10.5 -40t10.5 -38
q0 -20 -12 -35q-2 -41 -2 -121q0 -85 4 -255t4 -255v-75q-15 -15 -15 -27q0 -10 15 -35q-1 -10 -4.5 -27t-5 -30t-1.5 -25q0 -65 46 -102q16 -14 69 -14q20 0 27 -6.5t6 -24.5l-18 -45l-334 -15q-4 16 -4 23q0 16 8.5 27t22.5 22.5t20 20.5q2 0 6 -1t6 -1q37 0 49.5 32.5
t13.5 81t9 64.5q-10 5 -15 19.5t-5.5 26.5t0.5 33.5t1 24.5q0 32 -8 53q2 80 2 238q0 414 -8 623l18 18q-13 17 -15.5 56.5t-3 72t-26 55t-80.5 15.5q-7 10 -9.5 22t-2.5 29.5v23.5v17q27 -12 58 -12q18 0 51 5.5t49 6.5v-8q16 8 39 8q21 0 59.5 -7t57.5 -7
q25 -45 74.5 -126t70.5 -118q14 -23 57 -117q5 -8 27 -8q11 -11 20.5 -53t32.5 -50l-6 -8l6 -12q10 -20 36 -72.5t42 -81.5q4 -7 31.5 -55t38.5 -68t31.5 -59.5t32.5 -70.5t20 -60q3 -10 15 -21.5t15 -15.5h9q8 4 8 10t-8 15.5t-9 11.5l17 21q-7 26 -7 60t3.5 75.5t3.5 62.5
q0 44 -16.5 127.5t-16.5 126.5q0 15 4 39h6l12 8q-9 14 -11.5 28t-0.5 37t2 29q0 13 -6 35t-6 33q0 19 4 54.5t4 52.5q0 98 -84 98q-29 0 -39 20q-14 10 -14 27q0 19 22 45q40 -6 80 -6q24 0 71 2t71 2q72 0 127 -16z" />
    <glyph glyph-name="O" unicode="O" horiz-adv-x="1196" 
d="M281 217h30h-30zM346 188h16v13h-16v-13zM227 344h15v14h-15v-14zM696 23h13v12h-13v-12zM219 567h12v13h-12v-13zM121 715l22 -76l-8 86h-14v-10zM186 688h17v10h-17v-10zM121 768h12v20h-12v-20zM141 760h21h-21zM213 741v-8h-35l8 8q-6 9 -16 9h-10q-15 -10 -17 -13
q23 19 43 19q18 0 27 -15zM100 862h33v10h-6q-5 0 -14 9zM147 842h17v16h-17v-16zM168 834h18h-18zM907 172h17h-17zM862 262h15v14h-15v-14zM842 281h16v16h-16v-16zM881 246h16v12h-16v-12zM907 281h17v16h-17v-16zM154 1153h12v16h-12v-16zM987 328h12v12h-12v-12z
M940 401h27q-5 9 -15 9q-8 0 -12 -9zM856 602q0 28 -2 85t-2 85v44q0 90 -0.5 137t-7.5 127t-20.5 133.5t-40.5 119t-66 121.5q-32 22 -46.5 31t-43.5 20t-54 11q-40 0 -94.5 -38.5t-72.5 -76.5q-7 -14 -15 -57.5t-24 -63.5l6 -10q-6 -4 -6 -29q0 -18 -21 -18q4 -8 4 -17
q0 -15 -12 -43q-4 -12 -10 -14h10q2 -4 2 -14q0 -11 -3 -32t-3 -32q0 -23 12 -41q-2 -40 -7 -114.5t-8 -135t-3 -114.5q0 -151 31 -297.5t100 -255.5q18 -30 64 -53t81 -23q19 0 47 14q42 20 73 45.5t50.5 57t32 63t19 73t9.5 76.5t6 83q1 15 1 22q1 18 7.5 63.5t6.5 67.5z
M1036 414q0 7 -17 11.5t-24 2.5h-8q1 1 2.5 3.5t3.5 4.5t4 2q3 0 12 -7t15 -7q2 0 10 4v-18q2 2 2 4zM952 551l43 16l-55 8q2 -1 4.5 -7t4.5 -11.5t3 -5.5zM922 621h12v16h-12v-16zM930 659h14v13h-14v-13zM254 1341h16v17h-16v-17zM1001 641h17v14h-17v-14zM930 715h14v14
h-14v-14zM328 1401l30 8h-20zM1034 752h10v12h-10v-12zM975 1030h16v12h-16v-12zM922 1096l26 -13l-8 13h-18zM678 1511h16v13h-16v-13zM938 1315h16v16h-16v-16zM1135 670q0 -16 -13.5 -42t-13.5 -40q0 -12 6 -21q-13 -35 -38.5 -127t-53.5 -151q-5 -11 -14 -30.5
t-16.5 -35t-16.5 -30.5q-47 -80 -124 -144.5t-161 -83.5q-30 -6 -67 -6q-115 0 -218.5 60t-177.5 159q-5 30 -31 72.5t-44.5 81t-10.5 69.5q-20 25 -31 62t-4 65q-2 19 -23.5 149t-21.5 200q0 92 27 161q-4 16 -4 29q0 19 18.5 57t12.5 72q27 64 51.5 111.5t63.5 103t80 91
t99 59.5t123 24q8 10 29 10q9 0 47 -8.5t56 -1.5q108 -14 204.5 -86t132.5 -172l-6 -12q37 -17 52.5 -49t23.5 -83t16 -73q18 -49 27 -115t10.5 -109t1.5 -120v-51l-12 -8q21 -17 21 -37z" />
    <glyph glyph-name="P" unicode="P" horiz-adv-x="1150" 
d="M168 4l37 33l-53 -17v-16h16zM211 137h12v17h-12v-17zM422 23h14v14h-14v-14zM266 195h15v12h-15v-12zM442 111l13 -5v17l-13 4v-16zM535 53h12v13h-12v-13zM569 35h17v10h-17v-10zM328 559h14v14h-14v-14zM293 850h14v12h-14v-12zM457 727h16v12h-16v-12zM319 924h17v16
h-17v-16zM285 963h12v12h-12v-12zM305 1051h10v16h-10v-16zM387 989l4 76h-16v-16zM801 786h16v13h-16v-13zM803 836h14v14h-14v-14zM842 803h16v12h-16v-12zM281 1378h16v17h-16v-17zM178 1524h15v16h-15v-16zM338 1417h12v10h-12v-10zM244 1524h16v16h-16v-16zM844 1194
l8 -6q-14 31 -30 91t-23 81q-15 37 -43 59.5t-61 30t-72 10.5t-75.5 0.5t-70.5 1.5q-12 -56 -12 -110t12 -84q-14 -9 -20 -8q4 -54 5.5 -113t1.5 -137t1 -113v-78q50 -18 98 -18q63 0 158 26v19q28 11 44.5 33t30.5 50.5t29 43.5l-20 18q7 13 20 13q11 44 11 49q0 22 -23 49
q13 9 13.5 42t17.5 50zM915 975l17 18h-29h12v-18zM891 1030h14h-14zM918 1194h26l-26 20v-20zM897 1241h16v14h-16v-14zM825 1362h15v12l-45 35zM733 1489h12v12h-12v-12zM928 1329h30v12l-6 -2q-3 0 -12 9zM1055 1241h12v14h-12v-14zM1063 1313h14v16h-14v-16zM1100 1094
q0 -16 -10 -29l-17 18l-31 -26q3 -5 8 -7t9.5 -2t11.5 0.5t10 0.5q-5 -66 -53 -150l8 -6q-10 -3 -34 -14t-39 -13l8 -12q-24 -17 -73 -55t-73 -56l9 -8q-6 -6 -27 -13t-41.5 -11t-46.5 -9t-31 -6q-14 21 -35 21q-5 0 -34.5 -13.5t-57.5 -13.5q-37 0 -104 19q-17 -11 -17 -19
q0 -6 5 -19.5t6 -19.5l6 -166l-6 13q-2 -19 -2 -40.5t1 -47t1 -39.5q0 -61 -21 -123q8 -8 22.5 -64t36.5 -78q7 -16 25.5 -26t38 -14t38 -8t26.5 -11.5t1 -19.5l-10 -19q-7 -10 -14 -10q-4 0 -9 3t-7 3l-9 -16q-246 -4 -391 -4q-11 0 -27.5 -0.5t-25.5 -0.5t-23 1t-28 4
q-2 4 -6.5 12t-7 13t-5 13t-2.5 15q0 8 2 12q14 3 42 6t42.5 6.5t31.5 12t24 26.5t6 46h10l8 137h6q3 0 11 8q-19 37 -19 117q0 17 -4.5 51t-3.5 53h12q12 0 15 8q-3 8 -27 8v689q23 0 27 12q-3 8 -27 8q-4 24 -4 37q0 16 3 49t3 49q0 67 -49 103h-111q-1 10 -5.5 31
t-4.5 36q0 35 29 35h12q5 -16 16 -16q6 0 17.5 7t17.5 7q12 0 23 -16q11 8 49 8q31 0 41 20q16 -19 32 -23.5t44 0.5t40 5q5 0 15.5 -1t15.5 -1q53 -6 217 -8t250 -21q11 -2 43.5 -28.5t59.5 -24.5v-4q0 -15 51 -66.5t59 -85.5q10 -13 10 -26q0 -10 -6 -30t-6 -30
q0 -18 19 -33l-27 -20q7 -10 27 -6q-3 -9 -3 -17q0 -13 6.5 -38t6.5 -39z" />
    <glyph glyph-name="Q" unicode="Q" horiz-adv-x="1222" 
d="M289 229h35h-35zM342 182h16v13h-16v-13zM362 203h15v10h-15v-10zM223 356h15v17h-15v-17zM268 434h17v12h-17v-12zM223 582l19 -13l-13 13h-6zM129 682h16v16h-16v-16zM137 774h31h-31zM881 61h14v13h-14v-13zM649 309h15v17h-15v-17zM780 190h11v15h-11v-15zM967 25h10
v14h-10v-14zM799 190h12v15h-12v-15zM676 322h14v12h-14v-12zM799 238v-29l-19 65q1 -3 -0.5 -11t-1.5 -11q0 -11 10 -14h11zM184 973h15v10h-15v-10zM215 999h10v13h-10v-13zM176 1047h27h-27zM150 1081h10v15h-10v-15zM260 1034h12v17h-12v-17zM168 1174h12v16h-12v-16z
M985 377h12v14h-12v-14zM872 895q0 114 -30.5 268t-73.5 262q-6 5 -33 26t-37 28t-32 19.5t-42 17t-42 4.5q-45 0 -93.5 -38t-80.5 -83q-14 -21 -16.5 -60t-8.5 -71.5t-29 -46.5q0 -23 -7 -67t-7 -67v-407q0 -18 -1.5 -61.5t-1 -77.5t4.5 -60q2 -16 11 -45t12 -41
q12 -51 16 -67t17.5 -61t24.5 -66.5t29.5 -54t42 -55t52.5 -40.5q16 -2 47 -2q129 0 166 76q-10 32 -30.5 60t-51.5 60.5t-45 49.5q-6 -6 -13.5 -8.5t-13 -2.5t-15.5 0.5t-13 0.5l-11 -2q-15 -12 -28 -16.5t-20 -8t-13 -16.5q-18 -35 -41 -35q-19 0 -25 16q10 79 67.5 146.5
t135.5 68.5q62 0 111 -44.5t71 -98.5q14 46 23.5 99.5t14 93.5t7 106.5t3 96t0 107t-0.5 97.5zM176 1231h14v12h-14v-12zM993 496h15v16h-15v-16zM985 535h12v12h-12v-12zM260 1343h16l-8 9zM993 627l27 -11zM1012 721h12v12h-12v-12zM342 1399l27 6l-7 12zM993 840h15v16
h-15v-16zM1067 774h14v17h-14v-17zM1032 887h10v16h-10v-16zM946 1092h17v12h-17v-12zM1161 899q0 -13 -2.5 -84t0.5 -86l-18 -20q12 -15 12 -37q0 -16 -13.5 -64.5t-6.5 -72.5q-3 -17 -26.5 -83.5t-21.5 -109.5q-23 -17 -42.5 -73.5t-41.5 -78.5q-4 -4 -15 -13.5t-17 -16
t-11 -16.5t-4 -19q23 -37 86 -37q27 0 43 12t20 26t10 26t17 12q13 0 29 -21q-3 -52 -40 -97.5t-87 -59.5q-23 1 -49.5 2t-50 2t-45 14t-33.5 39q-159 -68 -256 -68q-65 0 -126 24.5t-107 61.5t-90.5 92.5t-75 104.5t-62.5 111q-2 4 -2 12q0 9 6 28t6 29q0 24 -26 31
l-58 279q-3 12 -3 28.5t1.5 36.5t1.5 29q0 163 23 239q3 11 12.5 30.5t12.5 27.5q4 14 11.5 48.5t14.5 53.5q41 120 119 207.5t190 128.5q65 22 146 22q123 0 237 -58.5t164 -162.5q24 -8 39 -65q28 -19 42 -52t22.5 -81t15.5 -68q2 -5 9 -20t11 -26.5t1 -18.5
q28 -50 28 -148z" />
    <glyph glyph-name="R" unicode="R" horiz-adv-x="1200" 
d="M227 61h13v17h-13v-17zM309 61h27h-27zM336 82l26 6v21zM268 160l13 55h-19zM424 43h16v14h-16v-14zM336 135h14v15h-14v-15zM455 20h26h-26zM471 47v6l-16 -18h8q8 8 8 12zM362 162h15v14h-15v-14zM489 43h15v14h-15v-14zM309 238h15v12h-15v-12zM424 201h16v14h-16v-14
zM354 346h27h-27zM328 383l8 8q-6 12 -21 12zM236 520h14v15h-14v-15zM381 391h16v17h-16v-17zM244 625h12v12h-12v-12zM352 725h15v12h-15v-12zM1016 72l26 4zM410 713h10v16h-10v-16zM952 180h13v13h-13v-13zM1063 121h14v12h-14v-12zM326 870h14v17h-14v-17zM963 266h10
v17h-10v-17zM397 831h17v17h-17v-17zM1063 221h14v15h-14v-15zM922 375h14v12h-14v-12zM858 457h14v14h-14v-14zM1034 332h13v14h-13v-14zM977 440h12v13h-12v-13zM412 1014h12v12h-12v-12zM270 1155h13v14h-13v-14zM934 541h14v14h-14v-14zM260 1217l16 34v13h-14z
M410 1094h10v10h-10v-10zM74 1532h14v12h-14v-12zM369 1294h12v15h-12v-15zM350 1395h12v14h-12v-14zM840 1171q0 122 -56 244q-19 14 -39 32t-30 25t-33 13t-61 6q-30 0 -86 -6.5t-80 -7.5v-605q77 -20 178 -10q5 6 40.5 13t39.5 18l12 -19q9 12 42 43t44 54l-8 10
q37 90 37 190zM231 1579h15v14h-15v-14zM287 1538h12v14h-12v-14zM924 981h10v12h-10v-12zM911 1028h15v10h-15v-10zM950 1001h15v11h-15v-11zM877 1108h12v16h-12v-16zM903 1081h17v17h-17v-17zM508 1542h16v14h-16v-14zM903 1165h17v13h-17v-13zM858 1231h14v12h-14v-12z
M594 1534h10v12h-10v-12zM911 1239h15v14h-15v-14zM1061 1120h12v10h-12v-10zM1040 1186h13v12h-13v-12zM727 1507l18 15l-26 -6zM819 1460h15v13h-15v-13zM930 1350h16v12h-16v-12zM924 1384h10v15h-10v-15zM1042 1278h15v10h-15v-10zM1049 1350h16v12h-16v-12zM1190 20
q-8 -33 -21 -36q-9 -1 -22 -5.5t-19 -5.5t-24 2q-14 10 -54 16.5t-53 28.5l4 15q0 3 -14 7.5t-31 11t-22 14.5l27 18q-3 5 -7.5 6.5t-13.5 0.5t-10 -1l-37 21q-34 59 -59 133q2 6 2 18t-6.5 32t-6.5 30q0 11 7.5 31t13.5 28q-17 11 -26 28t-11 32t-4.5 44t-5.5 48q-2 9 0 29
t0 30q-2 11 -11.5 37.5t-11.5 34.5q-3 7 -12 11.5t-17 2.5l13 8q-13 8 -21 17.5t-10.5 14.5t-14 9t-34.5 4q-5 0 -20 15.5t-25 15.5q-11 0 -18.5 -6t-12.5 -6q-12 0 -34 6t-33 6q-37 0 -46 -12h-45q4 -25 1 -184.5t-3 -184.5q0 -190 29 -324q8 -5 18.5 -7t18.5 -2t21.5 0.5
t19.5 0.5q28 0 39.5 -13.5t11.5 -43.5q-91 -14 -129 -14h-377q-2 16 11.5 21.5t13.5 10.5q0 3 -10 13q11 11 42 28.5t49.5 36.5t18.5 45q0 13 -8 39t-8 41q0 28 28 37q-18 14 -18 33q0 9 3 26.5t3 26.5q0 23 -4 37q-4 15 -4.5 35.5t1 48.5t1.5 37q0 46 10 104q-10 31 -10 67
t5 80t5 68q0 86 -18 137h8q-1 11 0.5 32t1.5 28q0 22 -10 49h8q-2 18 -2 53q0 30 3 89t3 89q0 126 -39 193q-24 10 -51.5 12.5t-41 3.5t-26 20.5t-18.5 63.5q13 5 30 7.5t26 3t33 0t28 -0.5q58 0 82 17l39 -27q20 10 53 10q26 0 73.5 -8t65.5 -10q14 8 68 8q10 0 28 -0.5
t32.5 -0.5t27.5 1q25 -10 63 -10q18 0 52 3t51 3q94 0 137 -61l-23 -29l43 23q137 -106 137 -304q0 -73 -18 -176q-11 -13 -30.5 -59t-43.5 -59l-16 8q-4 0 -4 -19q0 -11 -33.5 -38.5t-71.5 -49.5q-15 -8 -35.5 -13t-23.5 -7l39 -21l8 8q26 -5 44.5 -20t28 -31.5t27 -32.5
t39.5 -22q9 -11 17 -48.5t30 -53.5q0 -12 2 -23t7 -26.5t6 -20.5q12 -43 12 -129q0 -31 -8 -55q16 -33 21.5 -107t23.5 -108q13 -25 34.5 -43.5t35 -28t12.5 -17.5z" />
    <glyph glyph-name="S" unicode="S" horiz-adv-x="1118" 
d="M113 246l28 -2zM238 1014v10h-11v-10h11zM414 856v16h-17v-14zM977 324v10h-12v-10h12zM276 1047l3 16h-17v-14zM578 752v14h-11v-14h11zM676 676v14h-10v-14h10zM928 444v15h-17v-15h17zM870 526l2 15l-16 -21v-14zM942 455v12h-10v-12h10zM604 795l39 -23l-45 41l-20 8
zM1008 408v12h-13v-12h13zM928 489v17h-15l-2 -17h17zM811 600l27 -2zM1020 461v16h-16v-16h16zM174 1300l10 9l-10 12v-21zM944 547v12h-12v-12h12zM975 528v11h-17v-11h17zM831 657h27h-27zM340 1503v13h-12v-13h12zM723 1503v17h-14l-2 -15zM1067 418q0 -16 -7.5 -42
t-8.5 -38q0 -21 14 -29q-10 1 -14.5 -3.5t-4.5 -10t1.5 -15.5t1.5 -14q0 -11 -13 -2q-57 -132 -227 -248q-29 -7 -72 -22.5t-79.5 -25t-73.5 -9.5q-86 1 -175 31.5t-163 81.5l-8 -6q0 18 -13.5 36.5t-29.5 18.5q-4 0 -8.5 -2t-7.5 -4t-7 -6t-6 -5l-2 -8q0 -2 8 -10
q-15 -10 -17.5 -28.5t-0.5 -32.5t-15.5 -23.5t-60.5 -7.5q0 19 4 55q0 27 -10 57q36 31 41 46h-7q-8 0 -11 6t-2 13t-3.5 12.5t-15.5 4.5q4 -4 6 -4q4 0 7.5 14t7 31.5t7.5 22.5q-15 20 -47 20q8 23 10 47.5t1 57.5t0 47q0 4 4 14q-12 12 -19 8v27h8q4 8 4 12q0 7 -5 22.5
t-5 22.5q0 13 30.5 34.5t43.5 19.5q13 0 39 -21l-2 -6q0 -2 0.5 -11t0 -12t-3 -8t-7.5 -8q13 -12 13.5 -40.5t22.5 -47.5q-6 -9 -6 -20q0 -16 12 -48t11 -49q0 -6 17.5 -29.5t8.5 -33.5q10 0 12.5 -6t1 -12.5t2.5 -10t17 1.5v-6q-1 -19 16 -33.5t39 -28t29 -26.5h4
q22 0 66.5 -23t68.5 -26q66 -12 101 -12q42 0 71 11.5t48 43.5q9 16 29.5 20.5t38 3t31.5 11t15 43.5q10 2 15.5 5t8.5 7.5t4.5 8t3 12t3.5 14.5l-6 10q2 -2 4 -2q3 -1 7.5 11t9 27t6.5 19q-2 4 -2 13q0 11 6.5 29.5t7.5 27.5q0 15 -19 23l21 18q-24 34 -39 53t-41.5 41.5
t-56.5 34.5q-14 28 -37.5 47.5t-64.5 40.5t-54 29q-4 -2 -14 -2q-19 0 -51 20.5t-54 18.5q-146 57 -303 178h8q2 0 1 2t-2 5t1 5q-24 4 -30.5 47t-22.5 51h6q1 0 4 2l6 4t5 3q-10 12 -31 12q-27 155 -25 209q0 76 31 149l39 27q-4 8 -4 10q0 9 15.5 30t17.5 25q10 8 35 29.5
t38 31t34.5 23t43.5 19t47 6.5l8 29q44 -21 93 -21q34 -1 88.5 6.5t85.5 7.5q40 0 86 -8q-1 -18 12.5 -25t30 -8t29.5 -11t12 -32l53 -20q6 9 6 18q1 8 -1.5 21.5t-2.5 19.5q0 15 8 23q8 -1 18 -1t22 0.5t18 0.5q31 0 48.5 -11.5t16.5 -41.5v-11q-22 -37 -22 -67t18 -66
l-6 2q-4 0 -12 -8q18 -30 18 -78q0 -36 -14 -61q2 -11 10 -37.5t8 -40.5q0 -23 -16.5 -51.5t-36.5 -28.5q-5 0 -15 -0.5t-16.5 -1t-14.5 1.5t-14 6l13 29q-15 29 -19 68t-11.5 77t-33.5 72l2 10q0 11 -7 22.5t-13.5 18t-20 18t-16.5 13.5q-17 4 -60.5 32t-68.5 29
q-44 33 -88 35q-68 0 -189 -41q-19 -7 -35.5 -20.5t-29 -33.5t-21 -35.5t-20 -40.5t-16.5 -36q-5 -10 -5 -12q0 -8 5.5 -25t5.5 -26q-3 -20 -21 -29q6 -66 137 -151q3 -4 10 -16t12.5 -18t16.5 -13l6 12q4 -16 33 -25t33 -22q24 4 37 2q28 0 51 -10.5t51.5 -31.5t44.5 -30
h13q22 1 44.5 -9.5t50 -31t38.5 -26.5q94 -53 161 -181t64 -237z" />
    <glyph glyph-name="T" unicode="T" horiz-adv-x="1073" 
d="M426 178h14v12h-14v-12zM594 20h12v11h-12v-11zM563 184h17v13h-17v-13zM471 297h16v10h-16v-10zM584 211h14v16h-14v-16zM563 285h17v14h-17v-14zM492 434h14v17h-14v-17zM518 416h14v14h-14v-14zM465 520h14v10h-14v-10zM549 520h35h-35zM465 618h14v17h-14v-17z
M575 553h13v16h-13v-16zM76 1057h16v10h-16v-10zM528 692h13v15h-13v-15zM557 737h14v17h-14v-17zM457 1128h10v17h-10v-17zM162 1479h10v14h-10v-14zM436 1360h13v14h-13v-14zM532 1331h17v15h-17v-15zM553 1343h10v11h-10v-11zM618 1296h11v13h-11v-13zM532 1376h17v17
h-17v-17zM625 1350h16v16h-16v-16zM553 1434h10v12h-10v-12zM580 1415h14v12h-14v-12zM866 1479h17v26h-17v-26zM971 1444h10v12h-10v-12zM1042 1260q-10 -25 -10 -99q0 -17 2 -50t2 -50q0 -28 -15.5 -53t-41.5 -25q-23 0 -32.5 22t-13.5 54.5t-9 42.5l2 51q0 178 -68 279
q-84 47 -135 47q-23 0 -41 -9q-1 -39 -4.5 -112.5t-5.5 -133.5t-2 -114q0 -138 12 -229q-12 0 -12 -13q0 -5 2 -14t2 -14q0 -19 -19 -25q21 -18 21 -49q0 -15 -6 -43.5t-6 -42.5q0 -23 12 -41h4q2 0 14 -12v-17h-12q-4 -12 -4 -18q0 -31 24 -45q-9 0 -20.5 -13t-13.5 -14
q6 -18 6 -55q0 -23 -4 -73t-4 -73q0 -39 10 -61h-4q-1 0 -17 -8q6 -17 12 -48.5t16 -55t34 -46.5l26 -26h109q12 -5 17.5 -14t6.5 -16t1.5 -21.5t1.5 -22.5q-25 -1 -76.5 -9.5t-79.5 -8.5q-31 0 -55 8q0 -1 -4.5 -9t-8.5 -13t-8 -5q-1 0 -13 9.5t-32 9.5q-10 0 -31.5 1
t-31.5 1q-33 0 -94 1.5t-110 1.5t-93 -3l12 10q-3 13 -23 16.5t-20 14.5q0 10 2.5 18.5t8.5 14t10.5 10t15 7t15.5 4.5t18 2.5t17 0.5h17.5h14.5q31 0 47 13t22 44q11 0 17.5 4.5t8.5 13t2.5 15.5t-0.5 19t-1 16v5.5t0.5 4.5t1 3.5t1.5 3t1.5 2.5t2.5 2.5t3 2.5l3.5 3.5
t4.5 3.5q-16 24 -16 61q0 14 3.5 38.5l4.5 31.5h6q2 0 4.5 1.5t6 3.5t4.5 3q-12 3 -22.5 16.5t-10.5 26.5q0 3 4 29.5t-2 31.5l10 11l-18 16l8 12l-27 19l11 -13q22 50 26 56q-11 2 -16.5 14t-5 24t2 30.5t1.5 23.5q0 62 -5 190.5t-5 192.5q0 69 1 207t1 206q-15 21 -48 21
q-46 0 -109 -36.5t-85 -76.5l2 -8q0 -12 -7 -36t-7 -38q0 -11 6 -20q-10 -3 -15 -11t-5.5 -14.5t0.5 -20.5t1 -18q0 -17 -8 -28q-4 -10 -4 -29q0 -15 3 -42t3 -42q0 -31 -15.5 -52.5t-45.5 -21.5q-10 0 -16 6.5t-10 17.5t-7 15v62q0 27 -12 39q9 4 13 11.5t3.5 14.5t-2.5 18
t-2 17q0 14 6 23v342q66 8 96 8q39 0 70 -8q4 5 13 7t16.5 2t19 -0.5t15.5 -0.5q36 0 47 18q71 -18 170 -18q32 0 95 3t95 3q40 0 118 -1t118 -1q57 0 94 -12q-5 -20 -1 -39.5t-1.5 -40.5t-24.5 -31q8 -4 13.5 -10t8.5 -10.5t4 -13t1.5 -12.5t0 -15t-0.5 -15q0 -38 20 -55
l-12 -8q16 0 16 -10q0 -5 -4 -14.5t-4 -14.5q0 -4 10 -14z" />
    <glyph glyph-name="U" unicode="U" 
d="M424 168h14v14h-14v-14zM350 324h12v12h-12v-12zM358 379h15v14h-15v-14zM285 463h12v10h-12v-10zM313 442h15v13h-15v-13zM379 569h14v15h-14v-15zM270 903h11v10h-11v-10zM381 801h12v12h-12v-12zM305 911h14v15h-14v-15zM350 928h17v12h-17v-12zM362 991h13v15h-13
v-15zM1008 362h12v13h-12v-13zM389 1049h17v12h-17v-12zM297 1188h14v12h-14v-12zM981 629h16v16h-16v-16zM1016 883h16v12h-16v-12zM1094 1532h16v12h-16v-12zM1208 1546q0 -8 -13 -26.5t-15 -26.5q-77 -2 -105 -111l19 -67l-7 2l-12 -8q12 -43 12 -90q0 -51 -12 -97
q21 -18 21 -43q0 -13 -5.5 -40t-5.5 -40q0 -23 2.5 -71t2.5 -72q0 -39 -2.5 -174t-0.5 -209h-12q-7 -39 -12 -101t-10.5 -103.5t-19 -90.5t-44.5 -89.5t-80 -72.5q-37 -24 -104 -34.5t-127 -10.5q-107 0 -242 27q-3 13 -17 20.5t-28 10t-25.5 10.5t-11.5 22q0 13 8 29
q-3 2 -19 19.5t-28 19.5l-18 -18q-31 17 -45 49.5t-23.5 73t-23.5 61.5q18 18 18 39q0 14 -9 41t-9 41h6q8 21 8 51q0 34 -14.5 99.5t-14.5 99.5q0 38 21 79q-18 41 -18 86q0 22 5 64.5t5 62.5q0 47 -19 78l21 21l-8 370l-47 29q8 -2 16 10q-12 37 -47 37q-8 0 -23.5 -1
t-23.5 -1v-14l2 6q0 13 -16.5 25.5t-16.5 21.5t4 21l27 26h530q21 -9 21 -33q0 -10 -9 -32q-17 -16 -48 -22.5t-56.5 -8.5t-49.5 -19t-32 -51q-4 -16 -4 -38t2 -49t2 -38q0 -65 1.5 -105.5t12.5 -102.5t33 -97q-41 -14 -41 -37q0 -5 4 -31.5t-2 -31.5q13 -18 13 -53
q0 -20 -7.5 -56t-7.5 -55q0 -25 2 -72t2 -71q0 -117 -41 -156q60 -34 60 -90q0 -25 -9 -35t-19.5 -9t-17 -4t-1.5 -22h-9q-4 1 -7.5 -2.5t-7 -9t-5.5 -6.5h12q34 2 61 -18.5t44.5 -51t34 -61.5t41 -52.5t55.5 -21.5q48 0 80.5 1.5t78.5 9t78 21.5t62.5 41.5t46.5 65.5
q-4 8 -4 31q0 19 6 59.5t6 61.5q0 14 -7 37t-7 35q0 17 12 50t12 52q0 23 -18 45l26 27q-1 5 -2.5 7.5t-5.5 3.5t-6.5 1.5t-7.5 0t-6 -0.5h-6q5 6 6.5 14t0.5 21.5t-1 15.5l2 10h6q12 77 12 148q0 45 -3.5 92.5t-12 116.5t-10.5 92l6 -2q2 0 4 3t3 6l1 3q-8 14 -9.5 29
t1 36.5t2.5 30.5q0 12 -6 35t-6 35q0 16 3 49t3 49q0 78 -49 109q-7 1 -20 -0.5t-17 -1.5q-21 0 -29 16q-12 12 -12 29q0 21 20 49q30 -4 62.5 -4.5t74.5 1t62 1.5q15 0 34 -1t47.5 -3.5t47 -9.5t18.5 -17z" />
    <glyph glyph-name="V" unicode="V" horiz-adv-x="1150" 
d="M586 31h14h-14zM631 111h12v16h-12v-16zM436 506h17v16h-17v-16zM647 334h15v12h-15v-12zM475 526h14v15h-14v-15zM449 590h10v12h-10v-12zM512 563h12v12h-12v-12zM731 387h17v16h-17v-16zM723 408h16l-8 6zM547 682h16v12h-16v-12zM422 848h10v14h-10v-14zM494 821h12
v10h-12v-10zM309 1030h13v17h-13v-17zM559 809h12v14h-12v-14zM383 993h14v15h-14v-15zM356 1069h11v12h-11v-12zM291 1149h26h-26zM238 1214l14 -6l-6 6h-8zM428 1024h21h-21zM356 1149h11v16h-11v-16zM356 1188h11v12h-11v-12zM291 1262h18h-18zM422 1214h10v17h-10v-17z
M197 1473h16v16h-16v-16zM252 1417l12 29l-18 -21zM197 1503l28 -20zM842 854h12v16h-12v-16zM831 874h15v15h-15v-15zM850 911h16v13h-16v-13zM264 1544h19h-19zM344 1536l31 -6l-13 6h-18zM868 1104h17v14h-17v-14zM823 1513h15v17h-15v-17zM942 1468h14v15h-14v-15z
M954 1495h11v14h-11v-14zM999 1532h13v16h-13v-16zM1047 1571h10v12h-10v-12zM1128 1563q4 -34 -28.5 -59t-65.5 -25q-4 -3 -8 0t-8 0q-7 0 -15 -3t-4 -8q-5 -3 1.5 -8.5t13 -10.5t2.5 -7l-47 -29q-5 -3 0 -8t13 -12t7 -13q2 -3 1.5 -7.5t-3.5 -4.5h-6q-32 0 -40.5 -36.5
t-3 -80.5t-3.5 -82h-29q-13 0 -16 -8l45 -18q-15 -36 -27.5 -102.5t-28.5 -123t-47 -90.5q11 -29 11 -53v-65q-23 -9 -23 -27q0 -6 4 -20t4 -21q0 -4 -4 -16h-6l-12 -9q2 -8 2 -28q0 -38 -18.5 -113.5t-18.5 -114.5q0 -57 -27.5 -136.5t-53 -148t-23.5 -102.5q-10 -2 -35 -2
q-46 0 -78.5 18.5t-32.5 61.5q0 7 2 21.5t2 21.5q0 28 -20.5 81t-20.5 91q0 19 -28.5 56t-28.5 59q0 14 10 27q-22 49 -46.5 154t-45.5 155q0 41 -28 122.5t-25 127.5q-27 60 -63 220.5t-76 231.5q-55 87 -119 92q-13 8 -13 45l17 17q47 5 100 6.5t91 0.5t99.5 -2.5
t96.5 -2.5h51q6 -54 6 -57q0 -14 -20.5 -28t-35 -29.5t-3.5 -35.5l-21 -18q17 -17 22.5 -89t31.5 -95q16 -35 37 -109t36 -110q-2 -10 -2 -31q0 -43 35.5 -124.5t32.5 -139.5q25 -48 45.5 -111.5t19.5 -105.5q3 -8 8.5 -10.5t11.5 -1.5t13 -1q21 50 41.5 159.5t44.5 162.5
h13q11 0 14 8l-27 18q9 26 15.5 78t11.5 72q11 16 15.5 55t10.5 53q3 9 13.5 27.5t13.5 26.5q44 115 41 260q0 5 4 23.5t3 29.5t-9 16q-1 12 -14.5 17.5t-29 6t-27.5 5.5t-11 16q-11 6 -8 32t16 26l303 8q3 0 4 -6.5t-2 -9.5z" />
    <glyph glyph-name="W" unicode="W" horiz-adv-x="1187" 
d="M1167 1556q0 13 -10 23q-33 8 -74 8q-27 0 -78.5 -6t-76.5 -6q-19 0 -47 4q-15 -19 -15 -37q0 -15 14 -27t30 -20t30 -24.5t14 -38.5q0 -9 -2 -11q-16 -75 -23 -160t-11.5 -186.5t-10.5 -161.5q-13 -21 -20.5 -77t-32.5 -80q-27 39 -27 78q0 20 7 45q-21 118 -55 354
t-56 354q-11 -14 -23 -14q-8 0 -25.5 6.5t-25.5 7.5q-30 -76 -44 -165.5t-22.5 -218t-13.5 -171.5l33 -8q-33 -13 -47.5 -39.5t-14 -54t-6 -61.5t-24.5 -56q-17 15 -27 52.5t-17 94t-9 64.5q-4 21 -25.5 77t-21.5 87q0 25 8 41l-27 18q4 17 0.5 23.5t-9 6t-11 3t-6.5 14.5
q9 9 10 9h8q-5 7 -0.5 41t4.5 40q0 24 -14 35l12 8h6q-4 23 9.5 37.5t40 27.5t34.5 19l-10 66q-60 8 -135 8q-40 0 -131.5 -4.5t-139.5 -3.5h-36q-3 -6 -3 -16q0 -23 15 -37t34 -19t38 -18t26 -33q36 -105 61 -304t39 -263q32 -151 37 -219q1 -9 3 -80.5t8 -106.5
q22 -137 65 -219q-6 -6 -6 -22q0 -15 9 -41t9 -39q0 -11 -6 -17q16 -23 18.5 -79t20.5 -78q7 -3 21 -10t24.5 -10t22.5 -3q53 0 53 76q0 3 -0.5 20.5t0 24.5t3 19t7.5 22q8 13 8 29q0 3 -0.5 19t0 21.5t5 15t14.5 15.5q0 104 24.5 297.5t28.5 278.5l29 30q6 2 10.5 -1
t8.5 -9t7 -8q20 -75 35.5 -233t38.5 -238q23 -23 23 -63q0 -22 -7.5 -68t-7.5 -70t3.5 -51.5t10.5 -65t9 -51.5h102q5 38 36.5 191.5t31.5 218.5q0 11 -2 33t-2 33q0 40 14 61q6 49 18 178t23 199q10 61 15.5 150t8 155.5t19 148t47.5 146.5q12 -1 27.5 12.5t23.5 13.5
q7 0 15 -8q28 33 28 51zM1108 1579h-16v14h16v-14zM1061 1540h-14v16h14v-16zM1016 1505h-17v13h17v-13zM895 1526h-14v10h14v-10zM991 1368l-10 -12zM997 1319h-16v16h16v-16zM733 1329q-3 3 -11.5 5t-16 3.5t-7.5 3.5l4 7h31v-19zM666 1348h-17v16h17v-16zM975 1049
q0 -11 -12 -19l-7 19h19zM365 1538l-13 -6l-14 14h8h4q10 0 15 -8zM733 1116h-18v8q0 21 14 21h2h2v-29zM618 1229h-16v12h16v-12zM281 1559h-21q2 1 7.5 4.5t8.5 3.5l5 -2v-6zM680 1063h-12v12h12v-12zM698 1024h-10v16h10v-16zM772 940h-10v14h10v-14zM207 1501h-19l11 10
zM252 1466l-6 -28l-13 8zM203 1473h-15v16h15v-16zM653 1018h-12v10h12v-10zM395 1217h-12v16h12v-16zM188 1393h-8v8zM281 1270q0 -6 -9 -15v19h9v-4zM631 924q-16 -21 -29 -21q-1 0 -3 1t-3 1q10 19 35 19zM322 1190h-15v16h15v-16zM641 858l-18 8h8zM315 1145h-16v14h16
v-14zM793 664h-13v14h13v-14zM215 1208l-16 21h16v-21zM281 1145l-9 -8l-20 18h6q18 0 23 -10zM569 840h-20h20zM315 1063h-16v12h16v-12zM408 932h-17v16h17v-16zM326 979h-9v18h9v-18zM422 801h-10v16h10v-16zM827 422q0 -6 -3 -11.5t-8.5 -11.5t-8.5 -10q-16 0 -19 12
q3 2 14 14.5t23 12.5zM469 647h-12v12h12v-12zM395 510h-12v14h12v-14zM414 494h-15v12h15v-12zM360 520h-14v12h14v-12zM377 287h-12v16h12v-16zM479 104h-14v17h14v-17zM387 190h-12v17h12v-17zM430 20l-12 -8v21z" />
    <glyph glyph-name="X" unicode="X" horiz-adv-x="1144" 
d="M225 188h13v13h-13v-13zM850 55h14v17h-14v-17zM401 524h13v11h-13v-11zM741 207h17v14h-17v-14zM934 23h10v10h-10v-10zM723 260h14v16h-14v-16zM463 651h16v17h-16v-17zM827 307h11v15h-11v-15zM694 561h15v14h-15v-14zM596 756h14v12h-14v-12zM694 682h13v12h-13v-12z
M463 938h16v14h-16v-14zM309 1188h10v16h-10v-16zM197 1438l45 -74l-29 90h-16v-16zM471 1212h12v13h-12v-13zM356 1466h17v13h-17v-13zM911 1442h13v12h-13v-12zM971 1479h14v14h-14v-14zM1124 1540v-8q0 -19 -29.5 -40.5t-35.5 -31.5q-8 4 -12 4q-8 0 -19 -4.5t-23 -13
t-21 -15t-22 -17t-16 -13.5q-15 -35 -49.5 -98t-46.5 -86q-7 -14 -17.5 -41.5t-17.5 -40.5q-3 -7 -18 -21t-17 -27l8 -10l-34 -47l8 -8q-25 -16 -41 -41t-31 -64.5t-22 -52.5q32 -59 81.5 -177.5t57.5 -135.5q10 -22 54.5 -142t84.5 -176q4 -57 55 -139q12 -19 42 -34
t52.5 -30t22.5 -38q0 -13 -6 -25h-389q-5 2 -15 4.5t-14.5 4.5t-13 6t-10 8t-4.5 12.5t2 17.5l-9 9l95 47q-19 13 -19 33q0 10 5 29.5t5 29.5q0 19 -12 31h-26q2 4 2 16q0 23 -34.5 70t-25.5 80q-25 27 -46.5 64t-44.5 85.5t-36 71.5q-15 -3 -29.5 -17.5t-17.5 -29.5l8 -9
q-12 -20 -40 -65t-43 -71t-34 -66t-30 -76q-33 -36 -61 -87t-25 -87v-10q21 -7 30 -10.5t20 -11.5t13.5 -20.5t1.5 -31.5q-71 -12 -147 -12q-83 0 -137 12q12 23 42.5 44t56.5 34.5t43.5 41.5t10.5 66q12 -1 17 6t5.5 11.5t0.5 17.5q0 23 8 31l-10 6q29 7 44.5 33t29 59
t30.5 47q49 110 174 326q-20 32 -52 107.5t-60 113.5v8q2 20 -19 53t-16 52q-31 25 -49.5 84.5t-36.5 81.5v6q1 17 -17.5 53t-17.5 51q-16 17 -43 63.5t-55.5 72.5t-71.5 24q-2 6 -13.5 24.5t-11.5 28.5q0 12 37 31h418q29 -25 29 -49q0 -26 -18 -35.5t-42.5 -16.5
t-33.5 -22q0 -16 14 -44.5t14 -41.5t-10 -23v-16q0 -32 21 -41q1 4 5 6t11.5 3t9.5 1q16 -31 47 -107.5t53 -115.5q11 -7 25 -37.5t29 -36.5q12 22 31 67.5t37.5 79t43.5 58.5q25 0 25 14q0 5 -3 15t-3 16q0 12 8 17q9 20 33 54.5t40.5 65t16.5 56.5q0 23 -12 41
q-6 -2 -19 -2q-22 0 -36.5 14.5t-14.5 36.5q0 21 19 27.5t47 7.5t39 8q24 -6 51 -6q16 0 49 3t51 3q56 0 92 -31z" />
    <glyph glyph-name="Y" unicode="Y" horiz-adv-x="1230" 
d="M1210 1585q-42 3 -104.5 3t-139.5 -1.5t-108 -1.5q-11 0 -19 -5t-11 -9t-8.5 -16.5t-6.5 -14.5q12 8 23 8q16 0 22 -16l-35 -19q48 -4 65.5 -9.5t18.5 -11t3 -23.5t14 -37l-146 -414q-20 -13 -20 -37q0 -16 -5 -27.5t-10.5 -16t-10.5 -9t-5 -8.5q0 -7 12 -7
q-3 -2 -9.5 -10.5t-10.5 -7.5h-6q4 -6 4 -18q0 -15 -12 -41.5t-13 -40.5q-37 55 -75.5 173t-69.5 169q-39 63 -111 219q-10 7 -10 20q0 6 4 19t4 20q0 17 -24 17l18 16l-10 10q9 22 30.5 37t45.5 18q-7 9 -8.5 26.5t-7 27.5t-25.5 10q-26 0 -77 2t-93 2t-78 -4
q-25 14 -47 14q-13 0 -36.5 -12t-43.5 -12q-13 0 -29 4q-29 -15 -29 -35t11.5 -27.5t29.5 -9t25 -6.5q51 -37 90.5 -99t60.5 -120.5t50.5 -134t56.5 -121.5q8 -55 50 -144t52 -124q17 -10 17 -25q0 -5 -2.5 -19t1.5 -19t19 -11q-8 -12 -18 -12q7 0 17.5 -5.5t25.5 -16.5
l14 -11l-39 -29q25 -4 39 -18q-1 -1 -7 -6.5t-11 -6.5v15q-13 -10 -13 -27q0 -16 11.5 -42t11.5 -40q0 -13 -11.5 -30t-11.5 -35q0 -26 19 -45l-14 -9q1 -2 10.5 -6.5t9.5 -11.5t-6 -10l4 -8q0 -5 -5 -15.5t-5 -15.5q0 -13 18 -17q-15 -27 -27 -82.5t-18 -72.5
q-14 3 -23 -5.5t-15 -19t-13 -10.5q-6 0 -14 8l8 -12q-36 -10 -82 -27l8 -8q-1 0 -7.5 -3t-10 -5t-9.5 -6t-9.5 -7t-6 -7.5t-2.5 -8.5t1.5 -8t5 -8.5t6.5 -7t7.5 -7l6.5 -6.5l229 17q3 0 21 -10.5t26 -10.5q6 0 10 4q24 4 35 4q46 0 66 -22q36 18 69 18q16 0 48.5 -7
t50.5 -7q39 0 57 9.5t18.5 22t5.5 29.5t19 27l-12 -12q-20 49 -78 49q-9 0 -34.5 -1.5t-38 -1t-30.5 8t-30 23.5q2 4 1 11.5t-4 19t-3 14.5q0 16 14 26q-8 6 -16 17q1 5 6.5 11.5t5.5 10.5q0 9 -23 17l13 10l-7 14q0 6 6.5 18t6.5 17q0 12 -19 12q-2 2 -2 4q0 7 7 23t12 16
q2 0 2 -4q-10 65 -10 117q0 54 10 119q14 18 14 34q0 6 -3 17.5t-3 17.5q0 15 12 31l-12 10l18 17q67 283 258 782q15 6 60.5 17t70 27t37.5 48zM1112 1563h-18q8 8 14 8h4v-8zM1055 1550h-21h21zM997 1513h-16h16zM920 1518h-15v12h15v-12zM956 1440l-10 18h10v-18z
M371 1550h-27h27zM279 1559h-15h15zM451 1321h-15v12h15v-12zM156 1577h-15v16h15v-16zM279 1448h-9v18h9v-18zM477 1247h-14v13h14v-13zM225 1505h-26h26zM106 1548h-14v13h14v-13zM221 1395h-16v14h16v-14zM221 1374h-16v17h16v-17zM510 1040q0 -6 -8 -14l-8 18h14z
M291 1229h-21v18q5 0 12 -4.5t9 -5.5v-8zM362 1155h-18v16h18v-16zM551 961h-12v14h12v-14zM651 813h-12v12h12v-12zM455 997l-9 21h9v-21zM604 834h-10v10h10v-10zM629 657h-56l27 27zM551 430h-10v14h10v-14zM610 303h-14v14h14v-14zM563 211h-16v14h16v-14zM459 41h-15
v12h15v-12z" />
    <glyph glyph-name="Z" unicode="Z" horiz-adv-x="1077" 
d="M70 25h12v16h-12v-16zM233 47h11v10h-11v-10zM340 27h16v16h-16v-16zM379 18h16v13h-16v-13zM260 240h12v14h-12v-14zM340 193h16v16h-16v-16zM340 211h16v16h-16v-16zM584 31h16v12h-16v-12zM340 305h16v14h-16v-14zM287 389h16v12h-16v-12zM702 37h11q-9 2 -88 8h2
q11 1 16.5 -9t7.5 -24v6q-6 6 3 9.5t18 3.5q12 0 12 -2l-2 -2q0 15 20 10zM334 397h39h-39zM313 442h17v17h-17v-17zM326 489l14 -20zM418 403h12v17h-12v-17zM453 498l-19 30l-8 -20q23 0 27 -10zM969 35h14v14h-14v-14zM479 543h17v16h-17v-16zM479 569h17v17h-17v-17z
M526 641h15v16h-15v-16zM526 700h31h-31zM492 754h10v14h-10v-14zM920 346h16v14h-16v-14zM954 377h13v16h-13v-16zM537 807h12v16h-12v-16zM584 799h12v16h-12v-16zM500 895h14v4h-14v-4zM557 827h45h-45zM102 1346h17v12h-17v-12zM125 1382h16v13h-16v-13zM645 895h17v4
h-17v-4zM571 1065h17v14h-17v-14zM121 1526h12v16h-12v-16zM602 1049h12v12h-12v-12zM244 1454h16v12h-16v-12zM711 1024l34 41v14h-16zM305 1503h17v17h-17v-17zM676 1141h12v12h-12v-12zM768 1075h12v12h-12v-12zM776 1110l27 -8zM815 1128h10v17h-10v-17zM795 1157h12v14
h-12v-14zM539 1538h16v12h-16v-12zM829 1268h17v16h-17v-16zM784 1434h19h-19zM692 1546h15v15h-15v-15zM737 1546h17v15h-17v-15zM842 1518h12v16h-12v-16zM887 1481h28h-28zM922 1446h16v10h-16v-10zM1036 385q0 -1 -1 -3.5t-1 -4.5q-20 -31 -20 -96q0 -63 20 -97h-8
l-18 -196q-33 4 -99 4q-53 0 -160.5 -6t-162.5 -6q-79 0 -142 8q-10 30 -10 37q0 16 17.5 26t48.5 13t55.5 4t58.5 -0.5t37 -1.5q36 0 62 3t55 13t49.5 31t32.5 53q8 22 30.5 64.5t32.5 76.5t2 70h5q2 0 14 12q-8 4 -12.5 10.5t-6 15.5t-1.5 16t0.5 18.5t0.5 15.5
q0 27 -8 43q23 20 64 20q52 0 55 -39q-18 -7 -18 -22q0 -13 14 -41t14 -41zM1044 1530l3 -12q-45 -80 -140 -299t-170 -328l13 8q-24 -31 -45.5 -68t-48 -89.5t-38.5 -73.5q-4 -7 -16.5 -43t-27.5 -54t-39 -16h-9q2 -6 6 -8.5t7 -2.5t9.5 0.5t8.5 0.5l8 -2
q-15 -21 -53.5 -87.5t-67.5 -97.5l9 -8q-8 4 -13 4q-10 0 -20.5 -15t-20.5 -15q13 -13 13 -25q0 -13 -17 -41t-16 -47l-39 -45q0 -2 -1 -9t-1.5 -10l-1.5 -9t-2.5 -9.5t-3 -8.5t-4 -8.5t-5 -7.5t-6.5 -7t-8 -5q15 -10 49.5 -9t49.5 -9q2 -6 8.5 -23t9.5 -29t2 -24v-10
q-39 -8 -90 -8q-30 0 -92 6t-92 6q-54 0 -103 -19q-18 5 -18 17q0 3 3 10.5t4 11.5t-1 6l12 9q-6 9 -6 20q0 17 12 44t31.5 59.5t24.5 42.5q17 35 60.5 135t70.5 153q23 5 27 33t9.5 57t34.5 37v8q0 18 12 39t30 44t24 34q13 24 65.5 137t92.5 166l-11 13q45 58 128.5 201.5
t95.5 195.5l34 27q-8 5 -18 7t-17 2t-19.5 -0.5t-18.5 -0.5q-41 0 -54 18l7 74l335 10v8q12 1 20.5 -1t13 -4t7 -10t3 -11.5t1 -16.5t0.5 -18zM631 1573v-8q0 -70 -90 -70q-20 0 -61.5 4t-63.5 4q-192 0 -230 -315q-10 0 -18 -12q8 -3 12.5 -8.5t5.5 -13.5t1 -15t-0.5 -17.5
t-0.5 -15.5q0 -23 9 -41q-15 -10 -39 -10q-9 0 -27 1t-27 1q-7 3 -12 7.5t-8 10.5t-5 11t-2.5 13.5t-0.5 12.5v14v13q0 34 -11 49q23 29 23 94q0 64 -23 98h13l18 193l324 10v8q28 -14 65 -14q15 0 43 3t43 3q29 0 62 -10z" />
    <glyph glyph-name="bracketleft" unicode="[" horiz-adv-x="550" 
d="M250 -94h10l-4 14h-6v-14zM494 -152v13l-11 2v-15h11zM264 324v14h-8v-14h8zM170 575h10v11h-10v-11zM201 584h12v12h-12v-12zM211 1294h8v11h-8v-11zM530 -156v-4q0 -5 -9 -13t-9 -13q0 -1 10 -11q-1 0 -3.5 1t-4.5 1q-8 0 -18 -8.5t-13 -9.5q0 3 -4.5 8t-5.5 8h-4
q-2 0 -12 -10v-16q-11 9 -28.5 11t-44 -0.5t-32.5 -2.5q-10 0 -16 2q-8 16 -19 16q-7 0 -20.5 -8.5t-20.5 -7.5h-4q-11 2 -50.5 3t-69 3.5t-55 16.5t-25.5 40q0 12 8 31t8 31q0 17 -16 29q1 9 -0.5 25.5t-1.5 21.5q0 31 18 49q-18 21 -18 59v324q0 125 18 188l-16 27
q14 5 14 27q0 9 -7 46t-1 54q-2 16 -2 53q0 8 1 24.5t1 24.5q1 21 -8 65.5t-9 63.5q0 35 17 58q-15 7 -15 22q0 7 5.5 23t5.5 20q-4 24 -4 35q0 31 10.5 106t7.5 117q4 25 23 25q6 0 17.5 -4t18.5 -4q14 0 21 14q3 0 8 1t8 1q14 0 42 -5t42 -5q24 0 37 8q22 -16 51 -16
q27 0 43 26l123 -16q0 -7 -9 -16.5t-9 -14.5q0 -2 8 -10q-5 -6 -20 -11t-19 -12l-16 17q-8 -5 -8 -27l-17 16q-20 -10 -39 -10q-13 0 -39 6t-39 6q-34 0 -53 -32q-1 -33 0.5 -94t1.5 -80q0 -89 -16 -140q10 -29 10 -75q0 -26 -5 -75t-5 -73q0 -29 13 -69.5t13 -55.5
q0 -17 -10 -50t-10 -50q0 -26 18 -51q-14 -16 -14 -95q0 -10 3.5 -31.5t2.5 -33.5h6v-14h-6q-2 -20 -26 -103q2 -1 7.5 -5.5t10.5 -4.5q-8 -24 -8 -57l1 -43q1 -43 -1 -43l14 -17h-6q0 -13 -1 -40t-1 -40q0 -35 2 -51h4v-14q4 -23 12 -39q19 -9 55.5 -19t47.5 -14
q20 33 61 33q19 0 47 -4h11l2 -2z" />
    <glyph glyph-name="backslash" unicode="\" horiz-adv-x="638" 
d="M618 -51q0 -26 -24 -29q-3 0 -21 6q-1 1 -3 2t-3 2h-4l-2 -4q-10 -2 -14 -2q-2 -2 -6 -2q-13 0 -27 11t-20 26q-8 13 -11 23q-3 8 -8 16q-6 31 -37 117q-38 100 -45 125q10 15 10 20q0 8 -8 19q-2 2 0 -1q1 -4 -2 0q-3 5 -16 23l14 12h17l-13 9h2q-7 6 -10 6l-4 -9h-8
q-3 14 -13 33q-1 4 -4 13.5t-4 13.5q-1 7 -3 22.5t-3 22.5q-6 50 -31 88l5 10q0 2 -1.5 5t-4 7t-3.5 5q-14 23 -14 39q0 8 2 12q-18 21 -18 63q-17 14 -17 35q0 13 4 29q2 4 2 16q0 7 -20 15l-2 22v6q-2 2 -8 19v10q0 1 -15 16l6 8q-14 14 -14 41q0 20 6 35q-12 16 -20 56
q-7 32 -37 53l12 18q-59 243 -76 268q2 8 2 11v10q0 11 5 18q-66 135 -91 279q18 1 52 8q24 4 37 4q44 0 59 -47q3 -7 8 -33q0 -21 4 -37h2q31 -96 47 -192q9 -6 15 -12q0 -1 1 -3t1 -3l6 -3q1 -5 2 -9.5t1.5 -6.5t0.5 -4q0 -10 -4 -18q0 -1 -1 -3.5t-1 -3.5q1 0 2.5 -0.5
l4.5 -1.5t5 -2q1 -5 3.5 -30.5t4.5 -42.5q4 -48 9 -62q12 -38 28 -59q0 -13 6 -22.5t29 -28.5l-29 -7q0 -1 1 -2.5t1 -3.5q0 -6 2 -8q15 -30 29 -72q8 -33 31 -69q0 -8 -1 -16.5t-1 -10.5q0 -31 22 -92q21 -71 23 -98q24 -24 24 -52q0 -10 -4 -22q0 -2 4 -10q29 -48 25 -74
l4 -4q10 -10 10 -35q23 -31 23 -96q8 -6 12 -23v-10q0 -5 4.5 -7.5t24.5 -8.5l-19 -23q29 -25 29 -72q1 -6 1 -19t1 -19q4 -25 14 -39l-8 -7q53 -108 53 -157z" />
    <glyph glyph-name="bracketright" unicode="]" horiz-adv-x="600" 
d="M457 362h12v15h-12v-15zM457 815h16h-16zM457 922h12v10h-12v-10zM158 1362h14v10h-14v-10zM303 1374h12v15h-12v-15zM539 958q0 -42 -27 -79q5 -12 25 -7q-2 -3 -9.5 -9.5t-7.5 -10.5v-4l17 -17l-5 3q-2 0 -6 -4t-6 -5q8 -16 8 -39q0 -18 -7 -72t-7 -71q0 -14 6 -29
q2 -7 2 -23.5t-1 -36t-1 -24.5q0 -33 10 -53q-3 -5 -10.5 -15.5t-12.5 -20t-5 -17.5q0 -1 9 -31.5t9 -50.5q0 -12 -1 -38t-1 -38q0 -9 -0.5 -38t0 -44.5t1.5 -39.5t3.5 -44t7.5 -37q-7 -2 -11 -5.5t-5.5 -9.5t-2 -9.5t0 -12t0.5 -10.5q0 -20 -8 -26q18 -18 18 -62
q0 -33 -10 -53l-8 -6q1 -1 5 -3t5.5 -3.5t3.5 -4t2 -5.5q0 -7 -7.5 -17.5t-8.5 -13.5q-31 -18 -91 -18.5t-83 -8.5q-46 17 -82 17q-26 0 -77 -8.5t-77 -8.5q0 21 -10 27q0 -17 -12 -17q-7 0 -22 12t-21 11l8 8q-17 17 -17 25v8q46 16 68 16q18 0 53 -10t54 -10q10 0 26 4
q13 4 38.5 3.5t43 6t27.5 29.5l-11 24l11 -2q10 0 10 7q0 4 -2 11t-2 11q0 6 6 12q-8 27 -8 66q0 25 4 75.5t4 77.5l4 -2q8 0 12 13q-18 10 -22 36.5t-1 50t-5 44.5q6 40 6 82q0 59 -17 80q1 6 5 29.5t6 33t8 26.5t14 31q-16 19 -16 50q0 16 5 66t5 65q0 43 -2 130.5
t-2 131.5l-12 16q0 97 12 158l-7 7q-7 7 -7 13l2 2q14 14 14 29q0 28 -25 43.5t-55 15.5q-22 0 -63 -7t-62 -7h-4q0 21 -10 25q-4 -13 -14 -13q-5 0 -19 7t-24 6q10 5 10 10t-8.5 13.5t-8.5 13.5v2q28 14 64 14q13 0 40 -4t40 -4q18 0 26 4q85 -4 138 6v-6q8 -8 16 -8
t20 6.5t17 7.5l18 -16q22 18 47 18q17 0 25 -8q20 -24 20 -45q0 -22 -20 -35v-12q0 -15 7 -45t7 -45q0 -14 -10 -40t-10 -42q0 -29 16.5 -89.5t16.5 -89.5z" />
    <glyph glyph-name="asciicircum" unicode="^" horiz-adv-x="2027" 
d="M766 1245h12v12h-12v-12zM967 1450h12v8h-12v-8zM1137 1450h10v8h-10v-8zM1618 940q-12 -18 -25 -18q-10 0 -27 22t-34 21q-18 13 -57 40.5t-61.5 44t-53.5 42t-55 49.5l-9 -6q-21 11 -42 33t-35.5 42t-36.5 38.5t-45 23.5v8q1 4 0 6t-5 4t-5.5 2.5t-6.5 1.5
q-20 6 -53.5 32t-44.5 32q-18 -19 -78 -62t-82 -75q-27 -16 -85.5 -58t-92.5 -61q-9 -5 -39 -41.5t-53 -34.5l-10 2q-15 -11 -41.5 -41t-50.5 -47.5t-52 -17.5q-18 0 -26 2l-2 8q0 10 7.5 15t16.5 6.5t14.5 8t2.5 19.5l10 -6q18 27 79 86t81 104l8 -8q8 14 16.5 26.5
t21 25.5t19 19.5t23.5 23t22 20.5q21 20 32 40t25.5 35t51.5 35q9 5 17 36.5t30 37.5v17q27 16 71 16l9 6q0 -14 8 -14q5 0 13 4t13 4q10 0 15 -16q4 24 20 24q7 0 21 -4t22 -4q15 0 25 16q84 -76 169 -169.5t187.5 -214.5t157.5 -181z" />
    <glyph glyph-name="underscore" unicode="_" horiz-adv-x="1089" 
d="M1090 -326q-17 -21 -17 -34q0 -10 7 -26t7 -22q0 -21 -40 -38l-9 8q-7 -9 -36.5 -14t-49.5 -5q-14 11 -37 11q-21 0 -60 -10.5t-60 -10.5q-15 0 -23 2q3 5 21 16.5t33.5 22.5t15.5 14l-2 2q-18 -13 -35 -18.5t-25.5 -6.5t-32.5 0t-34 1q-27 0 -43 -23q-44 11 -54 11
t-23 -6.5t-22 -6.5q-21 0 -59 17q-32 -8 -107.5 -11t-113.5 -16q-48 10 -88 10q-19 0 -55.5 -2t-55.5 -2q-12 0 -33 1t-32 1l2 15q1 26 -14 52t-15 40q0 10 10 45q8 2 25 2q50 0 162 -45q2 2 2 6q0 11 -21.5 28t-21.5 21t12 4q15 0 39 -4q12 12 29 12q11 0 38 -7.5t35 -6.5
l13 -10q-1 9 3.5 14t9 5.5t15 -0.5t12.5 -1q17 0 25 8q10 -6 34.5 -7.5t45.5 -2.5t35.5 -9t11.5 -26q25 5 71.5 11.5t71.5 11.5q77 14 97 14q33 0 49 -4q13 -16 31 -16q9 0 27.5 6t27.5 6q11 0 20 -6l15 18v-8q8 -4 28 -4q12 0 35 2t35 2q48 0 68 -31z" />
    <glyph glyph-name="grave" unicode="`" horiz-adv-x="915" 
d="M379 1526l22 2v16l-22 21v-39zM633 1321l39 -39q-17 -14 -45 -14q-7 0 -11 2v12q-8 1 -24.5 12t-24.5 11q-3 0 -8 -5q2 20 -15 25t-41.5 6t-33.5 10q-2 1 -22 13t-29 12l-15 -2q-27 32 -114 53q-33 7 -52.5 28t-37 60t-27.5 54q2 15 6 26.5t11.5 18.5t13 12t17.5 8
t18.5 4t23 3t23.5 3q9 -5 60.5 -19t64.5 -32q20 -8 34.5 -34t29.5 -57.5t32 -45.5l-8 -8l18 -19l8 6q2 -3 16.5 -13.5t14.5 -22.5q0 -5 -4 -9q23 -2 50 -25.5t44 -27.5z" />
    <glyph glyph-name="a" unicode="a" horiz-adv-x="915" 
d="M485 993l-32 11zM131 41l12 10v12l-12 -2v-20zM272 571h31l-16 13h-15v-13zM522 436q-15 19 -18 29.5t-3.5 22.5t-6.5 28l10 8q-14 19 -24 71.5t-27 70.5l4 10q0 6 -11 22h3v21l-11 2q3 12 -11.5 48.5t-23.5 49.5q1 -3 -3.5 -25t-4.5 -24q0 -13 -11 -38t-9 -44
q-9 -5 -11.5 -12t-1.5 -13t-3 -10t-17 -4q6 -30 6 -31q0 -16 -14.5 -45.5t-16.5 -37.5q7 -11 7 -21q0 -8 -5.5 -24t-5.5 -25q0 -1 1 -6t1 -6l-2 -4l15 -15l10 10q31 -10 80 -10q7 0 47 10q8 -8 57 -8zM580 467l20 35l-35 -2l4 -21zM481 690h29l-10 12h-13zM631 600l2 10h-29
q15 -10 27 -10zM553 682l10 10l-22 -4v-33zM608 696l8 35h-14v-20zM391 946l31 -2l-39 12zM547 815h22l-6 16l-12 -2zM432 961l-4 26q-14 10 -11 0q5 -14 15 -26zM455 1004v-21v21zM496 967q-11 2 -10.5 22.5t-12.5 20.5l-18 -27q13 2 21.5 -8t19.5 -8zM496 1081h28v31h-28
v-31zM895 23l-31 -31h-334q-9 0 -18.5 8.5t-9.5 17.5q0 10 8 24t8 19q0 3 -4 11t-6 10q6 0 18.5 -1t18.5 -1l6 2v18q11 2 16 7.5t5.5 10.5t-0.5 17t-1 17q0 7 9 22q-6 7 -9.5 24t-5.5 21q2 27 -61 141q-44 5 -107 5q-41 0 -106 -7q0 -6 -3 -12t-8.5 -12.5t-7.5 -9.5
q4 -1 4.5 -6.5t3.5 -8.5t13 0q-27 -25 -38.5 -55.5t-25.5 -48.5q2 -6 2 -19q0 -12 -5 -36t-5 -37q0 -15 2 -21h4q38 3 64 -26l2 -17q2 -29 -27 -55q-40 -4 -59 -4q-57 0 -92 12q-20 -10 -52 -10l-28 2q-15 8 -15 22q0 3 1.5 9.5t1.5 9.5q8 18 23.5 29.5t28 16.5t20 21
t3.5 43l19 -18q44 134 51 168q2 10 6 35.5t8 38.5q1 3 11 18q5 13 10 19v2q0 11 16 22v14l4 2q0 7 0.5 24t1.5 25.5t3 22.5t6.5 25t11.5 22l-17 10l19 19l-17 12q4 -1 8.5 3.5t8.5 4.5q10 0 18 21.5t14.5 49t10.5 34.5v8q0 36 21.5 95.5t23.5 90.5h2v7q0 14 16.5 57.5
t26.5 52.5h2q-4 6 -12 14q23 16 33 77t32 85l13 2q14 0 29 -7t18 -19l16 4q12 -28 23.5 -92.5t25.5 -94.5q17 -17 10 -38q17 -28 30.5 -88.5t29.5 -88.5q3 -6 3 -18t1 -14l6 2l4 -21h-2q0 -1 -1 -4.5t-1 -5.5q0 -15 17 -46t20 -44h22q-2 -6 -6 -14.5t-5 -11.5t-2 -10t-1 -17
q0 -26 14.5 -73t14.5 -73q0 -15 30 -57q-10 -27 -10 -49q0 -36 25.5 -97.5t25.5 -97.5q9 -6 12.5 -15.5t9 -13t23.5 -0.5l-2 -16h2l5 -6v2l4 -2q18 2 26 -8t14 -26.5t15 -24.5z" />
    <glyph glyph-name="b" unicode="b" horiz-adv-x="933" 
d="M330 53v21h-15v-21h15zM668 309q0 48 -21 78q4 12 4 33q1 22 -6.5 41.5t-25.5 38t-29 27.5t-37 28q-41 8 -92 8h-82q4 -10 4 -33v-16q-8 -5 -8 -20q0 -7 3 -21.5t3 -21.5q0 -13 -6 -19q14 -74 22 -90l-12 -8q-6 -24 -6 -25q0 -10 24 -10l-24 -23q15 -15 12 -30
q0 -10 -7 -28.5t-7 -27.5q0 -11 6 -20v-25q0 -18 4 -18q20 0 27 4q-6 -8 -10 -14t-5.5 -8.5t-5.5 -6.5t-12 -10q-2 -2 -2 -10q0 -4 10 -14l141 2q12 21 49 36.5t44 32.5l-7 8q52 94 52 162zM326 612v21h-15v-21h15zM272 723l-10 10l-16 -4q-4 -8 -4 -12q0 -10 10 -10
q4 0 20 16zM715 299v16h-17v-16h17zM729 311v11h-10v-11h10zM795 264v10h-13v-10h13zM807 317v15h-16v-15h16zM731 403v11h-10l-2 -11h12zM618 866q3 146 -28.5 178.5t-165.5 50.5q-23 3 -35 5q-4 -10 -4 -33q0 -19 -12 -29q19 -71 8 -182q9 -33 8 -43q0 -14 -8 -22
q12 -12 12 -23q0 -16 -14 -23l10 -90q12 4 35 4q12 0 37 -3t37 -3q32 -1 56.5 21.5t37.5 58t19 69t7 64.5zM713 713v16h-17v-16h17zM526 1118l2 21h-14l-2 -21h14zM784 909l33 -12l-6 27l-20 6zM788 1004v10h-14v-10h14zM883 256q0 -82 -52 -106l3 18l16 -10
q-13 -29 -33 -53.5t-39.5 -41t-49.5 -30.5t-51.5 -22t-58.5 -16t-57 -11t-59 -9q-6 11 -23 11q-13 0 -45 -9q-88 9 -180 9q-104 3 -188 -2q-10 26 -9 34q0 15 2 21l19 -4q11 25 39 28l6 -4q50 26 55 136q0 20 -3.5 69t-2.5 76q0 32 6 66q-14 21 -14 63q0 11 2 35t2 37
q1 11 -3 31t-3 32q0 16 4.5 44t5.5 40q0 30 -14 55q12 71 12 148q2 84 -12 203q-14 9 -51.5 12.5t-53.5 11.5l2 15q-14 14 -14 28q0 10 8 15v12q47 8 107 8q18 -1 77 -4.5t91 -3.5q52 0 79 2q3 -6 13 -6q9 0 27.5 6t27.5 6q16 0 25 -6l8 18q33 -24 77 -31t86.5 -15.5
t75.5 -37.5q7 -30 91 -114l-19 -9q1 -2 15 -15.5t14 -22.5q0 -10 -13 -19q-1 -6 2 -10.5t10.5 -8.5t10.5 -5.5t10 -4.5l-20 -10q-8 -188 -107 -258l4 -29l-14 -10h4v-2l-4 -2l4 6l-2 -10h37l-16 -16q126 -68 133 -248v-80z" />
    <glyph glyph-name="c" unicode="c" horiz-adv-x="882" 
d="M379 31l22 20h-36l-3 -20h17zM166 328l6 18l-12 16v7h-10v-7v-8v-4zM152 406l2 8h-13v-8h11zM147 586v10h-8l-2 -10h10zM182 594v8h-8v-8h8zM172 698v13h-12v-13h12zM176 729l6 31l-20 -27zM211 883l6 30l-20 -4l2 -26h12zM260 1061l33 4l-10 22l-13 -14zM694 1022
l17 -21l-4 29h-13v-8zM608 1122v11h-8v-11h8zM657 1083v15h-12v-15h12zM819 924l23 -25l-27 -10q4 -4 8 -12l13 -15q-4 -5 -11.5 -16.5t-11 -16t-10 -12.5t-12.5 -11t-14.5 -7t-18.5 -5t-23 -1q-32 40 -41 110q-11 61 -37 92q-11 16 -29.5 33t-31 26t-40.5 27.5t-34 22.5
q-92 13 -168 -90q-21 -15 -24 -59.5t-15 -61.5q-9 -14 -13 -33.5t1 -40.5q-27 -58 -30.5 -108.5t4.5 -115t6 -110.5q-7 -85 24 -127q7 -78 47 -151l-14 -4v-2q12 -8 26.5 -28.5t26.5 -25.5q49 -56 90 -53q72 -3 121 46t86 136v39h12q0 17 9 29v11.5v11t0.5 8.5t1 9t1.5 7.5
t3 9.5t4.5 9.5t5.5 11.5l88 -2q15 -33 12 -49q-1 -6 -3.5 -18t-2.5 -23l-10 -4v-4q10 -15 -2 -39q0 -7 -12 -27q0 -2 18 -16l-22 -25l4 -4q-32 -51 -49.5 -76t-47 -58t-63.5 -59q-138 -56 -211 -18q-139 10 -182 92q-65 49 -105 135q-2 10 -16 50.5t-12 66.5q-7 5 -10.5 8.5
t-6.5 13t-4 11.5q0 3 -8 14q-1 5 -9 66t-20 90q-4 80 0 148.5t21.5 145.5t49.5 139t89.5 118t136.5 92q232 55 352 -72l13 -16q0 2 7 6t7 6q-16 13 -25 39.5t-6 44.5l82 27l2 -39q8 -1 10.5 -9.5t6.5 -11.5v-4l12 -8l4 -10h-2q10 -9 11.5 -13.5t-7.5 -13.5h-2
q-3 -102 19 -180h-15v-12z" />
    <glyph glyph-name="d" unicode="d" horiz-adv-x="972" 
d="M240 59v11h-9v10h-10v-21h19zM342 188v21h-27v-21h27zM367 158v22h-11v-20zM238 561v10h-13v17h-8l-2 -27h23zM690 201v20l-20 2l-4 -12l2 -12l14 -9zM727 672q0 49 -51 174v22q-1 21 -8 42.5t-13 33t-22 37t-21 33.5q-4 3 -12 6t-12 5.5t-8 8t-5 13.5q-56 59 -147 59
q-21 0 -39 -6v-33q4 -16 4 -25q0 -7 -3 -21.5t-3 -21.5q3 -13 16 -26q-10 -33 -10 -66q0 -15 3 -42t3 -40q2 -22 -6 -55q4 -24 4 -35q0 -23 -6 -41q12 -74 12 -149q2 -77 -9 -231.5t-9 -231.5v-12h25q2 10 16 10h8q4 -2 10 -8q4 0 12 -1t13 -1q6 0 12 6q4 -2 8 -2
q14 1 38 14.5t28 15.5q-1 18 24 27.5t29 15.5q1 25 11.5 42.5t23 31.5t16.5 25q42 131 39 289q-1 25 14.5 69t14.5 68zM791 358v21h-15v-21h15zM719 860l18 -14l-10 35h-8v-21zM922 541q-7 -73 -37.5 -175.5t-65.5 -148.5l6 -6l-12 -12l16 -13q-24 -6 -30 -11t-15 -25
q-9 -18 -63 -67t-76 -52q-70 -41 -201 -45q-78 0 -155 12q-34 -14 -72 -14q-29 -1 -88 4t-88 4l22 26q-4 6 -4 19q-1 13 3.5 21.5t15.5 11.5t17 4t23 0.5t19 -0.5q7 0 19 4v4q0 4 3.5 9.5t6.5 8.5l4 4q0 3 -9.5 10t-13.5 9l29 6q1 1 6.5 3.5t8 5t2.5 7.5q0 4 -2.5 11.5
t-2.5 11.5l-12 12l8 17q-4 8 -4 14q0 11 8 16v13q-1 15 4 39.5t5 35.5q0 8 -1.5 16t-5.5 17.5t-6.5 14t-9 16t-8.5 14.5q8 -4 16 -4q8 1 10 16.5t0.5 31t0.5 24.5q-6 12 -8.5 27.5t-2.5 27t1 30.5t1 27q-3 47 4 111q-25 42 -32 59h6q20 0 21.5 31.5t-3.5 48.5q0 31 4 45
q-8 16 -8 25q0 5 2.5 26.5t-0.5 26.5q10 27 10 51q-1 39 -14.5 59t-46.5 38l10 14l-4 4q-1 1 -2.5 -0.5t-3 -3.5t-2.5 -2q-5 0 -19 -7t-22 -7q-15 0 -25 10l-16 41q12 22 43 49q11 -14 27 -14q10 0 28 6t27 6q11 0 20 -6q15 6 33 6q16 1 44.5 -3.5t41.5 -4.5q31 0 53 14
q17 -9 38.5 -13t37 -3t42 3.5t38.5 2.5q34 0 68 -12h8q34 1 91 -38.5t79 -45.5v-5q2 -24 29 -51l-3 -4q15 -8 33 -34t23 -31l-4 -9q13 -11 21 -29t14.5 -45.5t9.5 -35.5l-6 -4q13 -22 17 -75.5t24 -76.5v-8q1 -22 -11 -66t-12 -63q0 -17 25 -12z" />
    <glyph glyph-name="e" unicode="e" horiz-adv-x="897" 
d="M236 80l2 12h-13v-12h11zM223 109v10h-12v-10h12zM252 383l2 12h-12v-12h10zM344 389v12h-10v-12h10zM786 25v8l-18 2v-10h18zM731 78v8h-12v-8h12zM756 68v12h-8v-12h8zM246 582v12h-8v-12h8zM289 580v12h-10l-3 -12h13zM266 602v10h-8v-10h8zM786 111v8h-10l-2 -8h12z
M248 680l2 8l-10 2v-10h8zM821 123v8l-10 2v-10h10zM229 715v10h-10l-2 -8zM248 741l-21 21q0 -1 -1 -3t-1 -3q0 -4 4 -7t10.5 -5t8.5 -3zM225 776l2 12h-12v-10zM834 166v20h-11v-20h11zM315 739v11l-12 2v-13h12zM262 831v11l-10 2v-13h10zM250 854v2h-12v-2h12zM842 289
v10h-11v-10h11zM823 324v12h-12v-12h12zM324 844v10l-9 2v-12h9zM324 856l2 10h-11v-10h9zM358 821v13h-8v-13h8zM287 963l2 12h-13v-10zM328 928v10h-9l-2 -10h11zM285 987l2 10l-11 2v-12h9zM260 1022v8l-8 2v-10h8zM303 1006v10h-10v-8zM240 1077l6 6l-21 2h2q4 0 8 -4
t5 -4zM270 1063v12h-10v-12h10zM195 1141v12h-9v-12h9zM330 1020v8h-8v-8h8zM283 1083v11h-9v-11h9zM297 1081l2 13h-10v-13h8zM315 492h11h-11zM780 29h11h-11zM827 176l-2 -12zM846 332l10 -2q-12 -37 -12 -80q0 -9 2 -30t2 -30q-1 -24 -7 -89.5t-5 -100.5q-30 6 -35 6
q-20 0 -61.5 -9.5t-65.5 -8.5q-33 1 -95 -1.5t-85 -2.5q-321 4 -437 -2q-10 13 -10 30q1 20 15.5 34t35.5 17l4 -6q7 4 22.5 10.5t27 12.5t20.5 14v10q-1 13 0 27t3 30.5t3 26.5q4 104 -8 304h10v18q2 56 -3.5 157.5t-6.5 127.5q-1 33 2 91.5t3 108t-7 90.5q-3 14 -24 21
t-44 8.5t-41.5 13.5t-17.5 35q0 19 10 39q18 6 60 6q28 -1 81.5 -6t81.5 -6q66 0 88 -8l11 12q37 -12 76 -12q27 -1 78.5 2t76.5 2q55 -4 90 -18q8 6 27 6q13 0 39 -8t37 -9q4 -6 6 -11t2.5 -7.5t0 -9t-0.5 -9.5q-2 -10 12 -24q-12 -6 -14 -12q0 -2 7.5 -17.5t6.5 -32.5
q0 -12 7 -36t5 -39l13 -19q-11 -13 -11 -49q0 -13 -8 -37h-18h-2v-16q-13 4 -22 10.5t-14 12.5t-8 18t-4 18t-1.5 21.5t-1.5 21.5q0 10 -6 29.5t-5 32.5q0 21 -4 24l-47 35l6 6q-48 39 -127 43q-35 3 -80 -4q-3 0 -8 1t-8 1q-11 0 -40.5 -4t-45.5 -2q-3 -6 -7 -18.5
t-7 -18.5q6 -13 6.5 -32.5t-2 -45t-2.5 -35.5q-3 -43 14 -81h-10q10 -10 10 -25q0 -7 -4 -22t-4 -23q-1 -18 2.5 -49.5t3.5 -44.5q-4 -31 -10 -45q15 -11 29 -11q14 -1 44.5 7t49.5 4q14 11 21 26.5t8 23.5t0 32.5t-1 29.5q3 28 13 62l65 -2l-14 -15h2q8 0 16 -4l11 -149
l-15 10l-4.5 4.5t-2 -0.5t-3.5 -2l-4 -8l14 -4q8 -3 9.5 -4t-1 -5t-2.5 -8t1 -6t2 -3t4 -2.5t4 -2.5q-21 -37 -27 -43q24 -27 20 -82q0 -11 -3 -45.5t-1 -54.5q-5 -12 -17.5 -23.5t-23.5 -11.5q-22 1 -30 30.5t-7 63.5t-9.5 63.5t-35.5 30.5q-19 0 -55 -1t-55 -1
q0 -13 -3 -40t-3 -40q-3 -30 10 -59l-2 -27h-8q-1 -35 0.5 -156.5t-2.5 -156.5q31 -25 67 -25q26 -1 75 3.5t75 3.5q35 0 92 22q0 8 4.5 12t13.5 7.5t13 5.5q9 -2 19.5 13t21 35t16.5 25q1 5 4.5 23t3.5 27v26l-12 4q3 3 5 6t3.5 6l2.5 5t1.5 5t1 4.5t0.5 5.5v5.5v6.5v8
q0 16 8.5 30.5t24.5 14.5q12 -1 22 -12t13 -23z" />
    <glyph glyph-name="f" unicode="f" horiz-adv-x="868" 
d="M272 260q0 17 -4 25v-2q-15 -58 -20 -60q24 5 24 37zM236 403l2 31l-23 -24v-21zM199 711l30 -9l-14 21l-6 51zM268 1016l23 -4l-8 55l-15 -39v-12zM840 1049h8q-8 -21 -8 -50q0 -13 2 -37t2 -36q0 -68 -53 -78l-23 41h-4q2 -4 2 -8q0 -12 -8 -17q-4 -14 -17 -14
q-8 0 -28 10q6 12 6 27q0 6 -3.5 29.5t1.5 29.5l-10 15l6 16q0 10 4 14q-32 100 -107 103l-141 6q-19 0 -47.5 -6t-40.5 -7l2 -10q0 -14 -12 -20v-41q0 -20 8 -33q1 -12 -1 -33t-2 -38t7 -29q-10 -15 -20.5 -42.5t-10.5 -43.5q0 -9 1 -29.5t1 -30.5q12 -16 17 -25.5t5 -14.5
t-1.5 -18t-1.5 -26q0 -12 12 -12q15 0 21 2q12 11 46 12.5t44 26.5h12q2 4 2 14q0 14 -6 39t-6 39q0 25 16 51q48 6 49 6q25 0 39 -14q7 -35 7.5 -102.5t6.5 -100.5l-14 -10h2v6q17 -60 17 -106q0 -29 -15 -53q4 -7 4 -23v-20q-19 -23 -41 -23q-12 0 -24 8q-7 15 -19 59
t-29 69t-51 36q-11 -8 -24 -8q-12 0 -26.5 8t-22.5 8q-2 0 -6 -1t-5 -1q-12 -71 -12 -145q0 -97 25 -176q-15 -37 -15 -80q0 -58 23 -92q10 -4 38 -3.5t44 -8t16 -33.5q0 -3 -10 -13t-10 -12q-39 -16 -78 -18t-93.5 3t-80.5 5q-17 0 -49 -4t-47 -4q-33 0 -33 24q0 27 14 41
t30.5 16.5t31.5 12.5t16 30q-6 12 -6 27q0 13 6 36t6 36q0 20 -14 41l8 8q-6 6 -6 16q0 3 2 9.5t2 9.5q0 13 -4 33l22 -17l5 6v11h-7q-12 0 -17 36.5t-5 63.5l8 4h-16q0 12 1 37t1 37l2 88q2 88 -2 88q14 23 14 37q0 4 1 37t0.5 52.5t-4.5 44t-13 34.5q10 83 10 96
q0 44 -25 80q-4 5 -9 7.5t-16 3.5t-12 1v-2l-14 4v-2l-18 -6q-1 0 -3 1t-3 1q-8 -2 -13 1t-6 10.5t-0.5 15t1.5 16t1 10.5q0 6 -2 8q-6 12 -6 25q0 19 10.5 29t21.5 12t29 2q2 0 13.5 -1t19.5 -0.5t12 3.5l127 -6q40 12 103 12q36 0 95.5 -6t94.5 -6q81 0 158 12q6 -6 13 -9
t11.5 -3.5t15.5 0t15 0.5q32 0 47.5 -25t14.5 -56.5t-2 -59.5z" />
    <glyph glyph-name="g" unicode="g" horiz-adv-x="909" 
d="M272 283v14h-12v-14h12zM248 330h16v14h-16v-14zM219 436v29h-14l2 -25zM229 573l7 29l-3 -90l-4 72v-11zM707 166l16 10l-47 12q1 -1 6 -6.5t7.5 -8t7.5 -5t10 -2.5zM215 666l10 -23l-2 39h-12zM174 739h16l-2 27l-18 -4zM754 270l6 41l-8 29l-11 -70h13zM219 819l10 78
q-21 -34 -18 -61zM762 498h16v12h-16v-12zM268 971l15 71h-13q0 -12 -1 -35t-1 -36zM868 561q1 -17 -9 -27t-22 -12.5t-21.5 -8.5t-8.5 -15l-12 -13l12 -16h-19q-2 -8 -2 -30t-6 -33q6 -7 7.5 -24t3.5 -22l-13 -12q6 -24 6 -51q2 -44 2 -92.5t-1 -107.5t-1 -91
q-9 -22 -34 -22q-21 0 -41 10q-15 20 -56 16q-2 12 -18 19t-19 10q-54 -54 -141 -57q-71 0 -145 22q-9 9 -20 14t-31 10.5t-23 6.5v8q0 4 -1.5 7.5t-3.5 5.5t-6 4l-6 3t-7 3l-5 2q-87 88 -118.5 155.5t-40.5 200.5q-1 9 9.5 19.5t12.5 17.5l-18 35h-2l-4 26l12 25q-1 1 2 6
t2 6q-6 0 -16 -9t-11 -9q-1 -1 -1.5 0t-0.5 4q-6 152 17.5 253t97.5 228q35 61 57.5 86t77.5 57h6q20 0 57 13t54 14q14 0 44 -6.5t46 -5.5q22 0 72 6l20 8q2 -2 11 -4t20.5 -3.5t13.5 -2.5q0 -1 -4 -6.5t-5 -7.5t1 -5l-47 -4q13 -11 47.5 -18.5t40.5 -9.5q7 18 25.5 29.5
t39.5 11.5q13 3 33 -9q0 -5 -3 -11t-3 -9q1 -4 9.5 -12.5t9.5 -12.5l-7 2l7 -6q-4 -7 -15 -45l-18 17v-17l-41 27q1 -5 27 -29.5t26 -28.5q6 -9 6 -22q0 -6 -6.5 -18.5t-5.5 -18.5q0 -13 27 -18q1 -3 2 -11t2 -12q0 -12 -5.5 -33t-5.5 -32q1 -2 5 -11.5t4 -15.5
q0 -11 -12.5 -23.5t-24.5 -17.5l1 1q8 -4 -4 -5h-38l-49 12l30 25l2 1l3 3t3 4.5t-2.5 6t-11.5 7.5q7 3 15 12.5t8 16.5q0 3 -5.5 6.5t-12 7t-7.5 4.5q-9 2 -20 23l16 14q-1 3 -9.5 15t-6.5 24q-18 13 -55.5 51.5t-63.5 53.5l-66 -17l23 23q-10 2 -31 2q-71 -3 -121 -53v-31
q-7 -6 -24 -23.5t-27 -25.5q-1 -12 -11.5 -48.5t-4.5 -58.5q-13 -19 -14.5 -31t1.5 -34l2 -23q-9 -2 -15 -1t-8.5 -0.5t-2.5 -6.5q0 -2 8.5 -18.5t7.5 -18.5l-6 -22q-1 -20 2 -70q1 -35 7 -98t7 -84h5l2 -13q-6 -18 -13 -20l2 4l-2 -4h6q9 0 9 -6q0 -23 -11 -37l21 -14
q-22 -17 -19 -33q0 -25 28.5 -104t27.5 -91l8 2q19 0 27 -24l-5 -11q6 -8 24 -19t24 -19q45 -9 61 -9q22 0 55 22.5t29 43.5q12 4 18.5 12t8 13t2.5 20.5t2 19.5h4q4 50 2 74q0 46 -12 92h8v25q0 16 -15 35h21l4 12q-1 12 -9 38t-7 44q-10 6 -33.5 8t-39.5 9t-17 30
q0 31 14.5 43t46.5 14q59 0 131 -20l12 -12l2 -2q7 -2 13 -21l2 -6h2l4 41q21 8 49 8q10 0 28 -0.5t33 -0.5t29 1q10 -30 10 -39z" />
    <glyph glyph-name="h" unicode="h" horiz-adv-x="925" 
d="M156 86h16l-2 45q-16 -33 -14 -45zM180 334l25 -23l-2 51l-23 -18v-10zM248 770h4l-2 12zM324 737v15h-11l-6 -29zM680 496v12l-18 14l4 -24zM305 940v14l-16 50l4 -64h12zM764 539l20 2l-4 32v19q-22 -7 -22 -25q0 -16 6 -28zM680 723v16h-12v-14zM780 760h4l-4 14v-14z
M627 1087l2 13l-17 -10zM885 23q0 -9 -4 -29l-41 -17q-35 4 -73 5t-89.5 -0.5t-73.5 -1.5q-50 0 -96 6q-4 0 -2 20l2 21q0 7 -0.5 12t-1 6t0 2.5t1 2t3.5 5t7 11.5q4 0 12.5 1t12.5 1q5 0 35 -5l28 -14q0 2 -15.5 17t-15.5 18q0 2 9.5 15t9.5 14q-4 8 -4 14q0 7 6.5 18
t7.5 15q-4 12 -4.5 26t1 32t1.5 26q0 29 -10 67h8h8q-12 28 -12 72q0 21 4 64.5t4 66.5q0 17 -4 45l-6 6q-16 -4 -27 -4q-13 0 -40 8.5t-42 8.5q-24 0 -45 -21q-14 14 -22 14q-9 0 -32.5 -9.5t-33.5 -10.5q-1 -26 -4.5 -111t-3.5 -131q0 -120 23 -229q14 -8 33 -10.5t25 -12
t11 -43.5q-10 -2 -21.5 -19.5t-31.5 -17.5q-14 0 -25 11q-20 -4 -44 -4t-53 2t-44 2q-37 0 -78 -13q-6 7 -21.5 9t-29.5 1.5t-25.5 6t-11.5 22.5q0 13 8 33q52 13 74.5 42t22.5 83q0 28 -5.5 85t-5.5 85q0 34 9 68l2 -2q-10 331 -2 596q-7 7 -7 16q0 6 3.5 17.5t3.5 17.5
q0 5 -9 14q-10 0 -23 11t-20 22l25 18q-2 5 -6.5 3.5t-13 -3.5t-11.5 0l-8 -10l-2 -8h-25q0 5 -1 14t-1 14q0 8 3.5 24.5t3.5 19.5q17 30 167 30q143 0 185 -18q26 -9 26 -49q0 -15 -2 -23q-3 -1 -17 -4.5t-18.5 -5t-15.5 -6t-16.5 -8.5t-12.5 -10.5t-12 -14.5l15 -14
q-19 -43 -19 -86q0 -17 5 -49t5 -48q0 -12 -2 -35t-2 -34q0 -31 13 -60l-11 -14l-2 2q8 -16 4 -22q6 -6 6 -17q0 -5 -3 -15.5t-3 -15.5l4 -8q28 4 63.5 5.5t64.5 0.5t65 0h29q1 38 5.5 136t4.5 151q0 92 -12 148q-6 2 -13 2t-15.5 -1t-14.5 -1q-8 0 -12 21.5t-5.5 51.5
t-1.5 31q6 -4 19 -4q7 0 20.5 3t20.5 3q26 0 53 -10l33 8q18 -6 32.5 -8.5t22.5 -2.5t27.5 0.5t31.5 0.5q38 0 74 -19q6 -12 6 -20q0 -9 -14.5 -23t-16.5 -16l7 -6l8 -8q-2 -7 -12.5 -12.5t-18.5 -10.5t-6 -10l4 -2q-3 -1 -19 -27t-16 -29q0 -9 14 -28l-8 -23q1 -3 17 -14
q-11 -37 -11 -66q0 -15 3 -52.5t2 -57.5l4 -2l2 -33l-6 20q-3 -23 -13 -43q21 -38 21 -92q0 -9 -4 -26.5t-4 -26.5v-2q8 -8 8 -25q0 -14 -8.5 -40t-8.5 -41q0 -34 23 -60q-19 -16 -19 -39q0 -10 3.5 -30.5t3.5 -30.5q0 -15 -2 -21q2 -17 -4.5 -47t-6.5 -43t11 -24l2 -9
q0 -9 -13 -18l11 -6q-1 -4 -7 -10t-6 -9q0 -1 2 -2t2 -2q3 -15 20 -21t35 -7t33 -12t15 -35zM811 1055l-2 2v0z" />
    <glyph glyph-name="i" unicode="i" horiz-adv-x="675" 
d="M358 119v14l-16 2v-16h16zM322 205l2 14l-17 2v-16h15zM377 256l2 16h-12v-16h10zM342 303v16h-10v-14zM303 389h16l-6 12h-16zM342 395h14l-4 17h-16zM322 604v10h-15v-10h15zM319 909v15l-14 2l-2 -17h16zM145 1143l2 16h-12v-16h10zM365 1016v12h-15v-12h15zM311 1118
v15h-12v-15h12zM412 1049l2 16h-17v-16h15zM395 1096v14h-12v-14h12zM444 1094h21h-21zM625 -2q-19 -7 -40.5 -10t-36 -2.5t-39 1.5t-38.5 1q-35 0 -72 -13q-49 19 -131 19q-31 0 -91 -3t-89 -3h-31l-6 28l15 11h-3l3 2v20q3 0 8.5 -1t7.5 -1q9 0 23.5 10.5t23.5 10.5
q7 0 18 -7l11 11q7 2 23.5 5.5t27 8t18.5 12.5q1 9 10.5 24.5t10.5 18.5l4 111h12q-7 22 -11 47.5t-7 57.5t-6 49q6 21 6 55q0 36 -21 80q25 5 25 18q0 6 -2.5 23t-1.5 26l-27 29h25q2 0 4 2q-1 5 -4.5 19t-3.5 22q0 13 8 25q-6 24 -6 53q0 26 10 41q-8 23 -8 88
q0 6 0.5 30.5t0 36.5t-2 32t-6 35.5t-11.5 27.5l4 4q-3 5 -5.5 15.5t-7 14.5t-15.5 0q-8 20 -29 27t-49.5 10t-42.5 10l4 11q-21 8 -21 26l3 4l12 7l-2 2q1 0 2 1t2 1h-2h2v-6l-17 18q16 4 25 4q11 0 26 -12t19 -12q6 0 6 26q50 -13 106.5 -14t128 4.5t107.5 5.5
q37 0 119 -16v-13q0 -15 -8 -28.5t-13 -19t-25 -19.5t-22 -15q-10 5 -16 5q-10 0 -20.5 -4t-21.5 -9.5t-17 -7.5q1 -9 -2.5 -13t-12 -5t-10.5 -2l6 -9l-10 -10q10 -3 10 -16q0 -8 -11.5 -22t-12.5 -17l4 -6h12q0 -12 -1 -41.5t-1.5 -45.5t-3 -40t-6.5 -43q18 -50 18 -127
q0 -60 -4 -178q0 -3 -11 -8.5t-11 -8.5q0 -2 11 -7t11 -7q-4 -40 -4 -60q0 -100 21 -172q-13 -13 -17.5 -32.5t-3 -37.5t-0.5 -38q12 -30 47 -39t68 -6.5t58.5 -15.5t23.5 -64z" />
    <glyph glyph-name="j" unicode="j" horiz-adv-x="778" 
d="M319 18v9h-12v-9h12zM184 242v10l-12 2v-12h12zM135 336v8h-8v-8h8zM473 92v17h-12v-17h12zM414 213v16h-17v-16h17zM512 285v12h-10v-12h10zM397 426v16h-14v-14zM526 375v12h-8v-12h8zM541 424v2l-2 4v6h-7v-12h9zM526 453v8l-8 2v-10h8zM543 479v10l-8 3l-3 -13h11z
M508 518v14l-12 3v-17h12zM508 565v23h-10v-23h10zM422 676v14l-16 2v-16h16zM524 631v10h-12v-10h12zM424 793v16h-16v-14zM504 737v11h-12v-11h12zM467 819v17h-12v-17h12zM520 770v12h-8v-10zM461 903v12h-12v-12h12zM408 958v15h-17v-15h17zM233 1145v16h-12v-16h12z
M252 1157v10h-14v-10h14zM395 1024l2 12h-12v-12h10zM514 930l2 8h-10v-8h8zM530 985v10l-12 2v-12h12zM502 1057v16h-17v-16h17zM567 1104v8h-12v-8h12zM588 1143v12h-8v-12h8zM727 1147q0 -8 -14 -27q-4 6 -27 6h-43q-7 -3 -29 -9t-32.5 -15.5t-12.5 -28.5l-4 2
q-1 0 -5 -3t-5 -3h8v-16l-8 2v2l-6 12h-6q0 -3 -1 -9.5t-1 -10.5q0 -12 4 -37t4 -39q0 -17 -2 -23q-2 1 -4.5 -4.5t-5 -12l-5 -13t-4.5 -7.5q7 -9 9 -11.5t5 -7.5t2.5 -6t0.5 -8.5t2 -13.5l-17 -6q7 -7 7 -16q0 -3 -2.5 -11t-2.5 -12q0 -7 11 -22q-3 2 -6.5 6t-6.5 7t-4 3
h-4l-14 -14q27 -5 27 -19q0 -6 -4.5 -17t-4.5 -17q0 -15 21 -23l-4 -4q0 -7 7 -39.5t5 -36.5q10 -5 10 -10t-11 -14t-11 -17l4 -10l6 -121q-14 -8 -14 -37h2v-10q4 -8 4 -29q0 -25 -1 -73t-1 -72q0 -112 -72 -188t-184 -76q-74 0 -140 26t-94 84q-10 22 -21.5 67.5
t-11.5 67.5q0 38 23 68q-1 11 5 22t11.5 17.5t17.5 17t15 13.5q28 4 39 4q44 0 62 -22t18 -66q0 -43 -31 -86h-8q-21 3 -41 -21q-5 -121 82 -121q47 0 111 35q5 10 20.5 35.5t24 46.5t8.5 41t-6 35q5 -1 8.5 8t5.5 18.5t2 14.5q0 22 -16 14l6 8q-9 9 -15 7v14q13 9 13 16
q0 13 -4 25q-4 -4 -6 -4q-3 0 -3 6q0 9 4.5 27.5t4.5 27.5q0 18 -9 27v0q11 15 11 28q0 6 -4.5 8t-8.5 -1q7 100 7 182q0 102 -15 274q17 19 18 63.5t5 55.5q-7 21 -20 33t-32 15.5t-34.5 4t-40 -1.5t-35.5 -2q-47 0 -47 33q0 8 1 23.5t1 23.5q46 4 70 4q51 0 153.5 -12
t153.5 -12q66 0 141 16q2 -5 3.5 -6.5t2.5 -2t4.5 0t5.5 0.5q6 0 15.5 -17t9.5 -24zM385 825v-12v12zM381 1020v-14v14zM508 1020v-14v14z" />
    <glyph glyph-name="k" unicode="k" horiz-adv-x="919" 
d="M350 51v15l-12 2v-17h12zM393 20v13h-16v-13h16zM225 225v11h-16v-11h16zM555 47v16h-16v-16h16zM737 37v12h-12v-12h12zM293 492v10h-12v-10h12zM737 84l2 10l-12 2v-12h10zM813 43v16h-14v-16h14zM586 317l2 15h-13v-15h11zM307 657v11h-16v-11h16zM408 643l12 33
l-25 -17v-16h13zM317 803v16h-12v-16h12zM608 537v16h-10v-16h10zM172 1069v14h-12v-14h12zM313 1001v17h-16v-17h16zM604 903v10h-10l-2 -10h12zM635 883v12h-14l-3 -12h17zM725 1120v17h-10v-17h10zM899 8q-25 -18 -49 -18q-14 0 -36 6.5t-32 7.5l-8 -6h2v0h-6l-27 -2
q-59 -6 -116 -6q-88 0 -92 14q-21 12 -21 37q0 11 4 31q23 12 74 16q6 6 6 12q0 10 -13 37t-12 43q-20 20 -35.5 71t-33.5 71l6 6q-15 6 -21 20l15 12h-4l8 5v-17q-19 11 -31 21q4 4 4 10t-5 18.5t-5 18.5h-6l-11 33t-13 37t-14 32.5t-19 34.5q-3 -14 -25 -31t-27 -24
q-1 -13 -8.5 -50.5t-7.5 -58.5q0 -5 0.5 -8.5t0.5 -6.5t1 -6t1.5 -5t2.5 -5.5t3 -5t4 -6.5t5 -8q-7 -4 -15.5 -13t-8.5 -16q0 -2 5 -9.5t11 -17.5t8 -16l-16 -10l12 -14l-12 -13q8 -10 8 -43l4 -12l-4 -10q-6 -6 -6 -8l-12 -2l24 24l-2 -41q0 -15 1 -23.5t6.5 -18.5
t17.5 -15q16 4 27 4q10 0 24 -14q0 -46 -26 -62t-74 -16q-6 0 -62 -0.5t-81.5 0t-66.5 4t-65 10.5v31l13 -4q-7 7 -7 16q0 6 10.5 13t26 14t17.5 8l-19 10q4 -1 7.5 3.5t7.5 4.5q42 0 47 23q-4 10 -4.5 19.5t1 22t1.5 19.5q0 4 -5 18.5t-6 18.5l15 -6q-5 9 -9 38t-10 36
q1 4 7 13.5t6 14.5t-4 5l2 4l-2 -2q-5 31 -6.5 62.5t0 77.5t1.5 62q0 64 -14 119h16q5 5 5 8q0 7 -12.5 25t-12.5 29q0 17 18 24q-10 17 -10 31q0 10 2.5 20.5t7.5 23.5t7 19q-10 6 -14.5 14.5t-4 15t2 18t1.5 18.5q0 2 -8 13t-8 20h20q6 12 6 26q0 10 -5 32t-5 32t6 22
q-14 7 -14 21l6 18q-24 6 -42.5 14t-35.5 24.5t-16 37.5v10q13 29 39 29q25 0 76.5 -4t76.5 -4q37 0 66 10q9 -10 22 -12.5t33.5 0t26.5 2.5q39 0 51 -39q14 -7 14 -19q0 -7 -6 -20t-6 -21q-21 -1 -39 -9t-27.5 -15.5t-29.5 -26.5q4 -23 4 -67q0 -46 -6 -66q12 -17 8.5 -27
t2 -17.5t30.5 -12.5q-15 -16 -19 -40.5t-16 -35.5q12 -24 12 -53q0 -27 -10 -60q6 -6 16 -6q5 15 17 33t23 30.5t30 32.5t25 27q9 31 48 82t46 82q19 4 36 30t29 33q-6 9 -6 19q0 3 1 10t1 10q2 -1 17 -6q1 4 10 17v22l12 -2l6 4q-4 7 -12 11t-22.5 7t-16.5 3
q-9 -13 -20 -13q-13 0 -37 19l-4 10q-2 2 -2 6q0 2 2.5 12.5t-0.5 12.5q4 -2 12 -2q6 0 6 4q0 12 -8 24q9 9 13.5 13t13.5 6t11.5 2h22.5q10 0 32 2t32 2q41 0 113 -8.5t98 -9.5q0 -44 -35 -68q-2 0 -5 1t-5 1q-11 0 -38 -18.5t-48 -16.5q-5 -18 -30 -56t-26 -63
q-21 -16 -53 -62t-47 -61q-8 -16 -10 -16l6 -6l-2 2q-2 0 4 -6l8 -10l-16 2q-9 1 -13 -1t-5 -4t0 -9.5t1 -10.5q0 -25 -22 -33q3 -6 11 -23t12 -26t8 -23t4 -26q0 -26 22 -37q-4 -4 -4 -10q0 -13 21 -29q6 -20 47 -115.5t43 -125.5q-35 -23 -35 -31q0 -5 28 -14.5t35 -24.5
q1 -4 8.5 -19t13 -28t3.5 -17q28 -91 76 -110l6 8q12 -8 20 -19t11 -16t9 -23t7 -22z" />
    <glyph glyph-name="l" unicode="l" horiz-adv-x="815" 
d="M410 35v10h-13v-10h13zM449 23v14h-17v-14h17zM285 229v15l-15 2v-17h15zM279 479v13h-13v-13h13zM252 573l2 11l-16 2v-13h14zM705 168v10h-17l-22 -51zM303 641v14h-14v-12zM238 795v16h-13v-16h13zM227 961v14h-12v-14h12zM150 1102l16 -45l-4 59h-12v-14zM412 1147
v12h-15l-2 -12h17zM815 389q-1 -8 -2.5 -23t-2.5 -27.5t-1 -23.5q0 -4 -4 -4t-13 5.5t-14 5.5q-10 0 -10 -23q0 -12 4.5 -26.5t9.5 -24t14.5 -26t12.5 -23.5l-16 -47l6 -48l-29 -100l-16 2q-6 0 -17 -4t-14 -4q-11 0 -36 5t-38 5q-35 0 -109.5 -15.5t-115.5 -15.5
q-54 0 -107 9q-13 2 -38.5 12t-38.5 12q-27 -16 -37 -16q-4 0 -13 3t-14 3q-9 0 -29 -4q-6 2 -16 2q-9 0 -27 -6t-28 -6q-14 0 -29 6q-6 12 -6 28q0 10 5 20.5t8.5 15t16 16t13.5 12.5q14 5 23 10.5t21 15.5t19 15l3 39l10 2q-10 35 -10 45q0 14 10 27q-10 16 -10 57v57
q0 2 2 2q3 0 12.5 -11t11.5 -11v2v2q-4 0 -4 2q0 5 2 14t2 13q0 5 -10 8t-10 12q3 2 13 5t18 7t8 9q0 14 -43 14q0 1 1 4t1 4q0 24 -3.5 70t-3.5 69q0 44 -1 131t-1 131q0 63 9 127q-3 4 -4 12.5t-1.5 21t-1.5 16.5h13q-10 12 -14 50.5t-33 53.5h-11q-53 0 -53 31
q0 5 3 13.5t3 12.5q0 17 -12 25q24 -4 49.5 -4t57 2t49.5 2q41 0 115.5 1t115.5 1l19 -33q-6 -21 -10.5 -30t-15.5 -17t-30 -8q-37 0 -49 -10l12 -21q-8 2 -22 2q-6 -18 -8 -20q14 -194 14 -330q0 -47 -4 -149q-6 -12 -6 -39q0 -13 3 -41t3 -43q0 -29 -6 -43q0 -30 5 -92
t5 -93q0 -15 -3.5 -49.5t-2.5 -52.5v-19q4 -9 31 -36q16 4 24 4q4 0 4 -6q0 -5 13 -5q72 -10 126 -10q88 0 113 70q3 8 17.5 45.5t21 62.5t6.5 48q0 18 -2 26h-20q1 12 15.5 23t14.5 18q0 8 -6.5 27t-5.5 30q8 -4 27 -4q10 0 30.5 2t32.5 2q27 0 39 -14z" />
    <glyph glyph-name="m" unicode="m" horiz-adv-x="942" 
d="M182 29v12h-18v-12h18zM172 133v14l-10 3v-17h10zM152 231l6 48l-15 -15zM162 319v13h-12v-13h12zM432 133v12l-4 -2q-10 0 -14 11l-13 -21h31zM397 209v12h-12v-12h12zM444 186v17h-12v-15zM383 293v12h-12v-12h12zM412 293v10h-15v-10h15zM700 27v20h-22v-20h22z
M311 434v10h-10l-2 -10h12zM406 338v20h-7v-20h7zM664 100v17h-17v-17h17zM324 461v14h-15l-2 -14h17zM690 113v10h-14v-10h14zM793 14l2 17h-13v-17h11zM397 459v16h-16v-16h16zM479 387l2 16h-16v-14zM184 715v10h-14v-10h14zM692 238q0 4 -6 28l-6 -18l6 -66q6 54 6 56z
M403 512v16h-8l-2 -14zM203 764l18 8l-16 2zM178 807v18h-6zM205 782l10 9l-14 8h-2q-6 0 -6 -4q4 0 8 -4t4 -9zM422 616q-4 2 -10 2q-8 0 -14.5 -14t-14.5 -14q2 0 6.5 -1t5.5 -1q8 0 14 14t13 14zM379 645v14l-14 3l-3 -17h17zM295 731v12h-10v-12h10zM750 250l8 104
q-15 -34 -15 -61q0 -8 3.5 -24t3.5 -19zM520 545v18l-12 2v-20h12zM143 967v10l-16 2v-12h16zM176 946l2 12h-12v-12h10zM289 840v16h-17v-16h17zM700 436v13h-12v-13h12zM727 453v14h-12v-14h12zM152 1040v11h-15v-11h15zM324 924v14h-17v-14h17zM129 1108l12 8
q-15 15 -10 21l-22 -9zM553 721l4 76l-29 -131q3 25 25 55zM655 635l11 16h-17l-8 -14zM737 596v14h-12v-14h12zM238 1122v13h-15v-13h15zM711 674v14h-15l-2 -14h17zM602 821l10 10h-2q-6 -6 -8 -10zM621 848l53 -29l-27 27zM754 799v14h-15l-2 -14h17zM614 989v17h-14
l-2 -15zM627 1028v21h-9zM741 958l-2 5h-10v-19q1 1 3.5 3t4 3.5t3 3.5t1.5 4zM666 1143l2 20h-21v-20h19zM418 432v-20h-21zM141 745h13l-2 -12h-11v12zM123 840l16 -2l-2 -11h-14v13zM248 776l12 -12zM881 16q0 -4 -9 -18l-57 2q-36 0 -75 -1t-87 -2.5t-75 -2.5
q-8 4 -14.5 24t-6.5 31q0 12 10 19q60 0 60 34q0 14 -7.5 41t-7.5 41q0 17 11 39h14q-3 8 -19 29h15q-12 17 -12 47q0 32 8 53q-1 18 -7 58.5t-6 62.5q0 21 7 49q-3 39 -2.5 116t-2.5 116l-8 -11q-10 -44 -31.5 -130.5t-37.5 -154.5t-29 -130q-17 -18 -19.5 -60t-21.5 -61
q0 -7 -1 -21t-1.5 -22.5t-2 -20.5t-5.5 -22q-36 -8 -55 -8q-15 0 -22.5 1t-10.5 7.5t-3.5 11t-0.5 21.5q0 10 -19 34q4 20 4 35q0 34 -16 78q-2 0 -2 4q0 10 8 32t8 32h-2q-18 -21 -20 -23l-4 -4l-2 -2q-14 33 -17 43l2 6l-16 14q-4 1 -5 5.5t1 5.5l-6 10q4 20 4 29
q0 27 -18.5 80.5t-16.5 84.5q-12 10 -17.5 20.5t-6 17t1 22t1.5 24.5q0 23 -10 31q2 3 6.5 12t8.5 13l-23 2l8 -10l-20 -5h10q4 -28 5 -56t0 -74t-1 -56q0 -49 8 -88h-8q6 -74 1.5 -132.5t-2 -133.5t18.5 -131q2 -2 30.5 -9t37.5 -14q-12 -18 -12 -20q0 -4 2 -11.5t2 -11.5
l-8 -10q-14 2 -45 2q-22 0 -66 -4t-65 -4q-34 0 -48 4q-4 12 -4 20q0 19 13 33t28 21t28 17t13 22q0 18 -16 38q8 14 10.5 43.5t9.5 42.5q-10 7 -10 19q0 8 10 33l2 -2v14l2 4h-12q6 65 6 133q0 113 -4 170h-6v31h8q0 8 -2 23t-2 22q0 21 21 35q-10 36 -16 80t-7 74.5t-2 85
t-2 77.5q6 12 6 27q0 33 -31 57l-16 -4l-18 10l-13 -2l-16 2q5 3 7 11t2 14.5t-0.5 16t-0.5 12.5q0 4 2 6.5t5.5 3t6.5 1t8 0t7 -0.5q18 -12 41 -12q17 0 51 10t53 10q63 0 95 -36.5t32 -100.5q0 -43 42 -215.5t63 -227.5v-16q0 -32 22 -57v2v24q4 11 12.5 25.5t11.5 21.5
t6 23t-3 29q24 36 28.5 113.5t12.5 103.5q49 160 63 245q5 5 6.5 10.5t2.5 16t1 12.5l-12 9v6h25q26 0 75.5 6t73.5 6q42 0 80 -18q0 -2 1 -6.5t1 -6.5q0 -6 -5.5 -18t-2.5 -23h-25q0 -1 -19 -8t-19 -22q0 -6 10 -21l-6 -4q10 -5 10 -12l-6 -25q-4 0 -12 1t-11 1
q-2 0 -10 -4q4 -4 9.5 -7.5t13 -7t10.5 -5.5q5 -36 7.5 -76.5t3.5 -90t1.5 -80.5t0 -90.5t-0.5 -78.5q0 -54 -6 -162t-6 -162q0 -192 45 -192q18 0 28 -13q2 0 1 -15l-1 -15q9 -9 9 -17z" />
    <glyph glyph-name="n" unicode="n" horiz-adv-x="901" 
d="M70 16v11h-9v-9zM309 -6l2 12h-12v-10zM166 254l2 8l-10 2v-10h8zM727 8l2 8l-10 2v-10h8zM649 293v10h-10l-2 -10h12zM475 483l19 -20l-15 43h-14zM487 553v8h-12v-8h12zM440 600v10h-8v-10h8zM199 936v16h-17v-16h17zM213 948l2 10h-12v-10h10zM276 899l3 12h-13v-12
h10zM199 983l2 14h-17v-14h15zM240 1012l30 -39q24 24 -6 24l-8 15h-16zM217 1038v13h-12v-11zM262 1155v12h-12v-12h12zM860 1176q0 -14 -30 -23.5t-37 -22.5q-17 -28 -22.5 -57t-6 -71t-2.5 -62q6 -10 6 -47q0 -35 14 -51q-16 -26 -16 -56q-1 -25 4.5 -82.5t5.5 -66.5
l2 -70h-4l-10 -4l14 -16q0 -86 -2 -259.5t-2 -260.5q4 -8 4 -15q-1 -12 -12 -19t-23 -7q-18 1 -29.5 18.5t-17 39t-17 44.5t-28.5 31q0 42 -18 57h-4q11 0 14 8l-14 11l6 10q-20 10 -29 22.5t-8 34.5q0 13 -28.5 41t-32.5 47v-4q-1 0 -3 5.5t-4 11.5t-4 8q-3 9 6 14
q-60 64 -98 141l10 -2q8 0 11 6q-14 4 -25.5 19t-19 31t-22.5 32.5t-34 22.5q2 1 2 5.5t2 4.5q11 0 13 6q-14 21 -58.5 100.5t-72.5 114.5q-2 -11 -9 -46t-11.5 -64t-4.5 -45q-1 -19 8.5 -56t9.5 -55q-1 -7 -6.5 -23.5t-5.5 -23.5q0 -5 3 -14.5t3 -14.5q0 -11 -14 -18
q5 -3 8.5 -7.5t4.5 -11.5t1.5 -11t0 -13.5t-0.5 -11.5q0 -27 6 -35l-14 -158q10 -5 10 -12q0 -3 -12 -21q1 -6 5 -48t12 -66.5t26 -38.5l6 8q9 -9 28 -18t30.5 -19t11.5 -27q0 -2 -1 -6.5t-1 -7.5q-9 -11 -20.5 -13t-21 2.5t-23.5 10t-25 6.5q-9 0 -25 -4q-27 -8 -102 -2
q-42 0 -66 -12v33q1 17 12.5 24.5t26 9.5t31 18t24.5 48q-9 80 4.5 272t-6.5 269l17 14q-4 9 -6.5 18.5t-4 16t-2 17t-0.5 15.5v18.5v18.5q1 14 -1 52t-1 57q0 57 -10 82q12 12 15 31q0 14 -15.5 45.5t-9.5 56.5q-9 11 -24.5 17t-28.5 8t-22.5 10t-8.5 24q0 11 4 27
q4 -2 39 -8q22 0 66 5t67 5q70 -3 86 -61h14q0 -14 19 -33.5t22 -30.5l-8 -6q26 -18 52 -68.5t40 -66.5l-2 -4q0 -15 16.5 -32.5t16.5 -21.5t-8 -12q4 -6 20 -6q4 -17 32 -59t28 -66q20 -8 26 -34l12 -52t25 -33q9 -12 28 -51t38 -55q1 -3 2 -14.5t4.5 -18t11.5 -6.5
q4 -1 6.5 3t3 8t0.5 7q-8 13 -9 89t-13 89q14 28 14 39v4q-14 5 -14 33q1 10 4.5 33.5t3.5 36.5q0 18 -4 26q4 12 4 37q2 34 -9.5 97.5t-10.5 95.5q5 37 6 39q-2 13 -19 21.5t-35.5 12.5t-33 16t-13.5 32v6q15 24 43 24q12 0 33 -6.5t31 -7.5q10 0 22 4l152 -4q6 -12 6 -22z
" />
    <glyph glyph-name="o" unicode="o" horiz-adv-x="905" 
d="M217 164h23v18h-23v-18zM123 346l14 2v14h-14v-16zM193 307h12v12h-12v-12zM113 369l12 12l-25 86l6 -82zM174 508l16 -19l-6 31h-10v-12zM121 563h14v21h-14v-21zM154 778h14v21h-14v-21zM635 705q-2 116 -22 206t-74 170q-4 2 -18 10.5t-20.5 12t-18 9t-21.5 7.5t-21 2
q-27 0 -64 -27t-50 -53q-5 -11 -10 -40t-15 -44l8 -10q-10 -5 -10 -20.5t-12 -20.5q0 -33 -19 -33q-5 0 -11 -3q-5 -2 -5 1l8 -18q1 -4 11 -2t10 -2q0 -7 -2.5 -22.5t-2.5 -22.5q0 -14 11 -29q-1 -18 -12 -127.5t-9 -167.5q1 -54 9.5 -117t27.5 -139t58.5 -124.5t93.5 -47.5
q17 0 28 8q37 17 63.5 46t40.5 56t23.5 73t12 72.5t5.5 80t5 72.5q8 70 2 244zM260 774l8 -24l-12 75l-12 -18zM147 905h13v21h-13v-21zM776 362h2h-2q-2 0 -2 -4t0.5 -17t0 -17.5t-4 -13.5t-10.5 -17v26q-8 0 -17 9q0 9 12 21.5t21 12.5zM741 969l7 26h-15v-14zM723 1012
h14v14h-14v-14zM854 510q1 -13 -7.5 -32.5t-8.5 -26.5q0 -3 6 -15q-8 -22 -31.5 -96.5t-42.5 -114.5q-117 -248 -297 -250q-88 -1 -167 44.5t-138 121.5q-3 25 -35.5 78t-28.5 88q-33 46 -20 96q-2 16 -17 107.5t-16 140.5q0 54 25 127q-1 4 -2 11t-2 10q0 16 13.5 45.5
t10.5 52.5q19 47 37 84t46.5 78.5t59.5 69t74.5 46t92.5 19.5q16 8 22 8q14 0 38 -4t38 -4q73 1 153.5 -63.5t108.5 -137.5l-2 -4q24 -15 34.5 -39t16 -59.5t10.5 -50.5q6 -16 10.5 -34.5t7 -32t4 -36t2 -32.5t1 -36.5t0.5 -33.5v-98l-12 -9v17q16 -13 16 -35z" />
    <glyph glyph-name="p" unicode="p" horiz-adv-x="878" 
d="M137 47v12h-12l-35 -16zM223 29l13 -2l-5 16h-16zM195 92v14h-11l-2 -14h13zM182 162h17v16h-17v-16zM203 184h10v13h-10v-13zM182 209h17v14h-17v-14zM272 127h11v12h-11v-12zM371 51v17h-17v-15zM279 182h16v15h-16v-15zM203 266h10v10h-10v-10zM281 524v17h-15l-2 -17
h17zM307 537v10l-14 2v-12h14zM219 604l39 -2zM203 678l18 -2l-8 8zM369 586l65 10l-65 8v-18zM365 682v16h-11l-2 -16h13zM209 866v17h-10v-17h10zM303 911v15l-12 2v-17h12zM158 1128q-7 2 -21 7.5t-16 4.5t-21 -3l21 -13h16q2 -2 21 4zM297 1032v15h-14v-15h14zM633 887
q-6 16 -15 53t-17 58t-22.5 46.5t-39.5 37.5t-60 12q-29 0 -94 -21q-14 -54 -14 -72q0 -40 10 -65l-16 -10q6 -102 6 -305q32 -13 65 -13q29 0 103 17v12q20 7 31.5 18.5t22.5 32t19 31.5l-12 12q9 17 18 19q5 20 5 26q0 18 -19 41q12 7 16 32.5t13 37.5zM684 750v20h-10
v-20h10zM643 866h16v13h-16v-13zM668 891v16h-15v-16h15zM803 920h-10l-2 -82q1 5 4.5 24.5t6 36t1.5 21.5zM739 1044v11l-14 2v-13h14zM838 893l-13 -10h11q-7 -14 -7 -25q0 -8 3.5 -24.5t3.5 -24.5q0 -24 -17 -41l-12 14l-2 -2l20 2q-6 -49 -26.5 -92.5t-57.5 -54.5l2 -4
q-19 -13 -51.5 -39.5t-50.5 -40.5l4 -4q-8 -9 -26 -16.5t-30.5 -10t-38.5 -6t-30 -4.5q-7 10 -16 10q-10 0 -27 -10t-35 -10q-13 0 -26.5 3.5t-32 10t-25.5 8.5q-2 -2 -2 -4q0 -9 4 -29l19 -94l-12 -22q-5 -50 -5 -64l2 -55q1 -55 -2 -55q9 -14 20.5 -47.5t25.5 -51.5
q10 -15 36 -29t47 -21l21 -7l-20 -43q-6 -3 -15.5 -0.5t-24.5 8t-18 6.5l-28 -32q-34 0 -81.5 7.5t-80.5 6t-68 -18.5q-10 -7 -28 -5.5t-30 5.5t-30.5 10.5t-28.5 8.5q-18 32 -18 45q0 8 4 20q10 2 32.5 4t31.5 4.5t21 9.5t16.5 21t3.5 37h26l-16 92l18 19v14q-9 -1 -13.5 1
t-5 8.5t0.5 13t2.5 17.5t1.5 20q0 8 -3 24.5t-3 24.5q0 94 10 549q0 5 -1 14t-1 14q0 14 3 41t3 41q0 48 -35 55l-14 17l-25 -12l-41 2q-1 8 -4.5 30t-3.5 35q0 15 9 25t24 10h16l4 -10q16 8 25 8q10 0 20 -10q6 4 23 4q13 0 22.5 -8.5t14.5 -8.5q3 0 6.5 3.5t3.5 5.5
q17 -17 23 -17q2 0 18 8.5t27 8.5q10 1 54.5 7.5t68.5 6.5q12 0 34 2t33 2q26 0 58.5 -7.5t71.5 -20.5t57 -17q11 -3 32 -22.5t49 -18.5v-8q-1 -15 35 -54t43 -61q6 -9 6 -22q0 -7 -4 -21.5t-4 -21.5q0 -13 19 -27z" />
    <glyph glyph-name="q" unicode="q" horiz-adv-x="927" 
d="M223 168h25v20h-25v-20zM117 571h22v21h-22v-21zM590 139l14 49l-12 7q0 2 1 7.5t1 8.5l-2 4l-19 -4zM145 772h19v19h-19v-19zM645 670q0 209 -72 385q-3 3 -16 13t-17.5 13.5t-16 11.5t-18.5 11.5t-18 8t-21.5 6t-21.5 1.5q-31 0 -68.5 -28t-49.5 -58q-9 -18 -12.5 -65
t-26.5 -64q0 -15 -6.5 -46t-6.5 -46v-326q0 -6 -3 -60.5t1 -59.5q39 -246 144 -310h28q86 -4 113 45q-6 16 -16.5 32.5t-19 26t-25 27.5t-23.5 25q-4 1 -8 3.5t-5.5 2.5h-8.5l-19 -2q-19 -9 -33 -33q-16 -22 -34 -22q-6 0 -9.5 2t-5 6t-2.5 7t0 9.5t1.5 10t2.5 10t2 8.5
q4 17 11.5 34.5t21.5 40.5t38.5 37.5t55.5 14.5q37 0 72.5 -26.5t58.5 -61.5q16 62 24 144t8.5 125.5t0.5 146.5zM227 883v14l-10 2v-16h10zM256 913v13h-16v-13h16zM754 455l12 18l-21 8l-10 -18zM670 950v15l-11 2v-17h11zM635 1042v11l-17 2v-13h17zM877 670
q0 -15 -2 -59t-1 -68l-12 -11q8 -11 8 -26t-12 -48t-8 -52q-2 -14 -18.5 -64t-14.5 -86q-19 -13 -34 -55t-31 -58q-2 -2 -8.5 -8t-11 -10t-8.5 -10t-5 -11q20 -20 53 -20q18 0 28 9t12.5 19.5t8.5 19.5t17 9q14 0 32 -22q-3 -43 -32 -80.5t-70 -50.5q-11 2 -46.5 2.5
t-55.5 8.5t-33 30q-111 -47 -182 -47q-61 0 -115.5 25.5t-97.5 72t-73 92t-61 104.5q-2 2 0.5 9.5t5.5 16t3 9.5q0 7 -2 10.5t-2 10.5q0 5 -3 6.5t-10 2.5t-8 1l-35 219q-2 8 -2 20t1 27t1 21q0 119 17 180q2 7 9.5 22.5t8.5 22.5q4 14 14.5 52t18.5 59q46 105 134.5 170
t199.5 65q88 0 171 -45t128 -121q17 -9 30 -49q21 -16 30.5 -41.5t14.5 -59.5t11 -50q1 -4 6.5 -15.5t8 -20t1.5 -16.5q21 -46 21 -112z" />
    <glyph glyph-name="r" unicode="r" horiz-adv-x="907" 
d="M260 49v19l-20 2v-21h20zM365 12v21h-19l-2 -21h21zM297 256v20h-18l-3 -18zM772 53v21h-20v-21h20zM276 571v21h-20l-2 -21h22zM293 694l12 17l-8 6l-12 -17zM223 985v21h-14v-21h14zM256 1022v6q0 18 -41 49q1 -2 7 -14.5t11.5 -20.5t10.5 -8v-2v-4q0 -6 12 -6z
M291 997v21h-15v-21h15zM211 1067h12l-12 37v-25v-12zM629 889q0 42 -13.5 88t-45 83.5t-74.5 37.5q-16 0 -44 -5.5t-44 -5.5t-66 15q25 -43 25 -164q0 -39 -6 -125.5t-5 -132.5v-23l146 -2q7 6 13 6.5t8.5 4.5t8.5 22l9 -16q4 4 25.5 21t29.5 30l-4 6q37 92 37 160z
M662 809q1 3 -3 16t-4 15l-2 -11l2 -14l-12 -4q-7 -65 -22 -80q5 4 12.5 5t11.5 2.5t4 6.5l-6 21l4 14q10 0 12.5 5t1 11.5t1.5 12.5zM725 1087v19l-23 2v-21h23zM897 6q-6 -11 -20 -22q-31 -7 -86 6q-11 9 -29.5 16t-34.5 29q-4 2 -20 8.5t-27.5 12.5t-15.5 12l8 28l-33 19
q-7 28 -16.5 52.5t-11.5 31.5t-5 31.5t2 52.5q2 18 2.5 32.5t-1 28t-2 21.5t-4 20t-5 16t-7 18.5t-7.5 18.5q-2 6 3.5 16.5t4.5 16.5l-23 6q13 26 13 41q0 8 -6 13.5t-13 5.5l-14 -17q-4 5 -6.5 10t-3 7.5t-2.5 4.5t-6 2.5t-13 0.5q-7 0 -17.5 10.5t-17.5 11.5l-10 -6v2
q-12 -4 -18 -4q-13 0 -27.5 8t-19.5 8q-10 -8 -52 -20v-41q1 -47 -2.5 -135t-3.5 -125q0 -102 17 -191q9 -4 45 -4q29 0 39 -15t10 -46q-9 -1 -47 -7.5t-58 -6.5q-17 0 -293 6q-12 12 -12 30q0 17 10 37q37 -8 60 -20l6 10q-2 7 -12 10q1 2 14.5 10t26 21.5t12.5 28.5
q0 9 -4 28t-4 29q0 20 14 31q-1 18 -4.5 52.5t-5.5 63t-2 52.5q0 47 8 86q-6 24 -7 50.5t1 63.5t2 52q0 58 -14 104h8l2 35q0 22 -10 45h10l-2 20q0 25 4 75.5t4 74.5q0 75 -23 125q-18 7 -37.5 10t-28 3.5t-17.5 7.5t-13 22.5t-8 46.5q30 10 57 10q12 0 33 -4t31 -4l14 6
l51 -6q2 2 9 2q26 0 76 -14.5t75 -14.5q29 0 88 13.5t90 13.5q12 0 70 -16t65 -13l-4 -6q0 -5 11 -22l2 -19l22 2q96 -80 96 -217q0 -185 -61 -217l-16 10q0 -23 -11 -34q-4 -8 -11.5 -15t-13.5 -11.5t-17 -9.5t-16.5 -7t-19 -7t-16.5 -6q1 0 -2 -3t-2 -3q39 -14 59 -37
q1 -1 13.5 -2.5t15.5 -7.5q3 -4 -2.5 -8t-3.5 -6q19 -22 37 -27q6 -9 17 -45t28 -49v-29q1 -3 -8 -10t-9 -10t13 -9.5t14 -9.5q1 0 1 -30l-1 -29q0 -24 -6 -45q11 -28 12.5 -82.5t7.5 -77.5q5 -23 22 -40t31.5 -26.5t14.5 -15.5z" />
    <glyph glyph-name="s" unicode="s" horiz-adv-x="882" 
d="M98 178h21q-15 24 -37 49zM702 104h17v17h-17v-17zM721 117h12v10h-12v-10zM702 152h17v14h-17v-14zM168 725h12v12h-12v-12zM721 209h12v10h-12v-10zM750 188h14v13h-14v-13zM215 723l12 10l-4 33l-20 -39zM139 926l17 51h-19v-21q0 -5 1 -15t1 -15zM653 463l17 10
l-64 16l29 -26h18zM647 506h21v20h-21v-20zM160 1020l35 57q-28 -14 -37 -35zM715 879l8 94h-18v-21q0 -13 4.5 -38.5t5.5 -34.5zM725 1038h18l-6 29l-12 -8v-21zM842 236h-15q-14 0 -14 -5l8 -10q2 -6 2 -18q0 -17 -8 -17q-7 -16 -15.5 -30t-22 -28.5t-22 -24t-28 -24.5
t-26.5 -20t-30.5 -21.5t-27.5 -19.5q-17 -5 -55.5 -18t-68.5 -20t-58 -7q-123 0 -248 76l-16 -4q-1 13 -2.5 17.5t-4 6.5t-11 7t-17.5 12l-6 -2l-6 -6l10 -10q-15 -11 -18.5 -27t-2 -26.5t-15.5 -18t-58 -6.5q0 8 1 25.5t1 25.5q0 13 -9 45q3 3 8.5 7.5t9.5 9t7 8.5
q-5 3 -10 22h-2l6 17l-4 -5q-1 0 -2 1.5t-2 1.5q3 7 4.5 22t3.5 21q-5 4 -35 4q9 28 7.5 73t2.5 70v2h2l-14 8v31h8q0 2 -4 14t-4 19q0 13 24.5 31t38.5 18q13 0 39 -21q-1 -3 -1 -17.5t-3 -21.5q5 -10 6 -34.5t21 -42.5q-6 -9 -6 -19q0 -20 19.5 -62.5t19.5 -43.5
q4 -2 9 -9.5t11 -7.5q5 0 17 4l2 -10q3 -23 27 -39t30 -24q18 0 49 -16t47 -19q10 -1 36 -4.5t40 -3.5q71 0 90 37q9 16 24 20.5t27.5 3t21.5 7t9 32.5q7 2 9.5 3t5.5 1.5t4 3t2 3.5t2 6t2 8l-5 6l11 8l-2 2q4 26 8 35v8q0 7 4 20.5t4 20.5t-20 14l20 21q-4 6 -15.5 22
t-17.5 24.5t-17 20t-22 19t-24 12.5q-10 21 -31 34t-51.5 24t-42.5 18l-10 -2q-15 -1 -38.5 14t-39.5 12q-146 75 -234 154q-4 13 -16 21q-1 1 -4 3t-5.5 4t-2.5 3t1.5 5.5t2 7t-1.5 5.5l30 2q-28 21 -41 21q-26 59 -26 141q0 69 24 131l25 16v5q-1 9 10 25t13 22
q5 4 25 22.5t28.5 24.5t25.5 17.5t32.5 16t33.5 5.5l8 24q40 -16 78 -16q23 0 68 6t67 6q32 0 59 -6q0 -14 9.5 -19t21 -5t22 -7.5t11.5 -23.5l25 -11q0 5 -2.5 15.5t-2.5 15.5q0 11 11 29h45q62 0 59 -51v-9q-12 -21 -12 -43q0 -34 20 -67l-18 6q10 -20 10 -51
q0 -30 -8 -49q1 -6 4.5 -17.5t5.5 -21t2 -17.5q0 -22 -12.5 -44.5t-32.5 -22.5q-24 0 -63 26l14 11q-11 22 -16.5 71.5t-30.5 81.5l2 8q0 9 -5.5 17t-17.5 17.5t-14 11.5q-14 4 -37.5 23t-40.5 20q-34 22 -80 22q-38 0 -133 -31q-15 -6 -29 -22t-20.5 -27.5t-19 -38.5
t-13.5 -30v-5q0 -6 3.5 -18.5t3.5 -19.5q0 -14 -13 -27q12 -51 99 -105q2 -2 7.5 -11.5t10.5 -14.5l12 18q7 -28 25 -33.5t24 -13.5q6 2 21 2q21 0 41 -7t49 -23.5t37 -20.5h8q17 1 33.5 -7t36.5 -23t30 -21q73 -38 125 -129.5t52 -177.5q0 -19 -11.5 -40t-11.5 -24t4 -7.5
t9 -7.5t11 -6.5t7 -4.5z" />
    <glyph glyph-name="t" unicode="t" horiz-adv-x="798" 
d="M352 172h13v8h-13v-8zM479 295h13v12h-13v-12zM379 739v13h-10l2 -37q0 2 4 12.5t4 11.5zM119 1008h14v14h-14v-14zM453 684h8v12h-8v-12zM367 776h14v15h-14v-15zM461 770h10v10h-10v-10zM365 932l6 35h-9v-11q0 -12 3 -24zM479 952l25 52h-12v-9zM494 1018h12v12h-12
v-12zM725 838h12v12h-12v-12zM432 1153l12 8v13l-12 -7v-14zM723 868h14v17h-14v-17zM778 1149q0 -14 -12 -36.5t-12 -29.5q0 -9 14 -28q6 -147 6 -156q0 -100 -14 -141q-3 -10 -10.5 -14t-20 -4t-16.5 -1q-22 35 -31.5 100t-12.5 117t-32 96t-90 52q-5 -4 -7.5 -9t-3.5 -11
t-1.5 -10t0 -12t0.5 -11q0 -20 -11 -31q8 -8 8 -14q0 -5 -5.5 -12t-6.5 -9q6 -41 6 -121q0 -43 -3 -129t-3 -129t12 -121q-16 -31 -16 -71q0 -29 8 -119l-18 4v-8h4q6 0 6 -4l-6 -6q14 -3 14 -17q0 -5 -4 -14t-4 -14q0 -1 6 -13l-4 -4q8 -4 8 -12q0 -5 -6 -17l23 -10
q-23 -12 -23 -24q0 -5 2.5 -14t1.5 -17q1 -1 7.5 -10.5t11 -13.5t15 -8.5t24.5 -4.5q9 0 15 2t15 2q43 0 58 -41l4 -2q-9 -8 -12.5 -21.5t-5 -22.5t-16.5 -16t-46 -7q-12 0 -34 4t-34 4q-23 0 -53 -15q-16 19 -43 19q-6 0 -17 -3t-16 -3q-8 0 -19.5 7.5t-15.5 8.5l-165 -14
q-29 24 -29 41t27 26l-13 9q13 3 37 12t33 12l8 8q0 -2 4 -2l10 12q9 13 21 13q2 7 11.5 46t17.5 60q-8 16 -12.5 47t-8.5 43q12 14 12 41q0 12 -3 37t-3 39q0 9 1 27.5t1 27.5l11 -6q-11 37 -11 80q0 55 8 99q-8 21 -8 51q0 31 5.5 95t5.5 95q0 25 -5.5 76t-5.5 76
q0 23 6 47q-16 4 -24 4q-37 0 -105 -33q-1 -9 -11 -33t-3 -43q-18 -3 -18 -22q0 -11 4 -19l-10 -6l4 -4l-13 -31l6 -120l-10 -11l4 -2q-18 -41 -53 -41q-10 0 -16 2l-23 33v248h-29q18 18 26 33.5t9 24t-0.5 32.5t-1.5 37q0 19 2 27q27 18 64 18q12 0 34.5 -4t32.5 -4h70
q1 -1 3 -2l6 -3t6.5 -3t2.5 0q-1 8 7 8h88q8 12 18 12q5 0 11.5 -3t11.5 -3h22q0 -10 8 -10l4 16l7 -6q1 0 4.5 1t5.5 1q219 0 225 -6q21 -12 23 -12q12 10 16 10q20 -4 41 -4q12 -20 12 -35z" />
    <glyph glyph-name="u" unicode="u" horiz-adv-x="970" 
d="M272 115v8h-10v-8h10zM229 164v10h-8v-8zM313 88v8h-8v-8h8zM260 170v12h-12v-12h12zM295 182v11h-12v-9zM301 229v13h-8v-13h8zM322 272v9h-13v-9h13zM252 379l2 8h-12v-8h10zM260 635v8h-12v-8h12zM217 686v8h-8v-8h8zM299 608v8h-8v-8h8zM246 690v12h-10l-3 -12h13z
M281 705v8h-11v-8h11zM287 750l2 12h-10v-12h8zM307 793v8l-10 2v-10h10zM240 899v8h-13v-8h13zM752 467l4 37l-15 -25v-12h11zM766 981v10h-8v-10h8zM717 1128v11h-10v-11h10zM846 1159v8h-10v-8h10zM920 1159q1 -9 -10 -25t-13 -24q-33 -1 -49.5 -19t-26.5 -53l13 -45
q-1 -1 -4 -3l-10 -9h1l-8 -6l6 12q8 -27 8 -61q0 -43 -8 -76q12 -12 12 -35q0 -19 -3 -66.5t-3 -68.5v-336h-10q-1 -61 -5 -99t-16.5 -85.5t-42 -84t-75.5 -65.5q-51 -33 -164 -33q-79 0 -197 25q-2 12 -14 19t-23.5 10t-18.5 14.5t1 32.5q-3 3 -9 10t-9 10l-17 -14
q-29 17 -41.5 42.5t-19.5 58t-19 51.5q17 17 17 28t-6 33t-6 35h8q4 20 4 33q0 23 -9.5 69t-9.5 70q0 35 15 65q-11 25 -11 62q0 15 3.5 46t3.5 46q0 29 -17 63l17 17v264l-39 18q11 17 41 17q-2 5 -9 7t-13.5 2t-16 -0.5t-11.5 -0.5q-18 0 -22 8v-2l-21 2v4q0 4 -11 14
t-11 19q0 7 4 23l25 18l395 -2q22 -9 22 -33q0 -13 -8 -33q-19 -17 -43 -21t-40 -4t-30.5 -9.5t-22 -44t-7.5 -101.5q0 -48 31 -102q-31 -7 -31 -45q0 -17 6.5 -60t3.5 -67q8 -13 8 -39q0 -13 -5 -38t-5 -38q0 -25 5 -74t5 -75q0 -51 -20 -82q24 -18 24 -47q0 -38 -12 -56
l4 -16l-8 -8h2v-13q33 -55 70 -88.5t88 -33.5q77 0 120 17.5t78 72.5q-2 4 -2 12q0 16 11.5 48t11.5 48q0 7 -4 20.5t-4 20.5q0 13 9 38t9 38q0 15 -16 35l18 18h-2q-9 -2 -26 6q3 3 5 5.5t4 4t2.5 4t1.5 3.5t1 4v4v5.5v6.5q0 4 1 11.5t1 11.5h6q10 92 10 112q0 42 -9.5 129
t-10.5 93l14 8l-4 2q-4 10 -4.5 21.5t1 26.5t1.5 23q0 9 -4 26t-4 26q0 13 3 38t3 39q0 46 -29 64h-24q-22 0 -27 16q-12 9 -12 25q0 18 22 49q19 -4 39 -5t53 0t41 1q3 0 15 0.5t22 0.5t24.5 -0.5t26 -3t22.5 -6t17 -10.5t7 -16zM774 1032v-8v8z" />
    <glyph glyph-name="v" unicode="v" horiz-adv-x="872" 
d="M418 27v20h-12v-18zM516 279v20h-14v-20h14zM424 375v20h-18l-3 -18zM422 457v20h-14v-18zM410 492l2 20h-15l-2 -20h15zM330 762l2 20h-15l-2 -18zM238 860l2 19l-21 2v-21h19zM236 942v19l-15 2v-21h15zM180 1108v18l-20 2v-20h20zM223 1151v20h-14v-20h14zM717 1087
l14 11h-18l-6 -41zM799 1130l20 19q-8 0 -14.5 -4t-15 -11.5t-15.5 -11.5zM852 1171q0 -22 -12.5 -33t-33 -19.5t-30.5 -18.5h-20q1 -1 6 -9.5t6 -13.5l-29 -16q6 -9 6 -23q0 -8 -4 -20h-4q-4 -30 -20 -83.5t-19 -64.5h-6l10 -6q-13 -26 -35 -120.5t-51 -127.5q7 -21 7 -34
l-1 -29q0 -29 1 -29q-19 -6 -19 -14q0 -4 2 -13t2 -14q0 -6 -4 -18l-12 -4h2l-2 -2q4 -32 -13.5 -90t-19.5 -80q-1 -18 -3.5 -34.5t-7 -34.5t-7 -28.5t-10.5 -31.5t-10.5 -28t-13 -32t-13.5 -32q-21 -57 -21 -84h-24q-101 0 -101 69q0 5 2 17t2 18q0 20 -13 60t-13 67
q0 11 -19.5 38t-19.5 46q0 12 8 20q-13 36 -27.5 113t-29.5 115v6q0 28 -18.5 87t-14.5 93q-9 22 -32.5 130t-56 184.5t-79.5 80.5q-9 5 -12 15t-3.5 24.5t-1.5 20.5q88 6 179 6q89 0 174 -6q6 -48 6 -51q0 -12 -9 -21t-19.5 -13.5t-16 -13.5t-0.5 -22l-15 -12
q8 -15 10 -63.5t21 -65.5q9 -24 23 -81.5t26 -86.5q-2 -8 -2 -27q0 -31 22 -90.5t19 -101.5q46 -98 43 -162h8q14 34 32 113.5t38 119.5h4l-8 6q8 22 16 64.5t11 54.5q9 11 12.5 40t7.5 38q60 118 57 266v23q-4 5 -14 7.5t-19 4t-16.5 8t-7.5 19.5q0 8 4 28.5t4 22.5l240 -2
q0 -3 1 -9.5t1 -9.5z" />
    <glyph glyph-name="w" unicode="w" horiz-adv-x="888" 
d="M274 182l21 35l-29 43q12 -51 8 -78zM436 520l-28 -6q4 -8 6 -17.5t3.5 -22t2.5 -19.5q2 0 2 14q6 40 8 49q2 4 4 4t2 -2zM610 322l-10 8v-2q0 -7 -8 -13q-2 -2 -2 0l-4 -12q5 2 11.5 9.5t12.5 9.5zM406 625h14v20h-14v-20zM311 748l4 10h-30q20 -10 26 -10zM551 557
l-21 4l-10 -16l8 -41q2 32 23 53zM291 852l16 -16l-10 43h-14zM430 745h31l-10 13h-13zM227 963h23l-6 16l-13 -2zM70 1139l34 -21l-16 33h-12zM582 655l2 11h-29q17 -11 27 -11zM506 725l6 23l-14 24l-6 -61zM559 752l6 34h-14v-20zM498 870h22l-6 17l-12 -2zM500 1112
l22 4l-12 23l-10 -60v33zM729 1008l8 10l-14 14l-8 -10zM868 1165q0 -23 -30 -53q-6 6 -15 6q-16 -14 -26 -16q-28 -60 -38 -133.5t-13.5 -161.5t-12.5 -139q-8 -54 -16.5 -154.5t-11.5 -124.5q-8 -14 -10 -27.5t-0.5 -35t1.5 -27.5q0 -57 -24 -173t-27 -140q-33 14 -49 14
q-22 0 -43 -14q-16 115 -16 133q0 17 4 51t4 51q0 29 -15 41q-17 60 -28 177t-25 171l-8 8l-12 -16q-3 -56 -22 -201.5t-19 -224.5q-5 -3 -8 -7.5t-4 -10t-1.5 -9.5t0 -11.5t0.5 -10.5q0 -9 -7 -23t-7 -22q0 -10 3 -31t3 -31q0 -20 -12 -20q-27 -12 -61 -12q-13 0 -37 8
q-16 20 -19 63t-16 62q6 9 6 16q0 8 -8.5 31.5t-1.5 40.5q-33 74 -47 160q-2 20 -2.5 56.5t-1.5 47.5q-4 75 -29 195q-11 48 -29 192.5t-45 220.5q-2 7 -6.5 12.5t-8 8.5t-11 4.5t-11.5 2t-13 1t-13 0.5q-9 21 -9 51q0 20 3 35q28 4 43 4q33 0 96 -16.5t96 -16.5q23 0 94 23
l-2 -78q-5 -4 -19.5 -10t-23 -14t-6.5 -23l-10 -6q8 -11 8 -27q0 -6 -3 -19.5t-3 -19.5q0 -12 8 -32h-2l2 -21l23 -14q-9 -18 -9 -37q0 -21 15 -60t18 -55q3 -14 6.5 -52.5t9 -70t13.5 -45.5q10 18 13.5 79.5t27.5 82.5l-8 2q4 33 11 132t18 166.5t34 127.5q15 0 33.5 -8
t19.5 -8q4 0 10.5 5t8.5 9q-1 -83 9.5 -164t35 -204.5t31.5 -161.5q-5 -35 -5 -41q0 -37 11 -62q10 15 16 64t16 67q3 37 7.5 117.5t10 140t15.5 115.5v6q2 21 -25.5 42t-27.5 46q0 15 6 33q24 -4 39 -4q18 0 56 5t57 5q21 0 61 -8q10 -10 10 -25z" />
    <glyph glyph-name="x" unicode="x" horiz-adv-x="870" 
d="M154 39h12v12h-12v-12zM180 39h17v12h-17v-12zM180 86h8v18h-8v-18zM213 180l-18 -20l2 -2l4 2l4 6q1 2 1 -1l-1 -24l4 2q8 33 4 37zM590 72h12v12h-12v-12zM598 98h14v17h-14v-17zM598 137h14v13h-14v-13zM573 182h15v17h-15v-17zM713 88h16v16h-16v-16zM528 336h15v12
h-15v-12zM422 492h14v14h-14v-14zM449 510h16v12h-16v-12zM535 510q-4 2 -11 2q-8 0 -14.5 -14.5t-13.5 -14.5q4 -4 10 -4q8 0 15 15.5t14 15.5zM496 635q-4 2 -11 2q-16 0 -24 -21q3 2 12 4t16 5.5t7 9.5zM449 733l-43 121l-19 18q20 -75 62 -139zM219 991h17v17h-17v-17z
M137 1077h13v10h-13v-10zM193 1038h14v15h-14v-15zM172 1104h33v8l-6 -2q-9 0 -15 12zM231 1104h11v10h-11v-10zM723 1135h12v16h-12v-16zM850 -2v-10l-295 -6q-3 1 -18.5 5.5t-27 9t-11.5 7.5q0 24 14 66l49 6q-14 18 -14 53q12 18 10 25h-29q4 12 4 22q0 13 -24 46.5
t-21 60.5q-18 19 -33 43.5t-32 58.5t-25 49q-13 -10 -18 -20l8 -6q-9 -16 -29.5 -51t-31.5 -55t-25 -51t-22 -58q-21 -24 -40.5 -62t-19.5 -63q15 -5 33 -5q7 0 11 -4.5t5.5 -13.5t1.5 -16.5t-1 -17.5t-1 -13q-51 -10 -127 -10q-59 0 -106 8q5 10 6 31.5t7.5 32.5t25.5 12
q38 3 58.5 23.5t14.5 56.5q10 0 14 3t4.5 6.5t0.5 12.5q0 10 31 72q24 6 26 6q-6 0 -6 10q0 22 23 45q53 114 120 236q-14 21 -38.5 75.5t-45.5 81.5v7q0 15 -14.5 37.5t-13.5 37.5q-19 17 -33.5 62.5t-30.5 62.5v6q1 14 -12 39t-14 37q-12 13 -31.5 45.5t-39.5 49t-52 14.5
l-2 4q0 5 7 13t7 13q0 6 -13.5 18t-13.5 15q0 2 25 27h313q29 -25 29 -49q0 -22 -13 -31t-31.5 -13.5t-25.5 -13.5q2 -8 13.5 -28t11.5 -33q0 -11 -8 -19v-8q45 -83 55 -98l-39 84l12 4q15 -26 39.5 -85.5t40.5 -86.5q8 -7 17 -25t12 -22q6 13 21 49.5t28 60t31 41.5
q10 2 29 21l24 57l-20 -26l-6 -9l-3 -2v-2l3 2q2 6 16 37t23.5 55.5t9.5 32.5q0 15 -4 21q-24 -6 -27 -6q-2 0 -12 10q0 53 2 80h32q23 0 33 8q24 -12 54 -12q17 0 46 9t44 9q22 0 47 -18v-29q0 -19 -2 -29.5t-11 -19t-26 -8.5q-10 0 -17 -11q-9 9 -14 9q-6 0 -15 -5.5
t-16.5 -11.5t-17.5 -15.5t-12 -10.5q-10 -25 -34 -70t-32 -61q-5 -10 -13.5 -33t-13.5 -33q-2 -5 -11 -14t-11 -15l6 -14l-22 -33l8 -8q-22 -15 -33.5 -31t-22 -45.5t-16.5 -40.5q18 -32 35.5 -68.5t38 -84.5t31.5 -72q7 -14 41.5 -102.5t64.5 -130.5q4 -45 41 -101
q7 -11 22.5 -14.5t28 -4t22.5 -19t9 -58.5z" />
    <glyph glyph-name="y" unicode="y" horiz-adv-x="937" 
d="M410 94h18v21h-18v-21zM408 250h16v16h-16v-16zM670 39h14v16h-14v-16zM385 465l4 6h-4v-6zM393 459h6v12h-6v-12zM532 356h15v13h-15v-13zM535 559h10v12h-10v-12zM209 983h16v10h-16v-10zM248 963h12v12h-12v-12zM154 1116h20v21h-20v-21zM201 1155h12v21h-12v-21z
M610 1137h39q2 25 -27 8zM727 1122l18 11l-6 10h-12v-21zM778 1155l19 4l-15 10h-14zM918 1190q-10 -25 -25.5 -39.5t-27 -19t-38.5 -10.5t-41 -11q-135 -354 -186 -575l-8 -7q-3 -4 -1.5 -29t1.5 -26q0 -14 -10 -31q-9 -61 -9 -84q0 -19 9 -84h-9l2 -8l-10 -12
q17 -4 17 -18q0 -4 -4.5 -13.5t-4.5 -13.5q0 -3 7 -10l-7 -4q11 -7 11 -15l-9 -16l5 -2l16 -8q-1 -1 -5.5 -4.5t-7.5 -6.5t-5.5 -7t-2.5 -7q0 -5 4.5 -14t4.5 -15q7 -9 18.5 -13t20.5 -3.5t24.5 1.5t22.5 1q16 0 26.5 -3.5t15 -7.5t14 -15.5t15.5 -18.5q-9 -6 -11.5 -24
t-15.5 -30t-52 -12q-12 0 -36 4.5t-36 4.5q-21 0 -55 -15q-14 19 -46 19q-14 0 -20 -2q-8 -4 -12 -4q-6 0 -12 2t-12.5 5.5t-10.5 4.5l-172 -12q-25 25 -25 41q0 15 27 28l45 -6q27 11 61 21h9q4 0 4 2q0 4 -21 4q-5 0 -16.5 -2t-16.5 -2v2q0 10 14 27.5t25 17.5
q3 10 11 45.5t16 54.5q-10 7 -10 16q0 5 4 15t4 16q0 4 -7 9t-7 10l6 10q-8 11 -8 28q0 15 8 30t8 20q0 10 -8 28.5t-8 28.5q0 11 8 23q-11 4 -29 8l37 24q-15 15 -27 15v14q-6 5 -9 10t-3 8.5t1 10t1 10.5q0 6 -8 14q-7 19 -39.5 88.5t-38.5 112.5q-21 37 -49 114
t-59 137.5t-76 94.5q-6 4 -21 5t-24 8t-9 26q0 23 29 37q16 -4 23 -4q12 0 30 8t29 8q21 0 37 -8q79 8 180 8q16 0 23 -12t12 -32t14 -30q-50 -4 -63 -30l10 -11l-8 -6q8 -8 8 -16q0 -5 -3 -14.5t-3 -14.5q0 -6 4 -10q58 -123 84 -162q22 -35 47.5 -115t46.5 -116
q13 17 10 30q-7 22 -14 33l21 -4q-1 1 0.5 5t3.5 8.5t2 5.5q-3 6 -0.5 9t6.5 3.5t8 5t4 14.5q0 18 17 35l104 297q-2 5 -4 16t-5 18.5t-9 10.5l-72 10l-8 -8q1 1 4.5 10t5 13t5.5 13t7 13.5t8 11.5t9 10.5t10 6t12 2.5q22 0 66 1t72 1t66 -2t69 -8z" />
    <glyph glyph-name="z" unicode="z" horiz-adv-x="819" 
d="M135 188q0 3 -2 5q-35 -71 -72 -138q19 16 46.5 63.5t27.5 69.5zM256 295h29v20l-29 -2v-18zM287 410l14 12l-12 14l-15 -12zM741 121h17v14h-17v-14zM371 535h22v20h-22v-20zM430 551h35v20h-35v-20zM76 928h16v14h-16v-14zM66 969h16v14h-16v-14zM446 631h13v16h-13
v-16zM92 1030h14v12h-14v-12zM90 1139h10v12h-10v-12zM588 823l6 19l-21 6l-6 -21zM590 862h12v12h-12v-12zM571 1067h15v20l-15 -2v-18zM647 1102h21v20h-21v-20zM788 147h-22l8 9l-12 -162h-62q-28 0 -86 -4t-86 -4q-20 0 -58 6t-58 6q-27 0 -80.5 -6t-81.5 -6
q-18 0 -56.5 2t-58.5 2q-49 0 -80 -15q-24 8 -24 25q0 1 1 4t1 4l20 4l8 15l-22 2v14q0 15 8 34.5t22 45t17 33.5q20 41 51 116.5t43 102.5q16 2 18.5 20t6.5 40t24 32q0 22 22 51.5t25 34.5q2 3 56 127q15 30 44 82.5t36 66.5q2 5 5 17.5t5 17.5q6 13 21.5 36.5t21.5 37.5
q7 14 25.5 45.5t30.5 56.5t18 50l12 10l-8 2q-5 0 -14 -4t-13 -4q-10 0 -18 12q-5 -31 -43 -31q-30 0 -86 17.5t-84 17.5q-35 0 -62 -25t-42 -65t-22.5 -74t-11.5 -69h-4q7 -10 7 -50q0 -17 10 -34q-15 -9 -27 -11.5t-28.5 -2.5t-26.5 -1q-28 15 -30 54.5t-11 52.5
q18 26 18 67q0 37 -12 56q6 55 14 172q15 1 96.5 10.5t125.5 9.5q68 0 161 -33l33 19l244 14v4l14 2q14 1 22.5 -2t12 -10.5t4.5 -13.5t1 -19t1 -20q-33 -62 -89.5 -206t-98.5 -216l18 16q-19 -27 -38 -59t-31.5 -55t-33 -62.5t-30.5 -58.5q-3 -7 -9.5 -25.5t-13 -30.5
t-16.5 -20l8 -4q-9 -13 -22.5 -35t-25.5 -40t-25 -34l-7 -39q-8 4 -16 4q-12 0 -12 -16q-5 -11 -8 -12q4 -12 4 -15q0 -12 -12 -33t-11 -34l-29 -37q-4 -33 -14 -45h16q7 0 12 -6t7 -6q4 0 8 4q3 5 6.5 9t6.5 7t7.5 5t6.5 3.5t7.5 2.5t7.5 2t9 1h9h10.5h11.5q8 0 17 -1
t19.5 -2.5t16.5 -2.5q14 -1 32.5 -10.5t29.5 -9.5q28 0 42 1t34 6.5t32 19t19 36.5q5 15 20.5 46t22.5 56t2 50l10 8q-6 5 -8.5 13t-2.5 14t0.5 17t0.5 15q0 16 -10 33q21 21 57 21q50 0 53 -41q-14 -5 -14 -13q0 -6 10 -26t10 -31v-10q-12 -19 -12 -57q0 -54 22 -91z" />
    <glyph glyph-name="braceleft" unicode="{" horiz-adv-x="612" 
d="M358 348l29 -10zM412 328h8v12h-8v-12zM395 393h13v10h-13v-10zM248 559h12v10h-12v-10zM426 858h10v10h-10v-10zM387 1165h14h-14zM387 1257h10v13h-10v-13zM694 1522q-21 -13 -63 -29t-74 -34.5t-51 -47.5l10 -10q-47 -105 -33 -252q-5 -14 -6 -27.5t0.5 -33.5t1.5 -29
q0 -72 -26 -135q10 -10 10 -23q0 -12 -8.5 -32t-8.5 -31q0 -12 7 -19h-4q-4 0 -8 -3t-8.5 -7.5t-6.5 -5.5q12 -6 12 -10q0 -12 -9 -17.5t-19 -7t-17.5 -8.5t-5.5 -21q-3 0 -5.5 -6t-2.5 -10q-6 -10 -19.5 -19.5t-26 -14.5t-32 -12t-25.5 -9q-4 4 -10 4q-8 0 -28.5 -16.5
t-32.5 -16.5q-5 0 -17 6l-22 -27q18 -23 54 -29.5t72 -14t54 -33.5l8 10l27 -31l6 6q18 -12 31.5 -29.5t20.5 -32t12 -40.5t6.5 -39t3 -44t2.5 -40q1 -12 6 -35.5t6 -36.5q4 -27 8 -77h-8v-48q-3 -66 17 -143q-15 -5 -15 -16q0 -7 7.5 -19.5t7.5 -19.5q15 -12 44.5 -60.5
t63.5 -58.5l10 8q24 -24 33 -24q8 0 12 8h11v-6q0 -7 -9.5 -10t-23 -4.5t-17.5 -4.5q-4 10 -11.5 12t-20.5 -1t-17 -3q-5 0 -18 9q-14 11 -56 19t-70.5 22t-25.5 45q-18 5 -28.5 27.5t-14.5 27.5q4 16 4 22q0 20 -11 56.5t-11 54.5q0 21 10 41q-16 5 -16 14q0 5 5 13.5
t5 13.5q0 10 -8 14q-2 12 -2 37q0 30 5 88t5 88q0 31 -2 45q-16 20 -32.5 64t-22.5 55l-7 -8q-31 38 -74 63t-83 17q-6 17 -20 19.5t-31 4t-27 15.5q11 19 35.5 22t46 5t27.5 18q1 0 5.5 -3t6.5 -3q4 0 20 16q0 -12 8 -12q5 0 17.5 10.5t19.5 7.5l-6 10q4 5 16.5 5.5t19.5 5
t3 18.5l4 2q4 0 12 -8q17 14 17 39v-4q0 -1 6 -13h6q0 29 19 79.5t22 72.5q3 14 0.5 92.5t-2.5 93.5q0 183 18 246q2 6 6.5 17.5t6.5 20.5t2 19q0 17 -2 25l6 -10q26 46 86.5 79t114.5 33q12 0 18 -2l12 -6q6 0 14.5 8.5t14.5 8.5q3 0 14 -11l11 17q2 -13 28 -6z" />
    <glyph glyph-name="bar" unicode="|" horiz-adv-x="786" 
d="M369 -229h14v10h-14v-10zM362 -127h17h-17zM362 -27h15v13h-15v-13zM440 -39h13v8h-13v-8zM391 176l4 37h-8l-20 -25zM356 1139h13h-13zM426 1055l12 35l-24 6v-13zM379 1194h10v10h-10v-10zM399 1546h15v15h-15v-15zM432 1554h10v13h-10v-13zM389 1659h12v8h-12v-8z
M463 1720l16 -116q-24 -30 -24 -91q0 -27 8 -77q6 -3 8 -8t1 -10t1 -11l-16 -16q12 -12 12 -15q0 -2 -8 -23.5t-8 -37.5q0 -21 5 -61t5 -60q0 -31 -6 -55q12 -12 12 -31q0 -10 -6 -30.5t-6 -30.5q0 -9 7 -26.5t7 -27.5q0 -9 1 -15t1 -15q0 -3 -1 -10t-1 -13t2 -10l-16 -17
q1 -3 8.5 -8.5t7.5 -11.5v-2l-16 -17q8 -13 8 -30q0 -10 -5 -30t-5 -30q0 -22 18 -34q-16 -33 -16 -78q0 -23 5 -52t1 -61q8 -12 8 -20q0 -9 -6.5 -23.5t-7.5 -21.5l16 -17q-22 -9 -22 -22q0 -5 4 -17.5t2 -21.5q12 -9 12 -23q0 -7 -3 -20t-3 -19q0 -13 10 -18l-24 -23
l14 -16q-8 -4 -8 -10q0 -4 1 -11.5t1 -11.5q16 -4 16 -16q0 -8 -8 -21t-8 -14v-8q-1 -18 5.5 -48t6.5 -44q0 -25 -20 -52q5 -26 12 -78.5t12 -78.5h-10q4 -12 4 -21q0 -16 -12 -53t-6 -59q-7 -3 -17.5 -8t-14.5 -6.5t-13 -3t-21 -1.5q-35 0 -59 8q-1 6 -8 16.5t-7 16.5
q0 12 15 17q-1 0 -5 3t-6 3.5t-6 -0.5q17 13 17 24q0 9 -8.5 27.5t-8.5 28.5q4 10 6 19.5t2.5 14.5t0 18t-0.5 19l2 23q-10 8 -10 22l17 17q-5 4 -6.5 14.5t0 25.5t1.5 17q0 21 -12 39q9 44 10.5 101.5t-1 103t0.5 102.5q-4 0 -4 6t4.5 17.5t4.5 17.5q0 13 -15 21
q13 18 15 54.5t8 49.5q-17 10 -17 27q0 14 9.5 8t9.5 8q0 22 -15 37q-2 4 -2 16q0 14 8.5 41t8.5 41q0 16 -15 35q1 10 -0.5 28.5t-1.5 24.5q0 21 15 33q0 19 -7.5 48t-7.5 48q0 31 15 58q-8 16 -8 26q0 8 5 24.5t5 24.5q0 9 -8 29q2 8 2 23q0 18 -5.5 51t-5.5 51
q0 34 15 61q-15 11 -15 29l2 10l13 17l-6 10v129q0 65 -7 106q7 8 7 48q0 25 16 36q10 2 22.5 5.5t22 5.5t23.5 2q10 0 17 -1.5t11 -3.5t12 -6.5t15 -7.5z" />
    <glyph glyph-name="braceright" unicode="}" horiz-adv-x="665" 
d="M207 203h12v12h-12v-12zM295 889h10v14h-10v-14zM285 991h16h-16zM285 1092h12v14h-12v-14zM459 598q-13 -21 -36.5 -35t-44 -30t-32.5 -46l10 -6l-16 -16l2 -6q0 -4 -6.5 -23.5t-1.5 -25.5q-1 0 -5.5 -1.5t-7 -3t-2.5 -4.5q0 -2 2.5 -6.5t2.5 -7.5t-7 -10q1 -1 5 -4
t6 -5.5t2 -5.5q0 -4 -6 -12.5t-7 -13.5q2 -8 2 -27q0 -21 -9 -63t-9 -64q0 -33 23 -71l-17 -17l17 -16q-13 -4 -13 -17q0 -6 4 -17t4 -17q0 -2 -1 -6t-1 -5q-7 0 -11 -3.5t-5.5 -10t-1.5 -12t1 -13t1 -10.5q-11 -17 -21 -52.5t-25.5 -58.5t-47.5 -30l2 -4q0 -2 -16 -2
q-12 0 -19 -10l8 -7q-1 0 -3 1t-3 1q-8 0 -18.5 -8.5t-14.5 -9.5l2 2q0 3 -2 5t-5.5 5t-4.5 4q0 -24 -18 -24q-7 0 -20.5 4t-20.5 4q-17 0 -25 -23h-49v23h4q9 0 12 -10l33 33l6 -7q7 8 28 19.5t35.5 24t14.5 28.5q0 12 -6 21q9 4 15 10t8 15t2.5 14.5t0 18.5t-0.5 17
q0 37 22 52q-14 9 -14 34v43h4q4 0 10 11q-16 27 -16 67q0 30 12 87t12 87l-16 17q9 3 13 9.5t4.5 12t-0.5 16.5t-1 15q0 50 56.5 98t107.5 55q15 2 44.5 14.5t47.5 12.5q9 0 21 -4zM625 637l-33 -33l-33 25l-6 -25q-35 10 -43 10q-24 0 -35 -26v12q0 9 -8 14q3 3 10 8.5
t11 11t4 11.5q-22 4 -72.5 25t-79.5 22q-1 7 -2.5 10.5t-5.5 5t-6 1.5h-9q-8 0 -16 8q0 5 -19 16.5t-42 23t-27 15.5q4 8 4 16q0 12 -17.5 31t-9.5 37q-2 3 -7 8.5t-8 10.5t-3 10l2 4h8q-1 29 -8.5 91.5t-7.5 96.5q0 39 8 72l-14 16q14 20 14 52q0 22 -7 66.5t-7 68.5
q0 9 -12.5 24t-12.5 25q0 4 8 16q-9 27 -30 33q0 1 1 4t1 4q0 3 -2 4.5t-5 1.5t-6.5 -0.5l-7 -1t-4.5 -0.5q-6 0 -6 4q0 5 4 13q-2 -2 -8 -2q-18 0 -31 45q16 -4 45 -8t49 -11t39 -24l8 10q44 -21 75 -64t42 -94l-12 -16l12 -17l-6 -6l23 -26l-17 -13q17 -38 17 -84
q0 -25 -5.5 -76t-5.5 -77q0 -19 4 -47l17 -17l-27 -24q9 -22 24.5 -66.5t24.5 -66.5l-10 -7q11 -4 22.5 -26t26.5 -23l-10 -6q10 -4 55.5 -31.5t73.5 -25.5q3 -6 8 -9.5t12.5 -4.5t13 -1t15 0.5t12.5 0.5q37 0 50 -25z" />
    <glyph glyph-name="asciitilde" unicode="~" horiz-adv-x="1597" 
d="M119 582l45 16v16q-15 -15 -45 -32zM238 604h16v12h-16v-12zM330 627l45 16l-8 8zM414 643h10v12h-10v-12zM440 631h13v16h-13v-16zM506 651h12v15h-12v-15zM440 717h13v16h-13v-16zM776 616h15v17l-35 4zM981 535h16v16h-16v-16zM1198 506h12v16h-12v-16zM1233 553h14
v16h-14v-16zM1290 553h13v16h-13v-16zM1440 608l20 23l-30 -10l-27 -31zM1470 670h13v12h-13v-12zM1516 735q0 -15 -6 -56.5t-3 -64.5h-6q-5 0 -6.5 -3.5t-0.5 -10.5l1 -8l-4 -8q-14 -7 -35 -26t-41.5 -33.5t-40.5 -16.5v-16q-8 10 -22 10q-13 -17 -56.5 -22t-56.5 -23
q-24 -8 -57 -8q-24 0 -72 8t-72 8q-27 0 -43 -8q-59 46 -151 49q0 1 10 16q-8 8 -12 8q-7 0 -11 -8q-3 1 -25.5 9.5t-27 10t-24.5 9t-27.5 9.5t-25 7.5t-28 7.5t-26 5.5t-28.5 5t-27 2.5q-32 16 -70 16q-37 0 -69 -16q-10 16 -29 16q-13 0 -18 -8q-2 3 -9.5 1.5t-17.5 -4
t-12 -1.5q-33 -4 -88.5 -36t-101 -61.5t-54.5 -29.5q-32 0 -41 24q16 8 16 23q0 7 -4 20.5t-4 20.5q0 11 14 22l-6 9q126 132 322 164q8 2 18 2t22 -1t19 -1q32 0 51 16q30 -13 93.5 -19t128.5 -43l24 -43q2 8 9 17.5t14 9.5v-6q0 -3 2 -5.5t3.5 -4t5.5 -3.5t5 -3q30 6 31 6
h8l23 -23q3 8 12 8q4 0 10.5 -1t9.5 -1q2 -1 9 -7.5t13 -10.5t11 -4q4 0 14 10v-10q2 2 11 2t30 -6.5t37 -1.5q15 -19 50.5 -20.5t43.5 -4.5q3 1 10 8.5t9 7.5q6 0 14 -8q9 5 14.5 4.5t16 -3.5t16.5 -3q20 0 31 8q18 19 40.5 26.5t42 8.5t50.5 19.5t64 56.5q2 0 5 -1t5 -1
q9 0 24.5 10t24.5 10t21 -8z" />
    <glyph glyph-name="DEL" horiz-adv-x="2144" 
 />
    <glyph glyph-name="uni00A0" unicode="&#xa0;" horiz-adv-x="450" 
 />
    <glyph glyph-name="exclamdown" unicode="&#xa1;" horiz-adv-x="557" 
d="M211 4h12v16h-12v-16zM246 35h16v12h-16v-12zM238 82h12v12h-12v-12zM211 90h12v14l-6 54zM199 221h16v12h-16v-12zM227 229h15v15h-15v-15zM248 580h12v10h-12v-10zM217 692h10v13h-10v-13zM297 911h10v15h-10v-15zM434 129q-5 -6 -7 -19.5t-2 -24.5t0.5 -28t0.5 -22
l-2 -17q-57 -104 -133 -104q-12 0 -23.5 2t-24 7.5t-20 9t-23 12t-20.5 10.5v6q0 10 -7.5 16.5t-16.5 4.5q-2 14 -16.5 44.5t-14.5 47.5q0 13 6 22q-8 11 -8 25q0 17 20.5 51t20.5 53q0 15 -8 23q24 86 24 131q0 31 -8 55h8q11 61 19 184.5t20 184.5q10 10 10 22
q0 8 -5 24.5t-5 24.5q0 16 19 27q1 5 -0.5 28t-1.5 25q0 75 55 93q24 -45 40.5 -117t16.5 -127q0 -35 -6 -51q1 -8 3.5 -27t3 -23t2.5 -18t2 -17.5t1 -15t1 -18t0.5 -19t0.5 -24v-27.5q0 -27 19.5 -81t19.5 -85q0 -30 -12 -84l-8 -8l-6 -33q19 -5 22 -16q15 -8 15 -18
q0 -2 -3 -12t-4.5 -16t0.5 -9l-8 -11q12 -6 19 -15.5t13 -23.5t11 -22zM412 1372q0 -47 -21 -112q-10 -4 -36.5 -27t-45.5 -23q-12 0 -33 17l-22 -25q-6 12 -35 41l-6 -10q-5 6 -23 35t-34 39q0 7 -1 22.5t-1 22.5q0 100 73 135l6 -2q9 0 27 18v6q2 -3 0 -9t-6 -7h72
q10 -5 26.5 -12.5t21.5 -10.5t14.5 -9.5t12 -12.5t6.5 -17t4.5 -24.5t0.5 -34.5z" />
    <glyph glyph-name="cent" unicode="&#xa2;" horiz-adv-x="827" 
d="M170 297h14v12h-14v-12zM98 440h13v11h-13v-11zM76 508h12v14h-12v-14zM109 518h10v14h-10v-14zM248 508h14v14h-14v-14zM215 621h14v12h-14v-12zM719 236h12v12h-12v-12zM645 864q0 15 -16 31q-21 26 -23 39l-76 35l-12 -6l-8 -3q-7 -4 -12 -4q-12 0 -21 13l-10 -6
q-6 2 -14 2q-13 0 -19 -4q-3 -1 -25 -12.5t-34 -12.5q-2 -20 -27 -49q-6 -5 -20 -23q-6 -6 -19 -59q-26 -77 -26 -404q0 -30 12 -88q12 -45 18 -88q7 -7 11 -20q0 -6 2 -6h2v2q19 31 39 102q22 103 32 139q4 17 17 51t18 59t0 48q16 7 29 47q1 3 3 9.5t3 9.5q0 8 6 14
q1 1 -2 3t-6.5 6.5t-3.5 8.5q1 4 2 14t2 15q0 28 10 41q-4 11 -2 20q2 1 4 4l2 3l8 8l-4 4q55 39 78 43q12 2 39.5 -2t36.5 -2q6 9 6 18zM532 670h11v8h-11v-8zM571 692h17h-17zM610 682h11v12h-11v-12zM594 748h14v10h-14v-10zM739 315l17 -16q-19 -16 -19 -31
q-1 -4 -1 -9.5t0.5 -12.5t0.5 -10q0 -36 -20 -54q4 -8 4 -12l-2 -12q-3 -8 -12 -21t-11 -18q-14 -21 -14 -41q-6 -5 -16 -12t-13 -9q-16 -12 -26 -16q-29 -18 -54 -43l-8 12q-111 -52 -196 -37l-13 -8l6 -6q-40 -45 -53 -100q-17 -59 -22 -115q-11 -6 -11 -10v-8v-11v-4
q0 -4 -2 -12q-33 3 -48.5 16t-18.5 45q5 2 9 4.5t6.5 6t4.5 5.5t3 6.5t1.5 6.5t1 7.5t0.5 6.5q0 17 5 27q0 10 10 20q-10 7 -10 19q0 9 12 25l8 16q1 3 7.5 24.5t6.5 32.5q0 37 -28 51h-23l2 15q0 6 -8 14l-4 4q-2 -2 -10 -2q-19 0 -19 19q-2 2 -2 8l-6 -8l-22 47l-31 -19
q20 37 20 41q0 7 -8 19l-6 6q-10 20 -8 33q-23 9 -23 24q0 5 10 25q6 6 7 8q2 2 2 6t-3 5.5t-10 3.5t-10 3q-2 14 -4 34.5t-2 23.5q-4 32 -14 59h8q-8 94 -8 139q0 62 12 148.5t31 132.5l-2 6q-2 21 18 70q15 11 19 22q1 1 12 29q18 41 43 51q5 1 18 14q11 11 17 23
q25 29 49 27q36 36 94 36q65 0 84 -4q8 -2 13.5 -8t8.5 -12t6 -10t7.5 -1t11.5 15l33 -16v14l4 -4h2q3 19 33 57q24 31 24 51q0 4 -1 9t-2.5 11t-2.5 9q-1 1 -2 3t-2 3h8q19 0 19 4l2 -6q-11 0 -25 -6h-2q1 1 3 4t3 4q18 34 19 41q4 26 8 35q11 45 55 45q11 0 19 -2
q16 -13 16 -31q0 -7 -10 -37q-8 -16 -8 -34q-27 -39 -15 -64q-21 -34 -28 -76q-2 -30 -9 -71q12 -2 23 -17q1 -1 6 -28q0 -17 6 -24.5t29 -8.5q-8 -12 -8 -17q0 -4 4 -12q1 -2 4 -6t4 -6q13 -17 8 -35q14 -21 14 -41q0 -11 -4 -27q0 -6 -4 -22q-7 -24 -2 -45
q-10 -23 -52.5 -58.5t-64.5 -35.5q-10 0 -31.5 4t-31.5 4q-37 0 -43 -41q6 -9 6 -21t-12 -36q-10 -20 -10 -29q0 -27 8 -33q-8 -16 -15 -36t-11 -34.5t-10 -37.5t-9 -33q-4 -12 -9 -32.5t-9.5 -34t-12.5 -32.5q2 -2 2 -6q0 -11 -10 -24q-1 -2 -4 -7.5t-4 -7.5q1 -6 -6 -16
t-7 -16q-4 -24 -4 -35q0 -13 2 -19q3 -1 13.5 -2t15.5 -2h23q14 0 20 -2l12 -8q10 10 27 10q3 0 10.5 4t11.5 4q1 -1 6.5 -7.5t8.5 -6.5q4 0 10 6q0 1 1 3.5t1 4.5q1 1 2 5t2 6q3 15 21 10q-1 2 -6.5 8t-8.5 10h25q6 0 6 2v7v10q0 22 25 26q1 8 16 72q14 47 14 76
q0 19 -14 57l16 -2q7 0 19 8q15 11 26 11q9 0 19 -4q0 -10 8 -13q8 0 10 -2q11 -4 15 -12v-16q2 -10 -2 -25.5t-11 -24.5z" />
    <glyph glyph-name="sterling" unicode="&#xa3;" horiz-adv-x="1081" 
d="M389 55h14v13h-14v-13zM625 111l51 -7l-39 15zM823 88h11v14h-11v-14zM475 477h14v17h-14v-17zM874 137h13v13h-13v-13zM389 625h14v14h-14v-14zM356 748h11v10h-11v-10zM258 979h16v18h-16v-18zM352 936h13v18h-13v-18zM309 1001h17v13h-17v-13zM485 831h11v15h-11v-15z
M582 776l22 10l-37 5v-15h15zM424 958l31 -40l-19 57h-12v-17zM352 1030h13v17h-13v-17zM250 1139h12v16h-12v-16zM373 1073h12v12h-12v-12zM293 1290h16v17h-16v-17zM412 1403l20 24l-33 -8v-16h13zM881 1202h14v15h-14v-15zM915 1212h15v11h-15v-11zM848 1323h10v14h-10
v-14zM539 647v-14h-11v14h11zM1020 324q0 -36 -25 -113q6 -9 6 -21q0 -18 -24.5 -59t-24.5 -68l-80 -69l-6 8q-5 -9 -13 -16t-13.5 -10t-19 -5t-17.5 -2h-21h-18q-35 0 -55 -10l-19 29q-8 -15 -20 -15q-7 0 -15.5 3.5t-17.5 9.5t-14 8h-21q-55 -3 -92 37q-6 -11 -12 -11
q-4 0 -13.5 10t-17.5 9q-12 -4 -21 -4q-14 0 -43 6t-43 6q-21 0 -32 -8q-12 4 -21 4q-25 0 -81 -27.5t-81 -27.5q-46 0 -41 69v17l76 67v-4q0 -2 10 -12q64 50 122.5 128.5t58.5 141.5q0 15 -5.5 52t-3.5 57q-7 6 -10.5 16t-4 16t0 21t0.5 18q0 30 -29 33q13 13 13 23
q0 11 -18 29.5t-11 33.5h-4q-5 -1 -14 9t-13 10q-6 0 -14 -8l-16 24q-7 5 -50.5 1.5t-48.5 -3.5q-52 0 -82 21q5 6 7 24t8 21q13 5 34.5 8t37 4t16.5 0q1 0 10.5 -9t11.5 -10q1 0 5 6t10.5 12.5t11.5 8.5q8 3 34.5 0.5t28.5 1.5q-23 25 -37 105.5t-30 107.5q0 3 1 7.5t1 6.5
q0 10 -6 29t-6 29q0 15 16 35q-8 8 -8 26q0 20 13 58.5t13 60.5q0 17 26.5 57t43.5 47q9 29 36 50.5t60 29.5q5 19 20 28t32 10t36.5 5t30.5 15q24 -9 55 -9l37 1q37 2 37 -1q18 11 35 11q14 0 43 -5.5t45 -5.5q2 -1 31 -19.5t47 -14.5q106 -64 119 -205q-25 -62 -25 -96
l-4 -2q-2 0 -4 1t-3.5 2t-3.5 2.5t-3 2.5q-3 -5 -5.5 -9t-5.5 -7.5t-4.5 -5.5t-5.5 -4.5t-5 -3.5t-6.5 -3.5t-7 -3t-8.5 -3t-10 -3.5q-11 -8 -24 -8q-12 0 -35 11t-37 7q-3 5 -14 18.5t-16 21t-10 19.5t-5 23q0 18 8 31q0 29 19 43q30 0 43 16q6 -6 16 -6h12q2 4 18.5 18.5
t16.5 26.5q0 2 -1 6t-1 6q-2 0 -4.5 -1t-3.5 -1q-6 0 -8.5 18t-16.5 21l-10 -8l-18 18l-9 -10q-4 2 -12 8.5t-14 10t-14.5 7t-16.5 3.5t-20 -4v-9h-19q0 5 4.5 11t5.5 8l-5 4q-5 4 -9 4q-3 0 -10.5 -7.5t-9.5 -10.5v10q-8 2 -27 2q-58 0 -102.5 -35t-87.5 -96
q-1 -13 -9 -52.5t-8 -60.5q0 -26 10 -53h-6q-8 0 -12 8q0 -3 -1 -9t-1 -9q0 -19 12 -60.5t12 -74.5q0 -22 25 -60.5t14 -71.5q17 -4 17 -16q0 -5 -4 -15.5t-4 -15.5q0 -6 24 -6v-14q10 -2 35 -2q18 0 56.5 2t56.5 2q30 0 64 -19t34 -49q0 -14 -17 -22t-34 -8q-13 0 -39 4
t-39 4q-23 0 -31 -8q-8 4 -24 4q-31 0 -50.5 -17t-19.5 -47q-4 -8 -4 -14q0 -10 15.5 -24.5t15.5 -26.5q0 -59 -12 -133t-33 -115q-4 2 -13 2q-11 0 -15 -13.5t-3.5 -29.5t-6.5 -28.5t-24 -10.5q-3 -14 -17 -24.5t-28.5 -16.5t-26.5 -16.5t-12 -24.5q0 -10 2 -16
q29 -13 60 -13q24 0 51 9.5t51 9.5q25 18 53 18q7 0 38 4t38 0q10 -4 16 -13t7 -16v-7q11 0 17.5 13t14.5 17q12 -1 37 -9.5t33 -8.5q28 0 76.5 24t68.5 48q11 19 23 86q10 7 13.5 12.5t2.5 7.5l-2 2q-1 -1 -4 0.5t-5.5 4t-2.5 5.5q5 47 8 58h62l-9 -11q25 -36 25 -77z" />
    <glyph glyph-name="currency" unicode="&#xa4;" horiz-adv-x="1054" 
d="M180 348l10 12l-32 25l14 -29zM514 422l10 8l-10 10l-8 -10zM754 682l-13 10q-3 3 3.5 17t12.5 33t-7 54t-50 74q-58 48 -140 51t-148 -30l8 -10l-12 -13q-40 -37 -64.5 -89t-17.5 -101q-1 -10 5 -21.5t12 -19t4.5 -17t-15.5 -18.5q24 -3 41 -20q8 -7 17 -28t16 -28
q4 -3 16 -2.5t18 -1.5q0 -10 6 -16q4 -4 27 -3t31 -16q11 1 35.5 4t33 4.5t26.5 5t27 8t23.5 12t26.5 18t26 24.5q67 63 52 119zM365 879l12 10l-12 12l-11 -12zM287 973l10 8l-10 8l-8 -8zM223 1047l10 10l-10 12l-12 -12zM848 537l133 -131q20 -20 7.5 -55t-50.5 -66
l-47 -41q-26 7 -45 26q-10 8 -29 37q-3 6 -10 19.5t-10 19.5q-8 4 -14 6.5t-8 4l-6 4.5t-13 12l-23 20q-11 14 -18 19q-69 -50 -137 -72q-20 12 -68.5 14t-98 9t-75.5 32l-123 -143q-6 3 -18.5 9t-18.5 9q-21 9 -41 33q-14 12 -22 39h-17q-14 31 8 53q7 7 27 19
q3 2 11.5 7.5t11.5 8.5q7 7 10 23q27 36 57 71l4 4q-17 23 -27.5 40t-21.5 50t-11 67.5t12 86.5t38 113l10 6q0 4 4 4q-19 22 -45 59q-20 2 -47 25q-12 12 -35 49q-3 4 -8 11.5t-8 11.5q-3 6 -25 28l11 11q5 3 14 16.5t10 21.5q9 27 17 35q9 9 29 19t32 10l-14 -25
q19 19 22 25l15 8q29 -45 88 -104q36 -38 61 -72l-18 -23q1 -1 20 7q32 32 77 46t89 5q15 11 28 16.5t27.5 3t22 -4.5t26 -11t25.5 -12q24 -10 62 -21q11 5 24 14q10 13 25 35q18 27 26 35q35 35 54 33q6 0 8 2q4 0 4 4q1 1 3 4t3 4l4 2l2 2t5 4t9 7q8 -23 17 -29
q7 -8 28.5 -25.5t28.5 -25.5q38 -36 -14 -99q-62 -66 -82 -84q12 -20 16 -28q-16 -17 -10 -23q4 -3 15.5 -5.5t15.5 -6.5q3 -3 3.5 -10.5t-1.5 -10.5q-7 -27 -3.5 -62.5t11 -66t-5 -76t-49.5 -92.5z" />
    <glyph glyph-name="yen" unicode="&#xa5;" horiz-adv-x="1202" 
d="M434 37h15v12h-15v-12zM535 199h14v14h-14v-14zM582 287h14v14h-14v-14zM528 410h11v14h-11v-14zM455 707zM610 625h2h-2zM584 795h6v10h-10v-8zM436 971l8 -19v19h-8zM625 776h10v10h-10v-10zM336 1102h18v14h-18v-14zM526 915h13v15h-13v-15zM264 1171h19v9
q-2 1 -8 5.5t-11 4.5v-19zM498 991v4h-17l8 -18q9 9 9 14zM201 1311h16v14h-16v-14zM201 1329h16v14h-16v-14zM90 1477h14v10h-14v-10zM453 1190h14v10h-14v-10zM152 1505v13q-11 0 -15 -2v-11h15zM264 1380h8v19h-8v-19zM426 1260h14l-4 10h-10v-10zM924 1391l10 -19v19
h-10zM883 1448h16v10h-16v-10zM1067 1491h18v6l-4 2q-6 0 -14 -8zM1182 1511q-10 -24 -30.5 -39.5t-38 -21t-49.5 -13t-46 -12.5q-14 -35 -46 -118t-49 -128t-41.5 -112.5t-43.5 -124.5q49 0 61 4q24 4 35 4q19 0 39 -10q12 12 35 12q11 0 51 -10q14 -17 14 -37
q0 -18 -10.5 -33.5t-30.5 -15.5h-80q-35 0 -73 6q-3 -4 -23 -4h-8h-4q-11 -11 -17 -24q-13 -13 -36 -50q-2 -8 -9 -35t-10 -42l4 -5q12 0 36 -2t36 -2q34 0 65 -8q17 12 48 12q29 0 53 -6q9 -2 29 -13.5t36 -16.5q-4 -8 -7 -13t-4.5 -8t-2.5 -4l-6 -6q-3 -5 4 -27
q-40 0 -101.5 5t-87.5 5q-76 0 -120 -20v-10q0 -11 -13 -33q-12 -74 -12 -113q0 -50 10 -108q2 -2 2 -4l-2 4q-5 0 -11.5 -15.5t-6.5 -21.5v-4q20 0 20 -10q0 -6 -6 -17.5t-6 -17.5q0 -4 4 -12l-12 -13q6 0 14 -4.5t8 -9.5q0 -4 -5 -10.5t-5 -10.5q3 -8 15 -16
q-15 -8 -15 -25q0 -3 3 -14t5 -20t0 -11q12 -15 29 -22t29.5 -7.5t36.5 1.5t34 2q54 0 76 -45h2q2 5 10 10l-10 -10q-8 -9 -11 -31t-18 -32.5t-59 -10.5q-16 0 -48 6t-48 6q-36 0 -68 -16q-20 20 -63 20q-23 0 -35 -2q-4 -4 -10 -4q-8 0 -25 9.5t-20 9.5l-226 -15
q-26 21 -26 35q0 5 3 9t9.5 8.5t11 7t13.5 6.5l8 4l-8 8q17 6 80 25l-9 10q12 -6 15 -6q7 0 19.5 19t29.5 14q8 21 19.5 72.5t25.5 76.5q-19 6 -19 16q0 5 5.5 14.5t5.5 14.5l-2 6q4 8 4 13q0 7 -10 10.5t-11 5.5l17 8q-21 21 -21 43q0 17 11.5 34t11.5 28q0 15 -10.5 39.5
t-10.5 37.5q0 17 10 27v-12q4 0 19 10q-15 15 -37 18l37 27q-6 6 -12 8q-10 0 -26 -1t-19 -1q-69 0 -89 8q-33 -1 -60 -1.5t-47 -2t-73 -6.5v2q-7 1 -18.5 12.5t-16.5 20.5q0 21 8.5 38t28.5 17q7 0 21 -2t20 -2q11 0 15 4q41 6 118 6q77 5 93 7q0 2 -2 2.5t-6 1t-7 2.5
q-7 26 -16.5 48.5t-23.5 53t-21 45.5q-11 -2 -25.5 -2t-32.5 1t-26 1q-21 0 -58 -2.5t-53 -3.5q-3 4 -9.5 6.5t-12 3.5t-6.5 2q0 1 3 14.5t3 14.5q-2 5 -15 18q36 43 88 43q17 0 50 -5t49 -5q6 0 12 -4q-1 5 -3 14.5t-3 14.5q-26 44 -55 115.5t-49 127t-58.5 115.5t-87.5 96
q-6 4 -24.5 5t-30 8t-11.5 26q0 21 27 33q10 -2 29 -2q13 0 23.5 3.5t21 9.5t16.5 8v4h15v-2h2q13 2 47 -13q16 5 121.5 1.5t119.5 -3.5q19 0 24 -9.5t6 -26t9 -25.5q-24 -2 -44 -15.5t-29 -35.5l10 -11l-19 -14q25 -5 25 -16q0 -7 -4 -19t-4 -18q0 -14 10 -21l10 -22h4v-10
q57 -116 95 -177q30 -47 67 -160t74 -165q1 13 12.5 37.5t11.5 38.5q0 10 -4 18h4q6 0 13 8.5t8 9.5q-10 0 -10 7q0 4 7 9.5t14 17t7 30.5q0 20 21 37l141 395q-11 15 -13.5 29t-1.5 20.5t-4.5 12t-22 8.5t-54.5 6l33 18q-7 17 -23 17q-9 0 -22 -9q2 3 5 10l4.5 10.5t5 8.5
t7.5 7.5t10 4.5t13 2q31 0 106 1.5t136 1.5t102 -3z" />
    <glyph glyph-name="brokenbar" unicode="&#xa6;" horiz-adv-x="790" 
d="M385 -145h16v12h-16v-12zM422 1092h24v12h-24v-12zM375 127l-6 -41l-11 51zM483 328q0 -36 -2 -52q-18 -10 -18 -38v-15q16 -4 16 -16l-2 -5q-2 -4 -4.5 -11.5t-5 -17t-4.5 -22t-2 -24.5q0 -32 6 -94t6 -92q0 -54 -16 -93q18 -3 18 -26t-12 -41q-18 -11 -26 -15.5
t-21.5 -8t-30.5 -3.5l-23 2q-43 36 -43 138q0 11 4.5 80t-1.5 79q18 24 18 58q0 19 -10.5 57t-10.5 59q0 29 19 58q-25 37 -25 92q0 22 5.5 67.5t5.5 69.5q0 36 -11 68q30 26 84 26q10 0 33 -2.5t33 0.5q1 -17 10.5 -120.5t9.5 -157.5zM483 1403q0 -13 -16 -25
q1 -24 4.5 -93t3.5 -107q0 -108 -18 -168q18 -15 18 -49q0 -22 -8 -54q-25 -14 -61 -14q-16 0 -27.5 3t-28 11t-24.5 11v18q0 17 -9 47.5t-10 36.5h6q11 7 11 16t-8 23t-9 20q9 4 13 12t5 13t0 18t-1 17q0 15 8 26q-8 19 -8 47q0 16 6.5 65.5t1.5 76.5q4 4 4 10t-5 19t-5 20
q0 12 16 24l-16 11q2 14 2 45q0 23 -5.5 70.5t-5.5 72.5q0 55 25 103q9 -3 20 -3q12 0 27 5.5t27 5.5q31 0 51 -27q5 -24 6.5 -48.5t0.5 -65.5t-1 -50q0 -45 8 -84q-10 -7 -10 -18q0 -7 6 -20.5t6 -20.5zM401 1329h-22l12 64z" />
    <glyph glyph-name="section" unicode="&#xa7;" horiz-adv-x="970" 
d="M188 -137h15v12h-15v-12zM741 -240h9v15h-9v-15zM770 -229h12v10h-12v-10zM166 381h10v14h-10v-14zM94 524h12v11h-12v-11zM100 604h15v8h-15v-8zM307 397h12v15h-12v-15zM211 705h14v12h-14v-12zM770 428q0 18 -10 50t-12 46q-25 7 -69.5 52.5t-66.5 56.5q-4 -2 -14 -2
q-17 0 -34.5 9.5t-37.5 25.5t-30 22q-27 3 -90 34.5t-82 31.5q-8 0 -17.5 -10.5t-20 -26.5t-12.5 -19q-13 -2 -22.5 -16t-18 -34.5t-12.5 -26.5q8 -8 8 -15q0 -6 -9 -19t-9 -16q0 -20 17.5 -53.5t15.5 -48.5q31 -30 109.5 -67.5t109.5 -65.5l10 6l23 -23l6 11l16 -17l10 6
q15 -21 35 -28t47.5 -9.5t42.5 -7.5q34 10 63 45t38 72q16 16 16 37zM725 313h8v9h-8v-9zM473 782h10v15h-10v-15zM535 754h14v10h-14v-10zM463 885h16h-16zM573 776h17h-17zM612 766h15v14h-15v-14zM793 610h14v13h-14v-13zM250 1303h14v12h-14v-12zM659 1184h13v14h-13
v-14zM692 1192h13v12h-13v-12zM909 528q0 -26 -6 -53l-4 2l-12 -8l16 -16q-16 -18 -42 -60.5t-52.5 -71.5t-60.5 -40q-10 -4 -22 -5.5t-18 -2.5t-14.5 -7t-17.5 -18q14 -15 43 -42.5t49.5 -51t34.5 -48.5h16l-16 -16q45 -29 45 -84q0 -14 -7 -75t1 -76q-5 -5 -16.5 -27.5
t-22.5 -28.5q2 -2 2 -8q0 -12 -19 -35t-16 -41q-17 -21 -62.5 -45t-62.5 -43l-8 11q-13 -11 -30 -19t-30.5 -12t-37.5 -6t-34 -2.5t-38 0t-33 0.5q-10 0 -72 5t-71 7q-14 14 -46 30.5t-56.5 35t-32.5 44.5h-13l7 11q-9 3 -16 8.5t-11.5 15t-7 16t-3.5 20.5t-1 19v20v17
q0 10 16 34t16 46q12 1 31.5 15t36.5 8q11 14 31 14q12 0 57 -20l25 -27l-9 -6q25 -14 25 -39q0 -9 -5 -28t-5 -29q-6 -15 -41 -38t-35 -38q0 -21 52 -49.5t79 -30.5q20 -2 64 -2q40 0 63 18l16 -16q19 13 51 27t56 30t41 43l-2 4q0 5 12.5 28t5.5 32q-1 7 8 16.5t9 12.5
q0 7 -7 10l23 8q-6 24 -27.5 64.5t-27.5 60.5q-16 16 -19 16q-2 0 -14 -6q0 -2 -2 -2l-2 6q-4 12 -7.5 18.5t-11 13t-16.5 3.5v10q0 4 -1.5 6.5t-3 4t-5 2t-5.5 0.5h-6.5h-5.5q-14 0 -20 6q-39 44 -108.5 77.5t-96.5 57.5h-6q-12 -1 -31 14.5t-35 9.5q-19 21 -57 33.5
t-45 30.5q-8 -4 -12 -4q-11 0 -17 11t-8.5 24t-12.5 22.5t-28 7.5q0 22 -16.5 59.5t-16.5 57.5q1 1 6 1.5t8 2t3 4.5q0 4 -4 11.5t-4 11.5q0 2 8 10q-10 10 -10 23q0 15 15.5 44t16.5 44q4 4 15.5 7t16.5 8t1 17q49 70 103 78q5 6 21 15.5t27 20t11 24.5q0 17 -21 34l-8 -10
q-6 6 -33 27t-38 38t-7 40q-26 13 -36 45t-13.5 74t-11.5 61q39 138 156 252h6q11 -1 36 9.5t37 6.5q4 13 17.5 19t26.5 4h12l6 -6l16 22q10 0 44.5 -0.5t51 -1.5t44 -4t49.5 -9.5t41 -17.5q2 2 6 2q5 0 21.5 -9.5t27.5 -8.5l-10 -6q42 -7 75 -60.5t33 -99.5
q0 -21 -20 -59.5t-23 -55.5q-57 -10 -67 -10q-31 0 -54 23l-14 -13l-24 29l8 10q-15 10 -15 21q0 5 3.5 15t3.5 16q0 10 -15 18q9 2 25.5 17.5t27.5 15.5q9 0 17 -8q10 50 10 59q0 40 -33 49q-11 3 -35.5 12.5t-44.5 15t-36 5.5q-21 0 -41 -17h-17v7l-6 10q-4 2 -10 2
q-9 0 -11.5 -11.5t-5.5 -13.5l-12 17q-4 -3 -13.5 -13t-17.5 -13.5t-18 -0.5l-70 -68l9 -10l-25 -30l2 -3q0 -9 -8 -24.5t-8 -24.5q0 -11 14 -20q-6 -15 -6 -35q0 -35 21.5 -69.5t61.5 -65.5t74 -52.5t83.5 -48.5t64.5 -36q5 -3 40 -18t48 -27h4q26 1 70.5 -26.5t48.5 -29.5
q100 -107 100 -209zM610 842v-11h-12v11h12z" />
    <glyph glyph-name="dieresis" unicode="&#xa8;" horiz-adv-x="897" 
d="M629 1464h14v15h-14v-15zM668 1475h10v12h-10v-12zM375 1393q-2 -3 -12 -19t-13.5 -20.5t-13.5 -19t-15 -19.5l-15.5 -15.5t-18.5 -15t-19 -10.5t-22.5 -8t-24.5 -2q-27 0 -59 27.5t-47 33.5q2 6 2 18q0 17 -7.5 49t-7.5 48q0 12 2 18l27 19l-8 8q30 34 56.5 51.5
t62.5 17.5q12 0 32 -4q16 -24 35 -18l-8 -8l27 -21l-6 -6q11 -51 53 -104zM799 1397q0 -41 -36 -78.5t-77 -48.5q-7 11 -30.5 15t-45.5 5t-39 14.5t-16 41.5v10q4 12 4 22q0 14 -10 37t-10 35q0 20 16 33q16 7 34 27.5t36 35.5t39 15q22 0 43 -14t43 -35t36 -29v-15
q0 -12 6.5 -35t6.5 -36z" />
    <glyph glyph-name="copyright" unicode="&#xa9;" horiz-adv-x="1669" 
d="M455 649v-20h-15v20h15zM588 25h14v20h-14v-20zM991 -2h31v33h-31v-33zM1522 700q0 61 -33 105q12 15 12 31t-17.5 48.5t-15.5 51.5q-15 3 -22 20q4 8 4 15q0 12 -18 32t-19 31q-15 10 -27 34t-28 43.5t-45 25.5q-4 34 -41 59.5t-87.5 46.5t-66.5 35q-12 -4 -18 -4
q-24 0 -37 20q-13 12 -47.5 17.5t-48.5 13.5l-11 -16q-29 22 -53 22q-21 0 -45 -12q-11 7 -16 18h-13q-14 0 -42 -10t-44 -10q-6 0 -18.5 4t-19.5 4q-13 0 -35 -14.5t-37 -14.5q-9 0 -23 7q-11 -16 -30 -24t-36 -11t-34.5 -16t-26.5 -38l-12 17l-70 -53l-6 4l-110 -109
q-9 -9 -23.5 -30t-21.5 -29v-8q2 -24 -25 -56t-31 -43q4 -8 4 -14q0 -9 -8.5 -25t-9.5 -24q-1 -18 -8.5 -73t-7.5 -85q0 -26 10 -123.5t16 -116.5q20 -3 33 -22l-10 -6q12 -17 50 -88.5t71 -102.5l14 15q6 -18 16 -26t17.5 -8t11 -6.5t0.5 -23.5q10 -8 36.5 -22t37.5 -25
l4 6q99 -70 237 -86q15 -20 52 -20q15 0 47 5t49 5q8 0 24 -4q9 -6 23 -6q12 0 49.5 15t69.5 7q18 22 70 36.5t57 16.5q9 4 24 13t27.5 14t26.5 6q0 23 30 23q1 0 9.5 -1t15 -1t8.5 2l-8 28q2 2 3.5 5l2 4t2.5 1.5t6 0.5q9 12 32.5 25t31.5 22q37 17 54.5 62t47.5 65l-2 31
l29 34v9q-1 19 13.5 44t14.5 64q0 25 7.5 72.5t7.5 70.5zM1133 1087q0 2 1 6t1 5l41 -2l2 -303h-43q-4 12 -7 39t-8 40q-2 1 -7.5 3.5t-8 4.5t-5 6.5t-1.5 10.5q-1 3 -13 42t-28 54q-32 5 -37 8q-49 36 -81 49t-87 13q-64 0 -112 -21.5t-76.5 -56.5t-46 -86t-23.5 -102
t-6 -113q0 -61 5 -110.5t22 -102.5t44.5 -88.5t75.5 -58.5t113 -23q117 0 170 41q19 16 35 20q48 36 102 109l37 -27q-9 -12 -19.5 -32t-25.5 -35l-19 -23l-10 -24l-67 -37q-35 -19 -52 -25l-22 -22q-17 1 -21 0.5t-14 -2t-20 -2.5l-37 -4q-9 0 -29.5 -1t-30.5 -1
q-158 0 -223 65q-59 17 -111 86.5t-80 149t-28 141.5q0 9 1 27.5t1 27.5q23 8 23.5 42t15.5 50q-2 4 -2 13q0 28 17 57t36 47t50 44.5t42 37.5q6 7 19 13t31.5 12.5t25.5 9.5l2 18q18 -6 21 -6q6 0 20 9.5t31 4.5q2 2 6 12.5t10 10.5q1 0 5 -3t8 -6.5t6 -4.5q40 6 79 6
q97 0 146 -21q4 2 10 2q15 0 37.5 -17t30.5 -17q3 0 12 -5t12 -4q1 -2 4 -6.5t5 -7t6 -5t8 -3.5l8 22q2 2 7.5 3t10.5 1.5t5 1.5v43zM1608 655q0 -13 -17 -22v-25q3 -46 -22 -94q4 -12 4 -18q0 -21 -21.5 -54.5t-21.5 -56.5q0 -21 -21.5 -48t-17.5 -56q-29 -15 -58.5 -50.5
t-48.5 -48.5q-20 -14 -26.5 -29t-11.5 -20q-11 -8 -25 -8q-100 -89 -201 -100l-61 -43l-10 14l-11 -16q-40 0 -110 -8.5t-109 -8.5q-32 0 -70 3.5t-92 10.5t-69 9q-12 10 -24 15.5t-29 9.5t-25 7l-6 13h-2h-19q-10 19 -51 38.5t-49 26.5q-14 0 -23.5 7t-13.5 15.5t-12 17
t-18.5 12t-32.5 -0.5q10 20 10 31q0 7 -23 18.5t-28 28.5q-33 27 -54 56.5t-44 77.5t-35 69q7 7 10 16q-3 5 -8.5 11t-14 14t-10.5 10l14 6v7q-11 5 -22.5 34t-14.5 33q3 0 12 3.5t9 6.5q-8 5 -11 14t1 17q-13 17 -13 29l2 8l11 12q-4 8 -4 17q0 8 4 23.5t4 23.5
q0 15 -10 28q4 12 49 191q0 2 -1 5.5t-1 4.5q0 12 13 26.5t11 28.5q2 4 24.5 31t24.5 47l15 6h-2l2 4q7 17 35 42t36 44q10 24 58 50q1 1 6.5 4t7.5 4t6 4t5.5 5.5t3 6.5t1.5 8q30 7 77 43.5t77 44.5q4 -4 10 -4q13 15 17 17l-11 16q6 -2 23 -2q13 0 35 8t33 8q12 0 24 -6
l21 21q5 -19 16 -19q9 0 56 13.5t63 19.5q41 -8 125.5 -15.5t146.5 -23t117 -51.5q1 -6 2 -8.5t2 -2.5t5 0.5t7 0.5q14 0 27 -17q55 -3 86 -57h12q8 -9 80 -95.5t115 -125.5l-15 -12l33 -29l-10 -6l20 -13l-6 -8q11 -7 11 -20q0 -3 -2.5 -10.5t-2.5 -10.5q0 -6 25 -6
q-4 -12 -4 -37q0 -26 15.5 -77t15.5 -78q0 -17 -2 -23q-1 -1 -4.5 -2.5t-6 -3.5t-2.5 -4q15 -8 15 -23z" />
    <glyph glyph-name="ordfeminine" unicode="&#xaa;" horiz-adv-x="651" 
d="M301 1372h-4h4zM92 745l8 7v8l-8 -2v-13zM184 1090h21l-10 8h-11v-8zM348 997q-9 13 -11.5 21t-3.5 17.5t-5 19.5l6 4q-8 12 -14.5 46t-18.5 46l4 6l-6 12l-2 5h2v12l-6 2q2 14 -39 69q10 -30 10 -38q0 -7 -7 -24t-5 -30q-6 -3 -7.5 -8t-1 -8t-2.5 -5.5t-12 -2.5
q4 -12 4 -21q0 -10 -8.5 -29t-9.5 -26q0 -1 1 -5.5t1 -6.5q0 -5 -3 -15.5t-3 -15.5q0 -6 2 -10l-2 -2l10 -9l6 7q35 -12 86 -4q2 -2 17.5 -4t17.5 -3zM383 1022l14 22l-32 -2h18v-20zM319 1167h19l-6 9h-8zM418 1110l2 6h-21q9 -6 19 -6zM367 1161l6 8l-15 -4v-20zM403 1171
l5 23h-11v-14zM262 1333h19l-25 6zM362 1249h15l-4 11l-8 -3zM303 1358h-6h6zM301 1372h2h-2zM303 1358l45 6l-45 8v-14zM330 1421h18v21h-18v-21zM590 721l-21 -21l-217 7q-6 0 -12 5.5t-6 12.5q0 5 5 14t5 13q0 2 -3 7.5t-3 6.5l22 -2l5 2v12q7 1 10.5 5t4 6.5t0 10.5
t-0.5 11q0 11 6 20q-5 5 -7 16t-3 13q0 20 -39 90q-25 4 -70 4q-46 0 -69 -2q0 -6 -6 -14.5t-7 -9.5h23q-19 -17 -31 -41t-20 -35q2 -4 2 -12t-4 -23.5t-4 -23.5q0 -7 4 -15h2q22 3 41 -16v-12q3 -19 -17 -35q-12 -2 -39 -2q-41 0 -59 6q-10 -4 -33 -4h-18q-11 4 -11 14v12
q6 12 16.5 19.5t18.5 10.5t13.5 13.5t3.5 28.5l12 -12q7 30 28.5 103.5t26.5 78.5q5 10 11 16v9l2 2q0 4 1 19t1.5 21t3.5 16.5t8 18.5l-19 9l13 12l-10 14q3 0 9 -1t9 -1q6 0 11.5 13.5t10 31.5t7.5 23v8q0 21 13.5 59.5t14.5 59.5h2v2q-1 10 9.5 36.5t17.5 37.5h2
q0 1 -4 5t-4 5q16 9 22.5 49t20.5 55h8q26 0 31 -16l10 2q6 -18 14.5 -59t16.5 -62q12 -9 8 -25q10 -18 19.5 -57t19.5 -57q2 -20 6 -21l2 -12l-2 -8q0 -9 11.5 -29.5t13.5 -28.5l22 23q-16 -43 -16 -57q0 -17 8 -50.5t8 -50.5q0 -5 3.5 -12t9.5 -14.5t8 -10.5
q-7 -17 -7 -32q0 -24 16.5 -67t16.5 -66q5 -3 8 -9t7 -9t14 -1v-10q1 0 2 -1t2 -1q18 0 25 -18t14 -23z" />
    <glyph glyph-name="guillemotleft" unicode="&#xab;" horiz-adv-x="827" 
d="M637 328h10v12h-10v-12zM557 461h12v12h-12v-12zM526 571h11v11h-11v-11zM629 743h16h-16zM369 219q0 -13 -15 -24v10q-52 1 -83.5 23.5t-55.5 70.5q-26 21 -56.5 78t-54.5 78l7 6q-12 1 -17.5 8.5t-5.5 14t1 20.5t1 18q0 16 -8 27l12 12q0 21 19 63t20 64h6q9 0 15 5
t13 15.5t9 12.5v12q17 7 41 40.5t43 39.5q0 26 28 40.5t58 14.5q-3 -13 8 -24h6q2 -2 2 -8q0 -9 -14 -17t-14 -16q0 -2 2 -7.5t2 -7.5q-3 -1 -5.5 -2t-4 -3.5t-2.5 -4.5t-2 -5.5t-1.5 -5.5t-0.5 -6v-6v-6.5v-5.5q-13 -16 -22.5 -41t-18.5 -56t-15 -46l-4 2q-2 0 -8.5 -6.5
t-9.5 -7.5v-31q0 -121 94 -252q-2 -4 -2 -12q0 -13 16.5 -37t16.5 -37zM745 205h-4q-2 0 -12 -10l-14 16q-14 -7 -8 -16h-7q-12 0 -24 16l-8 -6q-8 21 -63.5 88t-53.5 90h-25l9 6q-5 17 -33.5 41.5t-30.5 46.5q10 5 10 10q0 7 -16 23q14 26 6 68q40 37 47 88
q25 17 44.5 46.5t30.5 56t34.5 54.5t56.5 45l55 -8q-3 -7 -7.5 -24t-10 -28.5t-14.5 -19.5q13 -3 8 -22q-67 -55 -64 -156q-5 -5 -8 -9t-4.5 -10.5t-2 -9.5t0 -12t0.5 -12q0 -19 -16 -35q3 -15 21.5 -61t19.5 -72q78 -101 83 -184z" />
    <glyph glyph-name="logicalnot" unicode="&#xac;" horiz-adv-x="1671" 
d="M1042 690h13h-13zM1417 459h13v10h-13v-10zM1327 573l10 66v10h-14zM403 700v-10h-10v10h10zM1440 504l26 -17q-2 -3 -7 -9t-8 -11.5t-3 -11.5q0 -9 7 -32t7 -36q0 -15 -6 -27q-15 5 -18 5q-12 0 -49 -3.5t-48 -3.5q-49 0 -49 45v7l11 6q-11 19 -11 49q0 15 3 22t3 21
q0 36 -12 55q0 13 8.5 39t8.5 41q0 19 -15.5 31t-36.5 12q-10 0 -29.5 -6t-29.5 -6q-9 0 -34.5 11t-35.5 11q-12 0 -24 -16q-26 10 -84 8t-82 8q-4 -1 -27 -7.5t-35 -6.5q-24 0 -41 20q-182 -30 -186 -30q-11 0 -34 6t-34 6q-20 0 -43 -10q-90 22 -126 22q-9 0 -26.5 -3
t-25.5 -3h-143q0 6 1 18.5t1 18.5q0 66 -8 82l6 -10v10q0 27 18 27q6 0 18.5 -2.5t18.5 -2.5q12 0 23 7q71 18 166 18q44 0 132 -4t132 -4q61 0 96 -17q6 1 44.5 9t58.5 14q5 -14 16 -14q8 0 21.5 11t21.5 11q9 0 18 -14l17 14v-8q13 2 27 2t32 -1t29 -1q30 0 51 8
q2 -1 9.5 -7.5t13.5 -6.5h4l12 14v-4q0 -5 10 -10q7 14 21 14q9 0 28 -9t29 -9q8 0 16 4h23q21 1 43.5 -0.5t52.5 -5t43 -4.5v-21q0 -5 -6 -8q8 -16 8 -39q0 -12 -6.5 -48t-1.5 -56q-4 -16 -4 -27q0 -15 5 -42t5 -40q0 -27 -16 -53z" />
    <glyph glyph-name="softhyphen" unicode="&#xad;" horiz-adv-x="2048" 
 />
    </font>
</defs>
</svg>
